<?xml version="1.0" encoding="utf-8"?>
<!-- Generator: Adobe Illustrator 16.0.0, SVG Export Plug-In . SVG Version: 6.00 Build 0)  -->
<!DOCTYPE svg PUBLIC "-//W3C//DTD SVG 1.1//EN" "http://www.w3.org/Graphics/SVG/1.1/DTD/svg11.dtd">
<svg version="1.1" id="Calque_1" xmlns="http://www.w3.org/2000/svg" xmlns:xlink="http://www.w3.org/1999/xlink" x="0px" y="0px"
	 width="88.67px" height="78.818px" viewBox="0 0 88.67 78.818" enable-background="new 0 0 88.67 78.818" xml:space="preserve">
<g>
	<path id="Dropbox_1_" fill="#FFFFFF" d="M72.425,30L45.904,13.846L62.63,0l26.537,16.331L72.425,30z M62.453,60.533l25.469-14.911
		L72.603,32.663L47.667,47.752L62.453,60.533z M42,47.752L17.065,32.663L1.75,45.622l25.471,14.911L42,47.752z M18.313,58.402v4.794
		l25.451,15.622V49.169L26.865,63.016L18.313,58.402z M71.355,58.402l-8.547,4.616l-16.904-13.85v29.649l25.451-15.622V58.402
		L71.355,58.402z M43.764,13.846L27.041,0L0.5,16.331L17.246,30L43.764,13.846z"/>
</g>
</svg>
