<?xml version="1.0" encoding="utf-8"?>
<!-- Generator: Adobe Illustrator 16.0.0, SVG Export Plug-In . SVG Version: 6.00 Build 0)  -->
<!DOCTYPE svg PUBLIC "-//W3C//DTD SVG 1.1//EN" "http://www.w3.org/Graphics/SVG/1.1/DTD/svg11.dtd">
<svg version="1.1" id="Capa_1" xmlns="http://www.w3.org/2000/svg" xmlns:xlink="http://www.w3.org/1999/xlink" x="0px" y="0px"
	 width="435.838px" height="355.136px" viewBox="29.854 68.609 435.838 355.136"
	 enable-background="new 29.854 68.609 435.838 355.136" xml:space="preserve">
<g>
	<g>
		<path fill="#AF1D1F" d="M349.802,388.057c0,8.363,2.967,15.5,8.879,21.414c5.91,5.916,13.054,8.877,21.421,8.877
			c8.358,0,15.499-2.961,21.411-8.877c5.919-5.914,8.879-13.051,8.879-21.414c0-8.365-2.957-15.504-8.879-21.42
			c-5.912-5.912-13.053-8.873-21.411-8.873c-8.367,0-15.511,2.961-21.421,8.873C352.769,372.553,349.802,379.692,349.802,388.057z"
			/>
		<path fill="#AF1D1F" d="M436.183,119.921c-2.998-2.998-6.549-4.498-10.65-4.498h-284.22c-0.16-1.103-0.514-3.113-1.066-6.031
			c-0.552-2.92-0.985-5.248-1.3-6.984c-0.318-1.729-0.907-3.821-1.777-6.267c-0.868-2.448-1.893-4.382-3.076-5.798
			c-1.181-1.424-2.758-2.644-4.731-3.672c-1.971-1.022-4.221-1.536-6.744-1.536H62.036c-4.104,0-7.653,1.502-10.651,4.496
			c-2.998,2.997-4.498,6.549-4.498,10.65c0,4.102,1.5,7.652,4.498,10.649c3,2.999,6.55,4.497,10.651,4.497h48.272l41.885,194.769
			c-0.313,0.63-1.93,3.626-4.851,8.993c-2.917,5.366-5.245,10.058-6.979,14.08c-1.734,4.026-2.603,7.143-2.603,9.349
			c0,4.103,1.5,7.652,4.496,10.656c3.002,2.988,6.55,4.492,10.652,4.492h15.146h212.042h15.136c4.102,0,7.653-1.504,10.649-4.492
			c3-3.002,4.501-6.554,4.501-10.656c0-4.102-1.501-7.652-4.501-10.648c-2.996-2.994-6.545-4.499-10.649-4.499H177.517
			c3.788-7.574,5.682-12.618,5.682-15.141c0-1.584-0.197-3.32-0.593-5.21c-0.395-1.889-0.868-3.981-1.42-6.274
			c-0.553-2.28-0.906-3.978-1.063-5.082l247.072-28.872c3.941-0.476,7.178-2.165,9.701-5.09c2.525-2.915,3.784-6.268,3.784-10.056
			v-121.17C440.678,126.473,439.184,122.922,436.183,119.921z"/>
		<path fill="#AF1D1F" d="M137.761,388.057c0,8.363,2.957,15.5,8.875,21.414c5.918,5.916,13.054,8.877,21.418,8.877
			c8.36,0,15.5-2.961,21.415-8.877c5.917-5.914,8.878-13.051,8.878-21.414c0-8.365-2.958-15.504-8.878-21.42
			c-5.915-5.912-13.055-8.873-21.415-8.873c-8.363,0-15.503,2.961-21.418,8.873C140.72,372.553,137.761,379.692,137.761,388.057z"/>
	</g>
</g>
</svg>
