<?xml version="1.0" encoding="utf-8"?>
<!-- Generator: Adobe Illustrator 16.0.0, SVG Export Plug-In . SVG Version: 6.00 Build 0)  -->
<!DOCTYPE svg PUBLIC "-//W3C//DTD SVG 1.1//EN" "http://www.w3.org/Graphics/SVG/1.1/DTD/svg11.dtd">
<svg version="1.1" id="Calque_1" xmlns="http://www.w3.org/2000/svg" xmlns:xlink="http://www.w3.org/1999/xlink" x="0px" y="0px"
	 width="576.49px" height="495.744px" viewBox="211.76 427.131 576.49 495.744"
	 enable-background="new 211.76 427.131 576.49 495.744" xml:space="preserve">
<g>
	<g>
		<path fill="#AF1D1F" d="M748.302,628.769C718.823,515.662,618.698,432.163,500.01,432.163
			c-118.7,0-218.835,83.498-248.314,196.605c-19.016,2.468-34.084,34.023-34.084,72.694c0,39.452,15.685,71.528,35.248,72.821
			c13.951,57.714,57.361,104.925,113.998,123.541c1.176,9.621,13.961,18.203,30.458,19.77c17.94,1.705,33.28-5.516,34.29-16.127
			c1-10.598-12.727-20.572-30.645-22.266c-12.863-1.215-24.296,2.193-30.153,8.111c-53.161-17.301-93.933-61.516-107.032-115.594
			c15.43-8.507,26.766-36.7,26.766-70.254c0-26.922-7.312-50.376-18.164-63.007c25.617-105.513,117.944-183.869,227.631-183.869
			c109.676,0,201.994,78.346,227.614,183.87c-10.855,12.631-18.164,36.083-18.164,63.007c0,40.273,16.322,72.926,36.464,72.926
			c20.144,0,36.475-32.653,36.475-72.926C782.388,662.794,767.32,631.237,748.302,628.769z"/>
		<path fill="#AF1D1F" d="M500.01,509.072c-104.193,0-188.653,84.46-188.653,188.641c0,104.19,84.459,188.651,188.653,188.651
			c104.191,0,188.651-84.461,188.651-188.651C688.66,593.539,604.2,509.072,500.01,509.072z M409.857,693.977
			c-16.655,0-30.152-13.498-30.152-30.153c0-16.655,13.498-30.155,30.152-30.155c16.646,0,30.147,13.5,30.147,30.155
			C440.004,680.48,426.503,693.977,409.857,693.977z M590.191,693.977c-16.655,0-30.155-13.498-30.155-30.153
			c0-16.655,13.5-30.155,30.155-30.155s30.155,13.5,30.155,30.155C620.346,680.48,606.846,693.977,590.191,693.977z"/>
	</g>
</g>
</svg>
