<?xml version="1.0" encoding="utf-8"?>
<!-- Generator: Adobe Illustrator 16.0.0, SVG Export Plug-In . SVG Version: 6.00 Build 0)  -->
<!DOCTYPE svg PUBLIC "-//W3C//DTD SVG 1.1//EN" "http://www.w3.org/Graphics/SVG/1.1/DTD/svg11.dtd">
<svg version="1.1" id="Capa_1" xmlns="http://www.w3.org/2000/svg" xmlns:xlink="http://www.w3.org/1999/xlink" x="0px" y="0px"
	 width="435.838px" height="355.136px" viewBox="29.854 68.609 435.838 355.136"
	 enable-background="new 29.854 68.609 435.838 355.136" xml:space="preserve">
<g>
	<g>
		<path fill="#EFC73D" d="M139.976,415.976h215.6h18.34h43.518v-43.525v-11.153V131.333v-11.161V76.654h-43.518h-18.34h-215.6
			h-18.34H78.114v43.518v11.165v229.961v11.153v43.524h43.519L139.976,415.976L139.976,415.976z M310.073,129.671
			c0-4.125,1.469-7.687,4.42-10.719c2.942-3.012,6.547-4.522,10.825-4.522h38.438c4.27,0,7.878,1.51,10.824,4.522
			c2.943,3.027,4.419,6.594,4.419,10.719v36.45c0,4.27-1.476,7.886-4.419,10.821c-2.946,2.951-6.555,4.419-10.824,4.419h-38.443
			c-4.273,0-7.882-1.468-10.824-4.419c-2.947-2.935-4.42-6.552-4.42-10.821v-36.45H310.073z M296.262,211.937
			c13.326,12.885,19.992,28.458,19.992,46.717c0,18.268-6.666,33.844-19.992,46.722c-13.333,12.893-29.421,19.329-48.269,19.329
			c-18.706,0-34.719-6.437-48.048-19.329c-13.332-12.874-19.991-28.451-19.991-46.722c0-18.26,6.662-33.836,19.991-46.717
			c13.329-12.886,29.345-19.331,48.048-19.331C266.845,192.606,282.93,199.055,296.262,211.937z M169.336,129.671
			c0-4.125,1.468-7.687,4.419-10.719c2.943-3.012,6.552-4.522,10.824-4.522h8.093c4.27,0,7.878,1.51,10.825,4.522
			c2.947,3.027,4.419,6.594,4.419,10.719v36.45c0,4.27-1.472,7.886-4.419,10.821c-2.947,2.951-6.556,4.419-10.825,4.419h-8.093
			c-4.272,0-7.881-1.468-10.824-4.419c-2.947-2.935-4.419-6.552-4.419-10.821V129.671z M115.891,129.671
			c0-4.125,1.472-7.687,4.419-10.719c2.943-3.012,6.548-4.522,10.825-4.522h8.092c4.27,0,7.878,1.51,10.825,4.522
			c2.947,3.027,4.419,6.594,4.419,10.719v36.45c0,4.27-1.472,7.886-4.419,10.821c-2.947,2.951-6.556,4.419-10.825,4.419h-8.092
			c-4.273,0-7.882-1.468-10.825-4.419c-2.946-2.935-4.419-6.552-4.419-10.821V129.671z M115.891,372.069V228.916h31.148
			c-2.947,9.276-4.418,18.932-4.418,28.943c0,28.271,10.306,52.397,30.927,72.347c20.618,19.953,45.434,29.925,74.448,29.925
			c19.145,0,36.815-4.556,53.018-13.695c16.2-9.12,29.013-21.539,38.438-37.219c9.422-15.688,14.136-32.808,14.136-51.361
			c0-10.011-1.471-19.666-4.418-28.943h29.822v143.157c0,3.83-1.326,7.033-3.976,9.605c-2.648,2.589-5.818,3.865-9.498,3.865
			H129.366c-3.83,0-7.034-1.276-9.61-3.865C117.179,379.102,115.891,375.898,115.891,372.069z"/>
	</g>
</g>
</svg>
