<?xml version="1.0" encoding="utf-8"?>
<!-- Generator: Adobe Illustrator 16.0.0, SVG Export Plug-In . SVG Version: 6.00 Build 0)  -->
<!DOCTYPE svg PUBLIC "-//W3C//DTD SVG 1.1//EN" "http://www.w3.org/Graphics/SVG/1.1/DTD/svg11.dtd">
<svg version="1.1" id="Calque_1" xmlns="http://www.w3.org/2000/svg" xmlns:xlink="http://www.w3.org/1999/xlink" x="0px" y="0px"
	 width="68.397px" height="83.6px" viewBox="0 0 68.397 83.6" enable-background="new 0 0 68.397 83.6" xml:space="preserve">
<g>
	<path fill="#FFFFFF" d="M66.736,39.662C65.625,38.555,64.282,38,62.698,38h-1.9V26.6c0-7.283-2.611-13.537-7.836-18.762
		C47.735,2.613,41.484,0,34.199,0c-7.283,0-13.538,2.613-18.763,7.838C10.211,13.063,7.599,19.316,7.599,26.6V38H5.7
		c-1.583,0-2.929,0.555-4.037,1.662C0.554,40.77,0,42.116,0,43.7v34.199c0,1.583,0.554,2.93,1.663,4.039
		C2.771,83.045,4.117,83.6,5.7,83.6h56.998c1.584,0,2.93-0.555,4.038-1.661c1.108-1.109,1.661-2.456,1.661-4.039V43.698
		C68.401,42.116,67.844,40.771,66.736,39.662z M49.399,38H19V26.6c0-4.195,1.485-7.778,4.454-10.746
		c2.969-2.969,6.55-4.453,10.747-4.453c4.195,0,7.777,1.484,10.745,4.453c2.97,2.967,4.453,6.551,4.453,10.746V38L49.399,38z"/>
</g>
</svg>
