<?xml version="1.0" encoding="utf-8"?>
<!-- Generator: Adobe Illustrator 16.0.0, SVG Export Plug-In . SVG Version: 6.00 Build 0)  -->
<!DOCTYPE svg PUBLIC "-//W3C//DTD SVG 1.1//EN" "http://www.w3.org/Graphics/SVG/1.1/DTD/svg11.dtd">
<svg version="1.1" id="Calque_1" xmlns="http://www.w3.org/2000/svg" xmlns:xlink="http://www.w3.org/1999/xlink" x="0px" y="0px"
	 width="192.414px" height="192.414px" viewBox="0 0 192.414 192.414" enable-background="new 0 0 192.414 192.414"
	 xml:space="preserve">
<rect x="-21.825" y="-20.586" display="none" fill="#616161" width="500" height="500"/>
<rect x="171.07" y="-177.164" transform="matrix(-0.7963 -0.6048 0.6048 -0.7963 313.0221 621.0696)" display="none" fill="#DCDA33" width="180.001" height="870.001"/>
<g>
	<g>
		<defs>
			<rect id="SVGID_1_" width="192.414" height="192.414"/>
		</defs>
		<clipPath id="SVGID_2_">
			<use xlink:href="#SVGID_1_"  overflow="visible"/>
		</clipPath>
		<g clip-path="url(#SVGID_2_)">
			<defs>
				<rect id="SVGID_3_" width="192.414" height="192.414"/>
			</defs>
			<clipPath id="SVGID_4_">
				<use xlink:href="#SVGID_3_"  overflow="visible"/>
			</clipPath>
			<path clip-path="url(#SVGID_4_)" fill="#AF1D1F" d="M113.397,61.648l-0.488-1.204c-0.676-1.677-1.446-4.914-1.641-8.364
				c-0.166-2.907,0.033-6.957,1.91-9.738c1.782-2.641,4.664-3.625,8.475-2.861c3.585,0.718,5.653,2.202,6.143,4.411
				c1.188,5.331-7.856,12.93-13.353,16.986L113.397,61.648z M119.283,41.245c-1.976,0-3.427,0.727-4.435,2.223
				c-2.563,3.801-1.562,11.275-0.495,14.958c7.739-5.893,12.113-11.241,11.478-14.097c-0.304-1.36-1.843-2.326-4.575-2.873
				C120.555,41.315,119.892,41.245,119.283,41.245"/>
			<path clip-path="url(#SVGID_4_)" fill="#AF1D1F" d="M126.932,63.366c-4.314,0-9.116-0.798-12.384-1.468l-1.274-0.26l0.572-1.167
				c1.722-3.528,8.392-11.989,14.685-11.989c2.718,0,4.988,1.501,6.743,4.46c1.741,2.933,2.098,5.337,1.067,7.147
				C135.102,62.264,131.939,63.366,126.932,63.366 M116.312,60.193c3.061,0.578,7.03,1.158,10.621,1.158
				c4.169,0,6.818-0.781,7.658-2.258c0.648-1.136,0.295-2.859-1.048-5.124c-1.387-2.337-3.025-3.473-5.01-3.473
				C123.868,50.496,118.477,56.71,116.312,60.193"/>
			<path clip-path="url(#SVGID_4_)" fill="#AF1D1F" d="M129.116,77.435c-5.313,0-11.781-9.286-15.163-14.822l-0.679-1.108
				l1.243-0.378c1.394-0.428,4.198-0.926,7.513-0.926c3.254,0,9.109,0.528,11.753,4.06c1.443,1.925,1.732,4.416,0.857,7.399
				C133.52,75.491,131.658,77.435,129.116,77.435 M116.401,62.736c5.029,7.968,9.741,12.684,12.715,12.684
				c1.541,0,2.75-1.456,3.592-4.326c0.688-2.342,0.507-4.235-0.538-5.625c-2.118-2.831-7.261-3.253-10.14-3.253
				C119.881,62.215,117.857,62.447,116.401,62.736"/>
			<path clip-path="url(#SVGID_4_)" fill="#AF1D1F" d="M72.236,39.326c-2.508,0-6.987-0.389-8.828-2.989
				c-0.896-1.267-1.029-2.823-0.393-4.627c1.02-2.891,2.649-3.497,3.836-3.497c1.88,0,5.124,1.603,9.898,9.235l0.748,1.194
				l-1.369,0.321C75.156,39.189,73.702,39.326,72.236,39.326 M66.852,30.227c-0.783,0-1.432,0.724-1.936,2.152
				c-0.414,1.168-0.367,2.081,0.138,2.794c0.946,1.338,3.632,2.137,7.182,2.137c0.736,0,1.405-0.036,1.972-0.089
				C71.306,32.872,68.544,30.227,66.852,30.227"/>
			<path clip-path="url(#SVGID_4_)" fill="#AF1D1F" d="M77.443,38.824l-1.06-0.647c-1.841-1.124-7.07-5.717-6.727-9.805
				c0.105-1.274,0.813-3.024,3.577-4.133c1.075-0.432,2.001-0.642,2.83-0.642c1.234,0,2.229,0.485,2.878,1.403
				c1.861,2.631,0.439,8.333-1.084,12.651L77.443,38.824z M76.063,25.612c-0.557,0-1.258,0.167-2.081,0.496
				c-2.19,0.879-2.287,2.047-2.32,2.431c-0.193,2.313,2.706,5.527,4.724,7.163c1.489-4.623,1.844-8.218,0.91-9.538
				C77.116,25.908,76.809,25.612,76.063,25.612"/>
			<path clip-path="url(#SVGID_4_)" fill="#AF1D1F" d="M77.488,38.83l-0.241-1.19c-0.441-2.156-0.315-7.345,1.966-10.139
				c1.008-1.235,2.36-1.887,3.907-1.887c0.864,0,1.801,0.201,2.787,0.6c2.358,0.951,3.552,2.215,3.554,3.759
				c0.007,3.291-5.896,6.384-10.85,8.399L77.488,38.83z M83.121,27.627c-0.948,0-1.715,0.376-2.346,1.148
				c-1.408,1.724-1.803,5.055-1.698,7.217c5.774-2.502,8.373-4.793,8.372-6.017c0-0.624-0.815-1.297-2.292-1.894
				C84.408,27.78,83.724,27.627,83.121,27.627"/>
			<path clip-path="url(#SVGID_4_)" d="M94.174,141.79c1.12,0,1.686-0.833,1.686-2.502c0-1.631-0.708-2.447-2.122-2.447
				c-0.436,0-0.88,0.255-1.332,0.761c-0.457,0.509-0.679,0.999-0.679,1.471c0,0.688,0.243,1.314,0.732,1.874
				C92.949,141.511,93.521,141.79,94.174,141.79"/>
			<path clip-path="url(#SVGID_4_)" d="M87.156,148.372c-0.545,0-0.815,0.292-0.815,0.872h0.598l-0.598,0.108
				c0.109,0.4,0.217,0.889,0.326,1.472v3.642c0,1.63-0.417,3.862-1.251,6.691c-0.762,2.612-1.232,3.914-1.414,3.914
				c-0.653,0-0.98-1.955-0.98-5.873c0-0.289,0.021-0.652,0.055-1.091c0.036-0.435,0.091-0.941,0.164-1.521
				c0.072-0.615,0.126-1.14,0.162-1.575c0.036-0.436,0.057-0.802,0.057-1.087c0-1.38-0.655-2.105-1.959-2.177
				c-0.724-0.073-1.087,0.253-1.087,0.976c0,0.073,0.036,0.292,0.108,0.653v1.089c0,0.397-0.017,0.889-0.055,1.469
				c-0.036,0.579-0.053,1.085-0.053,1.522v1.033c0,6.348,1.124,9.521,3.373,9.521c1.558,0,2.844-2.195,3.861-6.583
				c0.834-3.664,1.251-6.401,1.251-8.215C88.896,149.986,88.315,148.372,87.156,148.372"/>
			<path clip-path="url(#SVGID_4_)" d="M128.223,152.179c-0.362,0-0.836,1.108-1.417,3.318c-2.029,7.618-3.68,11.423-4.949,11.423
				c-0.4,0-0.817-0.306-1.25-0.923c-0.507-0.508-0.758-1.032-0.758-1.576c0.286-0.509,0.607-1.078,0.946-1.713
				c0.348-0.634,0.702-1.353,1.062-2.149c1.488-3.301,2.234-6.237,2.234-8.812c0-0.836-0.348-1.568-1.034-2.206
				c-0.691-0.633-1.472-0.952-2.342-0.952c-1.523,0-2.608,2.014-3.263,6.04c-0.005,0.029-0.007,0.058-0.01,0.089
				c-0.005,0.023-0.01,0.049-0.018,0.075c-0.089,0.434-0.172,0.833-0.243,1.197l0.055-0.055c0,0.143-0.074,0.289-0.217,0.436
				c-1.779,6.671-3.156,10.007-4.135,10.007c-0.436,0-0.979-0.451-1.632-1.358c-1.017-1.342-1.523-3.247-1.523-5.712
				c0-0.291,0.11-0.581,0.327-0.872c0.069-0.216,0.164-0.344,0.271-0.379c0.069-0.144,0.146-0.281,0.219-0.407
				c0.072-0.128,0.125-0.228,0.16-0.301v0.054c0.798-1.194,1.525-2.6,2.179-4.215c0.653-1.612,1.265-3.453,1.848-5.521
				c1.093-3.952,1.632-7.435,1.632-10.441c0-3.882-1.269-5.823-3.808-5.823c-1.305,0-2.049,1.344-2.23,4.026l0.055-0.054
				c-1.949,6.14-3.002,13.081-3.178,20.814c-0.036,0.061-0.079,0.122-0.14,0.184c-1.777,6.671-3.154,10.007-4.135,10.007
				c-0.434,0-0.977-0.451-1.628-1.358c-1.021-1.342-1.525-3.247-1.525-5.712c0-0.291,0.108-0.581,0.327-0.872
				c0.071-0.216,0.162-0.344,0.272-0.379c0.069-0.144,0.141-0.281,0.215-0.407c0.072-0.128,0.126-0.228,0.164-0.301v0.054
				c0.796-1.194,1.523-2.6,2.175-4.215c0.653-1.612,1.269-3.453,1.85-5.521c1.089-3.952,1.632-7.435,1.632-10.441
				c0-3.882-1.271-5.823-3.808-5.823c-1.303,0-2.053,1.344-2.229,4.026l0.052-0.054c-1.925,6.065-2.98,12.915-3.173,20.539
				c-0.208,0.851-0.403,1.604-0.579,2.253l-1.523,5.223c-0.508,1.631-0.944,2.445-1.305,2.445c-0.617,0-0.926-0.995-0.926-2.991
				c0-1.125,0.081-2.345,0.245-3.673c0.164-1.322,0.388-2.784,0.681-4.376l0.651-3.21c0-0.871-0.577-1.306-1.741-1.306
				c-0.541,0-1.031,0.237-1.467,0.709c0,1.302-0.108,3.262-0.328,5.874c-0.217,2.61-0.327,4.568-0.327,5.874
				c0,3.807,1.055,5.712,3.157,5.712c1.122,0,2.046-0.871,2.773-2.612c0.188-0.514,0.538-1.608,1.048-3.285
				c0.174,0.851,0.403,1.675,0.693,2.471c1.014,2.757,2.517,4.134,4.516,4.134c1.56,0,3.141-2.227,4.731-6.681
				c0.176,0.879,0.408,1.729,0.708,2.546c1.013,2.757,2.516,4.134,4.514,4.134c1.41,0,2.832-1.822,4.268-5.449
				c0.159,1.069,0.455,2.033,0.898,2.892c0.873,1.632,2.139,2.448,3.808,2.448c1.884,0,3.499-1.65,4.841-4.95
				c0.581-1.306,1.271-3.72,2.067-7.235c0.472-1.888,0.707-3.064,0.707-3.539C129.364,152.56,128.983,152.179,128.223,152.179
				 M103.638,135.427c0.141,0.545,0.217,1.632,0.217,3.263c0,1.958-0.51,4.641-1.524,8.051c-0.4,1.271-0.798,2.478-1.196,3.62
				c-0.402,1.142-0.8,2.22-1.196,3.234C100.191,149.097,101.425,143.042,103.638,135.427 M113.592,135.427
				c0.141,0.545,0.219,1.632,0.219,3.263c0,1.958-0.508,4.641-1.523,8.051c-0.402,1.271-0.798,2.478-1.198,3.62
				c-0.388,1.106-0.774,2.154-1.158,3.143c0.01-0.144,0.019-0.28,0.019-0.397c0-0.066-0.005-0.123-0.01-0.184
				C110.271,148.501,111.485,142.67,113.592,135.427 M121.369,151.419c0.036-0.146,0.089-0.253,0.166-0.325
				c0.143,0,0.215,0.415,0.215,1.25c0,1.197-0.328,2.955-0.976,5.276c-0.185,0.689-0.374,1.316-0.576,1.875
				c-0.198,0.567-0.407,1.044-0.625,1.444C119.719,157.855,120.317,154.683,121.369,151.419"/>
			<path clip-path="url(#SVGID_4_)" fill="#AF1D1F" d="M88.781,135.25c-0.341,0-0.581,0.373-0.724,1.114
				c-0.097,0.399-0.229,0.889-0.388,1.47c-0.16,0.581-0.352,1.244-0.572,1.982c-0.56,1.885-1.012,2.83-1.352,2.83
				c-0.339,0-0.512-0.938-0.512-2.799c0-0.199,0.026-0.593,0.076-1.186c0.05-0.59,0.126-1.385,0.224-2.388
				c0.081-0.842,0.091-1.394,0.031-1.654h0.271c0-0.7-0.602-1.102-1.803-1.201c-0.34,0.237-0.542,0.801-0.6,1.682
				c-0.041,0.622-0.141,1.292-0.303,2.016c-0.159,0.719-0.381,1.503-0.66,2.342l0.031-0.031c-0.26,0.784-0.469,1.523-0.633,2.226
				v-0.033c-0.096,0.284-0.129,0.462-0.089,0.544c-0.1-0.103-0.15-0.693-0.15-1.773v-0.634c0-0.261,0.008-0.561,0.031-0.901
				c0.019-0.339,0.031-0.639,0.031-0.899v-0.634c0-0.04,0.012-0.124,0.043-0.254c0.029-0.128,0.065-0.325,0.107-0.585
				c0.138-0.339,0.208-0.611,0.208-0.812c0-0.542-0.277-0.812-0.841-0.812c-0.5,0-0.822,0.221-0.961,0.662v-0.032
				c-0.064,0.186-0.112,0.424-0.145,0.708c-0.076,0.243-0.159,0.525-0.247,0.857c-1.12,4.208-2.032,6.313-2.731,6.313
				c-0.223,0-0.454-0.173-0.693-0.514c-0.283-0.278-0.421-0.571-0.421-0.872c0.159-0.28,0.334-0.593,0.526-0.944
				c0.189-0.352,0.384-0.749,0.588-1.189c0.817-1.823,1.229-3.443,1.229-4.866c0-0.46-0.188-0.867-0.569-1.219
				c-0.381-0.348-0.813-0.527-1.294-0.527c-0.84,0-1.443,1.113-1.803,3.337c-0.102,0.682-0.174,1.354-0.226,2.015
				c-0.048,0.662-0.074,1.311-0.074,1.952c0,1.025,0.191,1.903,0.569,2.646c0.484,0.903,1.184,1.352,2.108,1.352
				c1.039,0,1.93-0.91,2.673-2.734c0.151-0.344,0.319-0.832,0.5-1.456c0.004,0.063,0.007,0.125,0.011,0.193l0.121,2.164
				c0.16,0.943,0.61,1.416,1.353,1.416c0.54,0,0.918-0.484,1.141-1.444c0.159-0.643,0.321-1.278,0.481-1.911
				c0.161-0.631,0.331-1.269,0.512-1.909c0.04,0.784,0.089,1.432,0.15,1.957c0.057,0.518,0.108,0.911,0.15,1.169
				c0.3,1.504,0.872,2.253,1.713,2.253c0.677,0,1.492-1.442,2.434-4.325c0.662-2.064,0.993-3.384,0.993-3.965
				C89.293,135.479,89.122,135.25,88.781,135.25 M76.849,134.799c0.022-0.081,0.052-0.14,0.091-0.18
				c0.081,0,0.123,0.229,0.123,0.689c0,0.664-0.183,1.634-0.543,2.918c-0.102,0.379-0.205,0.725-0.313,1.034
				c-0.112,0.313-0.226,0.576-0.347,0.799C75.94,138.355,76.27,136.603,76.849,134.799"/>
			<path clip-path="url(#SVGID_4_)" d="M73.621,106.793c-0.689,0-1.489,1.107-2.394,3.319c-0.107,0.291-0.2,0.527-0.272,0.708
				c-0.072,0.181-0.127,0.31-0.162,0.381v-0.599c0-0.143,0.018-0.444,0.054-0.897c0.036-0.453,0.057-0.735,0.057-0.842
				c0-1.343-0.472-2.013-1.417-2.013c-0.871,0-1.305,0.396-1.305,1.195c0,0.218,0.089,0.471,0.272,0.762v0.436
				c0,1.449-0.083,3.282-0.246,5.495c-0.161,2.212-0.388,4.804-0.679,7.777c-0.76,6.929-1.141,11.839-1.141,14.743
				c0,4.532,0.707,6.799,2.122,6.799c0.798,0,1.194-0.292,1.194-0.872c-0.579-1.195-0.87-3.208-0.87-6.036
				c0-1.96,0.063-3.843,0.191-5.658c0.125-1.813,0.317-3.59,0.57-5.331c0.108,0.144,0.189,0.265,0.243,0.354
				c0.055,0.091,0.104,0.172,0.14,0.245c0.579,0.796,1.269,1.195,2.064,1.195c2.396,0,4.082-2.193,5.061-6.581
				c0.579-2.54,0.869-5.495,0.869-8.867c0-1.777-0.251-3.119-0.76-4.025C76.521,107.357,75.325,106.793,73.621,106.793
				 M75.468,114.301c0,0.471-0.017,0.76-0.054,0.869v0.708c0,1.487-0.29,3.337-0.872,5.549l-0.05,0.271
				c-0.728,2.683-1.525,4.024-2.396,4.024c-0.326,0-0.627-0.224-0.898-0.682c-0.269-0.451-0.407-0.914-0.407-1.385
				c0.073,0,0.11-0.09,0.11-0.271c0.217-0.252,0.324-0.49,0.324-0.708c0-0.435-0.324-0.853-0.978-1.25
				c0.073-1.524,0.833-4.316,2.282-8.379c0.328-0.904,0.544-1.556,0.653-1.957c0.217-0.652,0.345-0.996,0.381-1.033
				c0.255-0.687,0.508-1.031,0.76-1.031c0.763,0,1.143,1.194,1.143,3.588V114.301z"/>
			<path clip-path="url(#SVGID_4_)" d="M131.713,116.422c-0.729-2.683-1.087-4.661-1.087-5.929c0-0.29,0.07-0.735,0.217-1.333
				c0.142-0.599,0.217-1.06,0.217-1.386c0-1.015-0.619-1.523-1.849-1.523c-1.125,0-1.688,0.635-1.688,1.903
				c0,1.669-0.317,4.116-0.952,7.336c-1.872,6.75-3.4,10.125-4.598,10.125c-0.396,0-0.813-0.309-1.248-0.925
				c-0.508-0.508-0.762-1.033-0.762-1.577c0.29-0.509,0.605-1.078,0.953-1.713c0.341-0.634,0.694-1.35,1.057-2.149
				c1.489-3.298,2.232-6.237,2.232-8.812c0-0.835-0.345-1.566-1.032-2.203c-0.689-0.632-1.472-0.952-2.339-0.952
				c-1.523,0-2.613,2.014-3.266,6.039c-0.005,0.036-0.007,0.073-0.014,0.109c-0.001,0.017-0.007,0.035-0.012,0.054
				c-0.091,0.434-0.172,0.834-0.245,1.195l0.054-0.054c0,0.146-0.071,0.29-0.217,0.435c-1.777,6.674-3.154,10.009-4.131,10.009
				c-0.436,0-0.982-0.454-1.634-1.361c-1.013-1.342-1.523-3.246-1.523-5.71c0-0.289,0.107-0.579,0.326-0.871
				c0.074-0.218,0.166-0.344,0.274-0.381c0.073-0.143,0.143-0.279,0.217-0.409c0.073-0.125,0.126-0.226,0.164-0.299v0.054
				c0.796-1.196,1.523-2.601,2.177-4.216c0.648-1.613,1.269-3.453,1.849-5.521c1.086-3.951,1.629-7.435,1.629-10.445
				c0-3.879-1.269-5.819-3.807-5.819c-1.305,0-2.048,1.341-2.229,4.025l0.055-0.056c-1.936,6.104-2.994,12.989-3.178,20.663
				c-0.057,0.203-0.112,0.406-0.167,0.608c-0.31,1.086-0.608,2.174-0.901,3.263c-1.048,3.552-1.882,5.33-2.503,5.33
				c-0.648,0-0.975-1.45-0.975-4.352c0-0.509,0.036-1.162,0.108-1.958c0.071-0.799,0.179-1.724,0.328-2.775v0.055
				c0.324-2.213,0.488-3.516,0.488-3.917c0.434-1.125,0.655-1.775,0.655-1.957c0-0.906-0.672-1.362-2.013-1.362
				c-1.017,0-1.523,0.581-1.523,1.742c0,0.074,0.017,0.172,0.055,0.299c0.034,0.128,0.053,0.227,0.053,0.299
				c0,1.343-0.181,2.901-0.546,4.678l-0.977,4.896c-0.398,1.85-0.945,3.443-1.632,4.786v-0.054c-0.435,0.689-0.76,1.034-0.979,1.034
				c-0.326,0-0.49-0.581-0.49-1.742c0-1.777,0.055-3.462,0.164-5.058c0.108-1.595,0.29-3.083,0.544-4.46l-0.053,0.054
				c0.069-0.289,0.143-0.534,0.215-0.734c0.072-0.198,0.127-0.373,0.164-0.516v0.053c0.145-0.326,0.217-0.761,0.217-1.306
				c0-0.506-0.189-0.962-0.57-1.359c-0.381-0.398-0.809-0.599-1.281-0.599c-0.579,0-1.031,0.254-1.358,0.762
				c-0.136,0.222-0.251,0.677-0.35,1.362c-0.033,0.117-0.062,0.24-0.083,0.378c-0.436,2.141-0.782,3.463-1.034,3.97
				c-0.435,1.161-1.164,1.742-2.177,1.742c-0.251,0-0.51-0.11-0.762-0.327c0-3.917-0.164-6.364-0.489-7.344
				c-0.252-0.906-0.924-1.794-2.012-2.665c-1.015-0.797-2.032-1.197-3.045-1.197c-1.125,0-1.872,0.725-2.23,2.176l-0.164,0.598
				c-0.074,0.362-0.129,0.652-0.164,0.871c-0.035,0.217-0.074,0.399-0.11,0.544c-0.143,0.143-0.271,0.453-0.379,0.925
				c0,0.397,0.035,0.835,0.109,1.305c-0.543,1.414-0.814,3.625-0.814,6.637c0,5.439,1.412,8.159,4.244,8.159
				c1.158,0,2.137-0.617,2.935-1.85h-0.057c0.362-0.652,0.853-1.85,1.47-3.59c0.034-0.18,0.063-0.309,0.081-0.381
				c0.019-0.071,0.027-0.125,0.027-0.162c0.143-0.834,0.253-1.343,0.328-1.523c0.544,0.255,0.996,0.382,1.36,0.382
				c0.97,0,1.829-0.451,2.58-1.35c-0.017,1.122-0.026,2.349-0.026,3.687c0,1.197,0.236,2.249,0.708,3.155
				c0.579,1.088,1.412,1.632,2.501,1.632c1.087,0,1.94-0.471,2.558-1.414c0.217-0.471,0.431-0.944,0.651-1.416
				c0.219-0.47,0.435-0.941,0.652-1.413l0.546,1.36v-0.056c0.689,1.344,1.485,2.013,2.392,2.013c1.427,0,2.797-1.766,4.118-5.291
				c0.17,0.812,0.393,1.596,0.667,2.354c1.019,2.756,2.521,4.137,4.518,4.137c1.41,0,2.832-1.824,4.269-5.451
				c0.161,1.068,0.457,2.031,0.898,2.892c0.869,1.632,2.139,2.448,3.808,2.448c1.477,0,2.785-1.016,3.926-3.039
				c0.026,0.373,0.129,0.734,0.315,1.079c0.217,0.401,0.493,0.763,0.817,1.09c0.326,0.326,0.707,0.579,1.145,0.761
				c0.431,0.181,0.871,0.272,1.303,0.272c2.357,0,3.538-1.83,3.538-5.495C132.911,121.245,132.506,119.25,131.713,116.422
				 M86.132,123.385c-0.51,1.16-0.853,1.739-1.034,1.739c-1.163,0-1.741-1.686-1.741-5.058c0-0.652,0.055-1.496,0.16-2.529
				c0.112-1.033,0.293-2.241,0.546-3.618c0.545-3.045,1.034-4.568,1.467-4.568c0.729,0,1.091,0.434,1.091,1.305
				c0-0.034-0.011,0.035-0.029,0.219c-0.018,0.182-0.048,0.472-0.078,0.869c-0.038,0.109-0.057,0.49-0.057,1.145
				c0,0.398,0.026,0.879,0.08,1.44c0.055,0.562,0.157,1.207,0.3,1.931c0.145,0.725,0.251,1.353,0.328,1.875
				c0.072,0.527,0.108,0.972,0.108,1.334C87.273,120.303,86.894,121.607,86.132,123.385 M113.707,94.121
				c0.145,0.543,0.219,1.63,0.219,3.264c0,1.958-0.508,4.641-1.525,8.05c-0.398,1.27-0.796,2.473-1.194,3.617
				c-0.366,1.037-0.726,2.02-1.088,2.954c-0.001-0.186-0.021-0.348-0.057-0.486C110.405,107.11,111.62,101.312,113.707,94.121
				 M121.486,110.112c0.036-0.145,0.091-0.254,0.164-0.327c0.145,0,0.217,0.418,0.217,1.25c0,1.199-0.326,2.958-0.977,5.279
				c-0.183,0.69-0.374,1.315-0.572,1.876c-0.2,0.563-0.409,1.043-0.626,1.442C119.836,116.548,120.436,113.376,121.486,110.112
				 M126.544,120.23c0.009,0,0.019-0.003,0.029-0.003C126.577,120.229,126.57,120.23,126.544,120.23 M128.613,125.723
				c-0.51,0-0.945-0.489-1.307-1.468c0-0.816-0.228-1.243-0.674-1.294c0.026-0.061,0.052-0.115,0.076-0.175
				c0.503-1.129,1.086-3.09,1.751-5.88c0.141-0.502,0.284-1.063,0.426-1.68c0.29,0.833,0.45,1.397,0.488,1.687
				c0.617,2.539,0.927,4.316,0.927,5.33C130.3,124.565,129.735,125.723,128.613,125.723"/>
			<path clip-path="url(#SVGID_4_)" fill="#AF1D1F" d="M64.56,52.466l-9.304,3.69l8.415,6.807
				C62.7,58.122,64.56,52.466,64.56,52.466"/>
			<path clip-path="url(#SVGID_4_)" d="M89.436,86.527h-0.002c-2.211-0.001-4.403-0.548-6.513-1.628
				C71.354,78.989,63.636,70.113,62.274,61.16c-1.105-7.258,1.727-14.255,8.413-20.796c3.597-3.518,7.498-5.303,11.598-5.303
				c9.663,0,18.318,9.622,25.27,17.354c2.999,3.336,5.591,6.216,7.577,7.517l0.936,0.614l-0.462,1.021
				c-0.114,0.253-2.846,6.247-7.368,12.337C102.018,82.28,95.691,86.527,89.436,86.527 M82.285,37.681
				c-3.438,0-6.632,1.492-9.766,4.556c-6.051,5.917-8.626,12.152-7.654,18.529c1.234,8.123,8.43,16.272,19.247,21.802
				c1.743,0.89,3.532,1.34,5.322,1.34c11.507,0.002,21.146-18.06,23.325-22.462c-2.065-1.623-4.449-4.274-7.151-7.281
				C99.002,46.822,90.782,37.681,82.285,37.681"/>
			<path clip-path="url(#SVGID_4_)" d="M84.786,99.061l-8.363-2.913c-0.682-0.239-1.044-0.984-0.807-1.667
				c0.24-0.682,0.984-1.044,1.668-0.805l4.945,1.722l0.191-11.128c0.012-0.723,0.614-1.307,1.333-1.287
				c0.722,0.013,1.298,0.609,1.286,1.331L84.786,99.061z"/>
			<path clip-path="url(#SVGID_4_)" d="M101.732,98.413l-7.715-0.594c-0.72-0.055-1.262-0.684-1.207-1.405
				c0.055-0.722,0.689-1.257,1.407-1.205l4.063,0.313l-3.115-12.04c-0.181-0.7,0.241-1.415,0.941-1.596
				c0.702-0.182,1.416,0.24,1.595,0.939L101.732,98.413z"/>
			<path clip-path="url(#SVGID_4_)" d="M76.347,99.123c-0.705,0-1.288-0.562-1.307-1.271c-0.022-0.723,0.548-1.326,1.271-1.348
				l7.704-0.22h0.026l4.352,0.045c0.721,0.008,1.3,0.599,1.294,1.322c-0.007,0.725-0.61,1.313-1.322,1.297l-4.328-0.044
				l-7.651,0.219C76.373,99.122,76.361,99.123,76.347,99.123"/>
			<path clip-path="url(#SVGID_4_)" d="M93.2,100.575c-0.572,0-1.1-0.379-1.262-0.957c-0.195-0.697,0.212-1.419,0.909-1.614
				l7.658-2.146l4.435,0.609c0.717,0.099,1.22,0.759,1.12,1.477c-0.096,0.715-0.756,1.216-1.475,1.119l-3.897-0.536l-7.134,1.998
				C93.433,100.558,93.314,100.575,93.2,100.575"/>
			<path clip-path="url(#SVGID_4_)" d="M78.229,102.427c-0.412,0-0.817-0.193-1.074-0.558c-0.414-0.591-0.269-1.408,0.322-1.823
				l5.458-3.829c0.591-0.417,1.406-0.274,1.823,0.317c0.414,0.594,0.271,1.411-0.322,1.825l-5.457,3.831
				C78.751,102.351,78.49,102.427,78.229,102.427"/>
			<path clip-path="url(#SVGID_4_)" d="M97.165,102.613c-0.262,0-0.521-0.077-0.751-0.237c-0.591-0.415-0.734-1.231-0.321-1.825
				l3.03-4.321c0.415-0.592,1.232-0.735,1.823-0.321c0.593,0.415,0.738,1.232,0.321,1.823l-3.028,4.323
				C97.983,102.417,97.578,102.613,97.165,102.613"/>
			<path clip-path="url(#SVGID_4_)" d="M76.808,61.365c-3.287,0-5.962-3.208-5.962-7.152c0-3.943,2.675-7.151,5.962-7.151
				c3.289,0,5.961,3.208,5.961,7.151C82.769,58.157,80.096,61.365,76.808,61.365 M76.808,49.681c-1.843,0-3.344,2.033-3.344,4.532
				c0,2.5,1.501,4.534,3.344,4.534c1.844,0,3.344-2.035,3.344-4.534C80.151,51.714,78.652,49.681,76.808,49.681"/>
			<path clip-path="url(#SVGID_4_)" d="M78.392,56.155c1.209,0,2.192-1.529,2.192-3.416c0-1.889-0.983-3.417-2.192-3.417
				c-1.212,0-2.196,1.528-2.196,3.417C76.195,54.626,77.18,56.155,78.392,56.155"/>
		</g>
	</g>
</g>
</svg>
