<?xml version="1.0" encoding="utf-8"?>
<!-- Generator: Adobe Illustrator 16.0.4, SVG Export Plug-In . SVG Version: 6.00 Build 0)  -->
<!DOCTYPE svg PUBLIC "-//W3C//DTD SVG 1.1//EN" "http://www.w3.org/Graphics/SVG/1.1/DTD/svg11.dtd">
<svg version="1.1" id="Calque_1" xmlns="http://www.w3.org/2000/svg" xmlns:xlink="http://www.w3.org/1999/xlink" x="0px" y="0px"
	 width="292px" height="236px" viewBox="0 0 292 236" enable-background="new 0 0 292 236" xml:space="preserve">
<g id="Calque_1_1_">
</g>
<g id="domain-cont" display="none">
	<g display="inline">
		<g>
			<path fill="#FCC759" d="M223.502,191.139c-0.465-4.641-3.016-27.15-4.873-33.183c-1.854-6.035-0.695-10.213-2.088-16.015
				c-1.393-5.567-2.32-19.723-5.105-26.685c-2.783-6.961,0.465-8.817,0.465-19.724c0-10.441,1.393-13.924-2.553-24.828
				c4.409-1.393,8.123-3.249,11.139-5.105l6.033-4.178l-9.281-15.779l-0.463-0.463c-10.676-12.299-54.068-18.101-80.058-18.101
				c-4.409,0-8.586,0.232-12.531,0.465c-30.63,2.319-55.691,11.835-56.619,12.299l-4.873,1.856v13.227l1.161,2.088
				c0.231,0.465,3.943,5.338,12.53,10.442c-0.697,2.552-3.945,14.62-2.784,18.563c1.392,4.641,3.247,22.045,2.784,26.686
				c-0.465,4.641-4.642,22.973,0,30.398c4.641,7.426-3.481,45.019-8.122,52.906c-4.64,7.889-12.763,15.547-15.083,18.33v6.497
				c0,0,81.215,34.112,185.635,0v-6.032C239.048,214.575,223.966,196.012,223.502,191.139z M139.269,63.976
				c-7.656,0-15.082-0.231-22.043-0.928c-16.012-1.393-26.453-5.568-32.255-8.818c-1.625-0.928-3.017-1.855-4.177-2.552
				c0,0,12.066-7.426,20.42-10.675c8.354-3.247,27.613-8.354,37.359-5.568c9.745,2.784,19.725,0.464,29.006,3.713
				c9.282,3.248,32.719,7.889,37.129,16.707C191.479,60.728,165.954,63.976,139.269,63.976z"/>
			<g>
				<path fill="#CC3019" d="M179.454,145.484l-1.056-4.141c-1.627-8.975,1.564-15.27,2.527-16.912
					c0.09-0.144,0.184-0.296,0.27-0.429c-3.412-3.084-11.536-9.568-22.346-12.625c-3.836,0.354-18.813,2.755-23.904,18.823
					c3.363-0.756,7.677-1.041,10.831,1.138c1.897,1.312,4.092,4.022,3.78,9.521c-0.664,11.724,5.588,23.455,15.156,29.088
					l2.42,1.257c0.104,0.048,0.203,0.101,0.307,0.144l-0.004,0.014l0.131,0.07c0.002,0,1.92,0.947,4.367,0.947
					c3.69,0,6.674-2.168,8.865-6.439c2.374-4.635,0.943-8.434-0.438-12.107C179.318,151.061,178.25,148.199,179.454,145.484z
					 M163.621,134.521c-3.005,0-5.445-2.438-5.445-5.443s2.439-5.442,5.445-5.442s5.443,2.438,5.443,5.442
					C169.064,132.084,166.627,134.521,163.621,134.521z"/>
				<path fill="#CC3019" d="M129.768,168.636c-0.84-0.415-2.764-1.521-2.206-3.392c0.723-2.439,3.346-2.167,3.346-2.167v-0.056
					c7.656,2.365,22.482,8.896,34.443,20.982l-0.004-0.16c0,0,3.248,2.926,1.756-1.83c-0.89-2.002-1.853-3.955-2.949-5.822
					c-12.693-6.09-21.205-20.9-20.37-35.66c0.129-2.262-0.3-3.756-1.29-4.44c-1.836-1.271-5.706-0.536-8.438,0.345
					c-0.006,0-0.006,0-0.012,0.002c-6.134,1.483-5.494-4.289-5.35-5.242c1.744-7.348,5.164-12.588,9.111-16.333
					c0.074-0.084,0.146-0.17,0.229-0.264c3.986-4.475-2.707-3.104-2.707-3.104l0.38-0.141c-7.962,2.276-15.716,6.933-23.161,14.037
					c-1.8,2.389-19.174,26.771,5.102,46.353c8.873,7.155,18.394,12.334,27.596,17.342c8.219,4.476,15.945,8.692,22.102,13.776
					l-0.012-0.018c0,0,6.062,3.924,3.277-2.221C161.009,181.744,138.194,171.771,129.768,168.636z"/>
				<path fill="#CC3019" d="M182.309,110.888c-3.375-0.711-9.021-1.899-9.744-7.68c-0.414-3.324-1.695-4.102-4.019-5.518
					c-2.487-1.517-5.896-3.592-7.68-9.314c-0.261-0.832-0.507-1.037-0.511-1.038c-0.67-0.188-3.121,1.126-4.299,1.752
					c-2.854,1.515-5.809,3.082-8.606,1.762c-1.648-0.771-2.729-2.341-3.214-4.661c-0.682-3.275-4.89-6.317-9.574-6.928
					c-2.698-0.353-9.415-0.309-13.386,7.629c-1.603,3.207-1.875,6.181-0.837,9.093c2.004,5.606,8.294,9.389,10.726,10.672
					c5.252-1.882,10.611-2.845,16.062-2.845c13.926,0,25.322,6.152,32.336,11.201c2.172-1.868,3.36-3.093,3.994-3.852
					C183.133,111.062,182.68,110.966,182.309,110.888z"/>
				<path fill="#CC3019" d="M184.37,141.404c0.729-0.272,1.448-0.486,2.091-0.65c3.066-0.785,6.193-1.301,9.339-1.557
					c-4.786-1.234-9.401-1.641-12.438-1.764L184.37,141.404z"/>
				<path fill="#CC3019" d="M186.176,126.932c-0.77,1.184-1.771,2.873-2.572,4.727c4.183,0.162,10.965,0.83,17.617,3.162
					C197.666,130.934,192.634,127.311,186.176,126.932z"/>
				<path fill="#CC3019" d="M127.079,186.619v-0.002c-34.452-16.938-31.457-44.646-29.488-52.301h-0.06c0,0,0.68-3.043-2.052-3.974
					c-2.631-0.897-3.413,1.396-3.466,1.58c-2.124,9.519-5.938,41.496,32.134,60.239c0.922,0.347,2.899,0.512,3.851-1.357
					C129.412,188.021,127.079,186.619,127.079,186.619z"/>
				<path fill="#CC3019" d="M135.928,192.012l-0.586-0.33c-0.024-0.013-2.202-0.984-3.603,1.441c-1.408,2.439,0.744,3.57,0.744,3.57
					l1.565,0.879c0.095,0.052,1.708,0.857,3.156-1.733C138.29,193.896,136.815,192.583,135.928,192.012z"/>
			</g>
		</g>
	</g>
</g>
<g id="Calque_3" display="none">
	<g display="inline">
		<g>
			<g transform="translate(-30 -200)">
				<path fill="#FCC759" d="M211.607,216.981c0,0-16.129,2.82-29.43,26.602c-13.301,23.77-23.204,24.34-31.411,17.549
					c-8.213-6.795-12.743-29.432-47.55-28.873c-34.808,0.57-61.138,31.986-50.379,66.506c0,0,3.401-38.205,34.809-45.279
					c0,0-18.685,26.602-13.867,46.984c4.245-13.016,15.005-22.357,21.513-27.746c0,0-3.674,16.135,1.702,27.746
					c0.565-8.482,9.616-14.719,9.616-14.719s-1.696,12.178,3.959,20.66c1.418-8.482,8.219-11.883,8.219-11.883
					s7.639,21.807,11.312,28.307c2.835-2.834,5.864-5.818,13.301-5.383c4.818,0.291,19.255,9.635,19.255,9.635l-2.836,6.793
					l5.37,16.402l-10.513,4.383l-2.396,5.662l12.351-2.397l15.52,8.489h7.689l-10.188-7.926h23.211l-6.489-5.283l-16.155-1.229
					c0,0-6.483-7.478-7.646-9.803c-1.017-2.021-2.835-8.023,0.005-11.71c2.821-3.68,20.375-12.457,27.74-19.529
					c7.361-7.074,13.296-14.719,21.228-19.809c7.933-5.105,13.302-19.531,12.171-30.004c-1.138-10.475-4.238-14.16-6.508-18.398
					c-2.27-4.252,1.982-7.924,3.68-8.498c1.703-0.572,4.953-1.41,10.051-0.852l-8.211-9.764c0,0,3.965-5.65,2.119-7.783
					c-1.834-2.119-3.959-14.004-6.363-12.039c-2.411,1.994-0.994,6.807-3.545,4.822c-2.547-1.98-3.678-8.775-6.508-8.775
					c-2.834,0-0.285,4.102-1.272,5.232c-0.994,1.133-4.524-3.529-7.646-2.834c-3.115,0.707-5.802,6.793-3.537,8.354
					C206.245,212.149,211.607,216.981,211.607,216.981z"/>
			</g>
			<path fill="#CC3019" d="M285.52,57.362l4.457-4.193c-4.078-1.771-6.607-1.346-7.908-0.805c-0.338,0.121-0.614,0.254-0.822,0.373
				l6.513-6.967c-2.827-2.658-8.866-1.449-12.034-0.195c-0.48,0.178-0.903,0.359-1.248,0.535c-3.652,1.826-7.138,6.055-7.633,6.67
				c-8.117,0.486-15.017,2.268-20.849,4.693c-7.646,3.139-13.481,7.377-17.868,11.256c-4.302,3.803-9.22,6.35-13.472,7.953
				c-5.456,2.025-9.759,2.494-10.125,2.062c-13.632-15.74-32.132-18.475-32.132-18.475s2.82-4.697,2.82-9.631
				c0-6.715-5.688-10.457-9.248-9.061c-0.244,0.096-0.473,0.221-0.693,0.359c-3.102,1.76-3.805,7.576-1.527,13.471
				c-0.889-0.52-4.188-3.211-6.059-2.475c-0.182,0.07-0.354,0.164-0.518,0.268c-2.402,1.311-2.947,5.789-1.173,10.316
				c0.183,0.465,0.405,0.889,0.621,1.318c-1.349-1.352-2.872-1.975-4.127-1.482c-0.14,0.057-0.272,0.123-0.401,0.201
				c-1.947,1.016-2.399,4.602-0.978,8.227c0.409,1.049,0.937,1.984,1.524,2.773c-0.037,0.154-0.074,0.305-0.107,0.461
				c0,0-2.701,1.227-4.592,3.113c-2.436,2.438-1.889,4.725-1.889,4.725s2.854-1.184,5.195-1.65c2.34-0.471,4.485,0.234,4.485,0.234
				c-1.049,7.756,6.441,10.432,6.441,10.432s-1.867,4.332-4.279,16.051c-3.748,18.19-0.609,22.886,8.56,31.567
				c6.325,5.998,22.812,11.39,34.778,15.232l-0.137,0.148c0,0,5.187,7.795,10.399,12.305c1.979,1.715,3.937,2.975,5.849,3.881
				c-0.279,1.066-0.563,2.129-0.836,3.199c-1.615,6.393-3.232,12.787-4.751,18.781c-0.028,0.113-0.055,0.219-0.083,0.328
				c-0.045,0-0.094,0-0.136,0c-4.694-0.219-8.713-0.469-11.528-0.035c-1.404,0.199-2.492,0.637-3.117,1.113
				c-0.308,0.231-0.533,0.473-0.645,0.627c-0.113,0.151-0.17,0.229-0.17,0.229l0.238,0.193c0,0,0.227-0.349,0.809-0.703
				c0.598-0.361,1.614-0.67,2.965-0.729c2.674-0.185,6.481,0.539,11.143,1.063c-0.014,0.047-0.022,0.094-0.033,0.139
				c-0.116,0.593-0.375,1.132-0.712,1.619c-0.333,0.481-0.75,0.847-1.222,1.101c-0.494,0.252-0.927,0.354-1.609,0.395
				c-2.887,0.102-5.573,0.375-8.049,0.699c-4.943,0.689-9.012,1.68-11.741,2.748c-1.367,0.535-2.39,1.123-2.996,1.656
				c-0.629,0.559-0.75,1.018-0.757,0.987l0.269,0.146c0,0,0.054-0.086,0.16-0.256c0.112-0.149,0.285-0.336,0.582-0.565
				c0.593-0.445,1.603-0.924,2.964-1.332c2.721-0.834,6.793-1.438,11.686-1.772c1.006-0.068,2.065-0.121,3.137-0.162
				c1.924,0.016,3.954,0.072,5.918,0.197c0.729,0.04,1.346-0.078,1.875-0.298c0.021,0.121,0.038,0.24,0.064,0.367
				c0.112,0.53,0.295,1.082,0.6,1.601c0.32,0.493,0.85,0.932,1.191,1.473c0.703,1.068,1.266,2.223,1.551,3.172
				c0.152,0.475,0.195,0.887,0.255,1.178c0.032,0.307,0.046,0.482,0.046,0.482l0.307,0.043c0,0,0.067-0.162,0.184-0.451
				c0.107-0.312,0.228-0.764,0.302-1.322c0.176-1.117,0.043-2.67-0.401-4.107c-0.226-0.717-0.348-1.498-0.688-2.104
				c-0.302-0.508-0.703-0.883-1.107-1.189c0.228,0.056,0.448,0.113,0.701,0.168c0.758,0.152,1.623,0.259,2.539,0.25
				c0.917-0.043,1.897-0.284,2.883-0.319c0.979-0.047,1.966-0.043,2.878-0.009c0.461,0.009,0.895,0.068,1.309,0.104
				c0.406,0.06,0.812,0.103,1.142,0.193c0.354,0.075,0.642,0.194,0.906,0.305c0.225,0.134,0.469,0.259,0.569,0.369
				c0.147,0.084,0.235,0.256,0.279,0.365c0.055,0.108,0.084,0.168,0.084,0.168l0.295-0.095c0,0-0.011-0.055-0.025-0.178
				c-0.014-0.121-0.022-0.289-0.172-0.545c-0.119-0.287-0.332-0.475-0.582-0.74c-0.264-0.209-0.573-0.459-0.934-0.656
				c-1.01-0.6-2.354-1.055-3.785-1.387c0.082-0.149,0.168-0.35,0.269-0.621c0.237-0.592,0.432-1.41,0.499-2.225
				c0.013-0.24,0.08-0.484,0.119-0.725c0.59,0.186,1.252,0.334,1.955,0.379c0.709,0,1.483-0.172,2.254-0.133
				c1.521,0.063,3.07,0.301,4.102,0.744c0.514,0.209,0.907,0.508,1.089,0.707c0.222,0.209,0.273,0.479,0.29,0.45l0.297-0.071
				c-0.027-0.015,0.043-0.187-0.094-0.603c-0.128-0.442-0.467-0.899-0.962-1.381c-0.983-0.978-2.616-1.783-4.304-2.267
				c-0.842-0.231-1.692-0.594-2.52-0.643c-0.822-0.045-1.592,0.119-2.225,0.361c-0.182,0.061-0.32,0.141-0.479,0.213
				c0.108-0.244,0.207-0.496,0.266-0.736l0.289-1.02c0.391-1.373,0.789-2.773,1.193-4.195c1.16-4.123,2.383-8.443,3.615-12.818
				c1.646-0.086,3.199-0.375,4.637-0.801c3.312-0.977,7.5-4.594,11.588-10.975c9.037-3.275,22.266-9.006,30.639-19.383
				c1.463-1.67,2.884-3.476,4.223-5.43c12.061-17.634,7.617-36.396,7.617-36.396C299.68,80.44,285.52,57.362,285.52,57.362z
				 M219.264,197.21c-1.048-0.146-2.1-0.426-3.088-0.42c-0.988,0.012-1.896,0.229-2.658,0.496c-0.127,0.039-0.221,0.094-0.34,0.137
				c0.075-0.248,0.124-0.485,0.156-0.694c0.114-0.267,0.216-0.531,0.287-0.818c0.05-0.18,0.104-0.357,0.154-0.537
				c0.451,0.037,0.904,0.072,1.369,0.096l0.494,0.023l0.123,0.01l0.188-0.006l0.241-0.008c0.271,0.014,0.779-0.062,1.191-0.156
				c0.602-0.143,1.168-0.436,1.697-0.795c0.123,0.182,0.26,0.365,0.345,0.566c0.306,0.662,0.608,1.33,0.839,1.83
				c0.08,0.186,0.139,0.352,0.191,0.5C220.061,197.352,219.661,197.271,219.264,197.21z M220.55,185.111
				c-0.362,1.437-0.718,2.847-1.067,4.229l-0.258,1.031c-0.067,0.295-0.127,0.487-0.252,0.762c-0.231,0.509-0.541,0.97-0.906,1.322
				c-0.368,0.354-0.791,0.621-1.266,0.765c-0.229,0.053-0.363,0.125-0.744,0.145l-0.238,0.02l-0.062,0.01
				c0.113-0.006-0.002,0,0.007,0l-0.115,0.004l-0.469,0.013c-0.289,0.004-0.557-0.013-0.842-0.013
				c1.656-5.86,3.42-12.096,5.184-18.332c0.27-0.955,0.524-1.911,0.789-2.858c1.141,0.34,2.256,0.567,3.346,0.69
				C222.593,177.061,221.549,181.177,220.55,185.111z"/>
			<path fill="#CC3019" d="M6.553,127.417c0,0-4.441,18.765,7.617,36.396c1.341,1.957,2.76,3.76,4.223,5.43
				c8.375,10.377,21.604,16.107,30.639,19.385c4.09,6.381,8.276,9.996,11.589,10.975c1.437,0.424,2.99,0.713,4.636,0.801
				c1.235,4.375,2.456,8.695,3.616,12.816c0.403,1.424,0.805,2.822,1.192,4.197l0.289,1.018c0.058,0.24,0.157,0.492,0.266,0.736
				c-0.156-0.07-0.297-0.15-0.477-0.211c-0.634-0.244-1.402-0.406-2.225-0.361c-0.828,0.049-1.678,0.41-2.519,0.644
				c-1.689,0.483-3.32,1.288-4.304,2.264c-0.496,0.481-0.834,0.938-0.963,1.384c-0.137,0.416-0.064,0.586-0.092,0.602l0.297,0.072
				c0.016,0.028,0.066-0.242,0.289-0.451c0.181-0.199,0.576-0.5,1.089-0.709c1.032-0.439,2.579-0.68,4.101-0.742
				c0.77-0.041,1.545,0.131,2.254,0.131c0.703-0.045,1.366-0.189,1.955-0.375c0.04,0.24,0.106,0.48,0.121,0.723
				c0.067,0.814,0.258,1.633,0.497,2.226c0.101,0.27,0.185,0.471,0.27,0.62c-1.435,0.332-2.777,0.787-3.786,1.39
				c-0.359,0.197-0.669,0.444-0.934,0.653c-0.25,0.269-0.463,0.453-0.581,0.738c-0.149,0.258-0.161,0.426-0.172,0.547
				c-0.015,0.121-0.024,0.179-0.024,0.179l0.293,0.094c0,0,0.031-0.062,0.082-0.166c0.046-0.11,0.135-0.285,0.281-0.369
				c0.1-0.11,0.345-0.235,0.568-0.366c0.265-0.109,0.553-0.228,0.906-0.306c0.33-0.094,0.736-0.135,1.141-0.192
				c0.416-0.037,0.846-0.099,1.309-0.104c0.914-0.037,1.898-0.041,2.879,0.008c0.984,0.035,1.964,0.277,2.881,0.32
				c0.918,0.006,1.783-0.099,2.54-0.25c0.255-0.056,0.475-0.111,0.702-0.168c-0.405,0.307-0.806,0.682-1.107,1.188
				c-0.341,0.605-0.466,1.389-0.69,2.104c-0.445,1.438-0.575,2.991-0.4,4.106c0.073,0.562,0.192,1.01,0.301,1.322
				c0.116,0.289,0.184,0.451,0.184,0.451l0.306-0.043c0,0,0.016-0.176,0.048-0.484c0.06-0.291,0.102-0.701,0.253-1.174
				c0.285-0.951,0.848-2.107,1.551-3.174c0.343-0.541,0.872-0.979,1.193-1.473c0.305-0.517,0.485-1.07,0.597-1.601
				c0.028-0.127,0.044-0.245,0.066-0.364c0.528,0.217,1.146,0.336,1.874,0.295c1.965-0.125,3.996-0.183,5.918-0.197
				c1.07,0.043,2.133,0.094,3.139,0.162c4.892,0.336,8.963,0.938,11.685,1.772c1.361,0.408,2.372,0.888,2.964,1.332
				c0.296,0.232,0.469,0.418,0.582,0.566c0.106,0.168,0.16,0.256,0.16,0.256l0.268-0.146c-0.006,0.027-0.127-0.432-0.755-0.99
				c-0.608-0.532-1.63-1.123-2.996-1.653c-2.731-1.069-6.797-2.062-11.743-2.75c-2.475-0.322-5.163-0.599-8.048-0.699
				c-0.684-0.039-1.116-0.146-1.608-0.396c-0.473-0.254-0.89-0.618-1.224-1.1c-0.337-0.488-0.594-1.027-0.71-1.619
				c-0.013-0.045-0.022-0.092-0.034-0.139c4.659-0.525,8.468-1.246,11.142-1.064c1.351,0.062,2.368,0.369,2.965,0.73
				c0.582,0.355,0.809,0.705,0.809,0.705l0.239-0.193c0,0-0.056-0.08-0.17-0.231c-0.111-0.152-0.337-0.396-0.643-0.627
				c-0.628-0.476-1.715-0.916-3.12-1.113c-2.815-0.433-6.834-0.187-11.526,0.035c-0.043,0-0.093,0-0.138,0
				c-0.027-0.108-0.054-0.215-0.082-0.326c-1.518-5.996-3.135-12.392-4.753-18.783c-0.271-1.067-0.555-2.135-0.834-3.198
				c1.911-0.908,3.868-2.166,5.847-3.881c5.215-4.513,10.399-12.306,10.399-12.306l-0.135-0.146
				c11.964-3.847,28.45-9.238,34.774-15.234c9.168-8.684,12.306-13.377,8.56-31.568c-2.413-11.719-4.28-16.053-4.28-16.053
				s7.49-2.672,6.439-10.43c0,0,2.147-0.705,4.49-0.234c2.339,0.469,5.194,1.652,5.194,1.652s0.544-2.289-1.892-4.725
				c-1.889-1.887-4.589-3.115-4.589-3.115c-0.034-0.154-0.074-0.305-0.109-0.459c0.589-0.789,1.116-1.727,1.524-2.773
				c1.424-3.627,0.971-7.213-0.977-8.225c-0.128-0.08-0.262-0.148-0.402-0.203c-1.255-0.494-2.78,0.131-4.127,1.482
				c0.215-0.43,0.438-0.854,0.62-1.32c1.775-4.527,1.229-9.004-1.173-10.314c-0.163-0.105-0.336-0.197-0.518-0.268
				c-1.87-0.736-5.168,1.957-6.056,2.477c2.275-5.896,1.571-11.715-1.529-13.473c-0.221-0.139-0.45-0.266-0.693-0.359
				c-3.557-1.396-9.245,2.346-9.245,9.059c0,4.934,2.821,9.633,2.821,9.633s-18.5,2.734-32.13,18.475
				c-0.368,0.432-4.67-0.039-10.127-2.062c-4.25-1.605-9.17-4.152-13.469-7.955c-4.386-3.879-10.227-8.117-17.869-11.254
				c-5.834-2.426-12.732-4.207-20.848-4.693c-0.497-0.619-3.981-4.846-7.634-6.672c-0.345-0.176-0.769-0.357-1.249-0.535
				c-3.167-1.254-9.208-2.463-12.036,0.195l6.515,6.967c-0.209-0.117-0.485-0.252-0.824-0.371c-1.301-0.543-3.831-0.969-7.908,0.805
				l4.458,4.191C6.482,84.784-7.678,107.86,6.553,127.417z M71.543,224.854c0.054-0.149,0.111-0.315,0.193-0.504
				c0.229-0.5,0.532-1.166,0.838-1.828c0.085-0.201,0.222-0.383,0.345-0.563c0.528,0.356,1.096,0.651,1.696,0.795
				c0.414,0.093,0.92,0.168,1.192,0.158l0.242,0.006l0.189,0.004l0.123-0.008l0.493-0.024c0.467-0.021,0.917-0.058,1.369-0.097
				c0.053,0.183,0.104,0.358,0.156,0.541c0.07,0.285,0.172,0.551,0.286,0.815c0.031,0.209,0.082,0.447,0.156,0.693
				c-0.119-0.041-0.213-0.096-0.339-0.135c-0.762-0.27-1.67-0.484-2.658-0.494c-0.988-0.01-2.042,0.273-3.086,0.418
				C72.339,224.691,71.94,224.771,71.543,224.854z M68.348,200.316c1.089-0.127,2.205-0.354,3.346-0.692
				c0.263,0.949,0.518,1.903,0.786,2.86c1.766,6.234,3.529,12.47,5.185,18.332c-0.285,0-0.554,0.017-0.841,0.013l-0.469-0.013
				l-0.116-0.004c0.01,0-0.107-0.006,0.007,0l-0.062-0.01l-0.24-0.02c-0.381-0.02-0.514-0.094-0.742-0.145
				c-0.475-0.144-0.896-0.408-1.268-0.767c-0.363-0.353-0.675-0.813-0.906-1.317c-0.124-0.273-0.184-0.47-0.25-0.767l-0.26-1.029
				c-0.35-1.383-0.705-2.793-1.067-4.229C70.453,208.598,69.408,204.48,68.348,200.316z"/>
		</g>
	</g>
</g>
<g id="Calque_4" display="none">
	<g id="fenetre_bas_gauche_1_" display="inline">
		<rect x="131.479" y="120.521" fill="#EFC73D" width="11.809" height="12.527"/>
		<rect x="148.7" y="120.329" fill="#EFC73D" width="11.81" height="12.53"/>
		<rect x="131.389" y="103.136" fill="#EFC73D" width="11.81" height="12.116"/>
		<rect x="148.805" y="102.95" fill="#EFC73D" width="11.807" height="12.117"/>
	</g>
	<g id="fenetre_haut_1_" display="inline">
		<rect x="131.49" y="120.521" fill="#EFC73D" width="11.809" height="12.527"/>
		<rect x="148.906" y="120.328" fill="#EFC73D" width="11.807" height="12.531"/>
		<rect x="131.401" y="103.135" fill="#EFC73D" width="11.809" height="12.117"/>
		<rect x="148.816" y="102.95" fill="#EFC73D" width="11.808" height="12.116"/>
		<g>
			<path fill="#EFC73D" d="M109.705,104.618v26.009h14.525v-26.009H109.705z M120.987,127.352h-8.038v-7.992h8.038V127.352z
				 M120.987,115.839h-8.038v-7.991h8.038V115.839z"/>
		</g>
		<g>
			<path fill="#EFC73D" d="M167.77,104.618v26.009h14.525v-26.009H167.77z M179.05,127.352h-8.036v-7.992h8.036V127.352z
				 M179.05,115.839h-8.036v-7.991h8.036V115.839z"/>
		</g>
	</g>
	<g display="inline">
		<g>
			<g>
				<path fill="#CC3019" d="M218.667,157.729c-12.842,0-23.276,10.594-23.276,23.621c0,13.016,10.436,23.61,23.276,23.61
					s23.276-10.596,23.276-23.61C241.943,168.322,231.509,157.729,218.667,157.729z M222.825,185.574v13.598h-8.326v-13.598h-13.406
					v-8.453h13.406v-13.598h8.326v13.598h13.411v8.453H222.825z"/>
			</g>
		</g>
		<path fill="#FCC759" d="M214.796,1.238c-3.892-0.358-6.789-0.548-10.228-0.548c-27.541,0-40.366,12.03-55.52,30.271
			C133.912,12.72,120.94,0.69,93.289,0.69c-3.427,0-8.861,0.189-12.802,0.548C56.663,3.614,28.941,25.717,23.961,68.017v14.081
			c4.98,40.533,35.252,90.503,123.58,153.212c18.318-12.996,34.509-24.996,48.111-36.927c-5.025-5.12-7.312-12.457-7.312-20.067
			c0-15.768,13.399-28.549,29.733-28.549c7.206,0,12.643,2.496,17.771,6.631c22.336-27.847,32.193-52.451,32.193-74.3V68.017
			C263.061,25.717,238.695,3.614,214.796,1.238z"/>
	</g>
	<path display="inline" fill="#CC3019" d="M203.891,59.216l3.871-3.644c-3.541-1.54-5.74-1.17-6.869-0.699
		c-0.295,0.104-0.537,0.221-0.717,0.323l5.658-6.054c-2.457-2.31-7.705-1.26-10.456-0.17c-0.418,0.155-0.786,0.312-1.086,0.466
		c-3.174,1.587-6.201,5.26-6.632,5.797c-7.055,0.421-13.051,1.971-18.116,4.077c-6.642,2.728-11.716,6.41-15.526,9.779
		c-3.735,3.307-8.011,5.518-11.704,6.912c-4.741,1.761-8.479,2.166-8.801,1.791c-11.839-13.677-27.915-16.052-27.915-16.052
		s2.451-4.083,2.451-8.369c0-5.834-4.943-9.085-8.037-7.872c-0.211,0.083-0.41,0.192-0.603,0.312
		c-2.693,1.528-3.306,6.583-1.327,11.705c-0.772-0.453-3.637-2.791-5.264-2.152c-0.158,0.063-0.307,0.143-0.448,0.233
		c-2.089,1.138-2.563,5.03-1.021,8.964c0.159,0.404,0.353,0.773,0.539,1.146c-1.171-1.174-2.495-1.716-3.585-1.287
		c-0.123,0.048-0.238,0.106-0.349,0.175c-1.693,0.881-2.087,3.998-0.85,7.148c0.356,0.911,0.813,1.725,1.325,2.408
		c-0.032,0.137-0.065,0.266-0.096,0.401c0,0-2.346,1.066-3.987,2.708c-2.116,2.115-1.644,4.104-1.644,4.104s2.48-1.029,4.515-1.437
		c2.034-0.408,3.901,0.206,3.901,0.206c-0.914,6.739,5.597,9.062,5.597,9.062s-1.623,3.765-3.721,13.947
		c-3.255,15.807-0.528,19.885,7.439,27.43c5.497,5.211,19.822,9.896,30.218,13.238l-0.118,0.127c0,0,4.504,6.771,9.034,10.689
		c1.72,1.493,3.421,2.585,5.083,3.372c-0.244,0.929-0.492,1.853-0.726,2.78c-1.407,5.556-2.811,11.111-4.13,16.32
		c-0.024,0.099-0.047,0.189-0.072,0.283c-0.039,0-0.082,0-0.118,0c-4.079-0.189-7.571-0.406-10.015-0.029
		c-1.221,0.172-2.164,0.556-2.711,0.969c-0.266,0.199-0.462,0.41-0.558,0.543c-0.1,0.134-0.148,0.203-0.148,0.203l0.209,0.166
		c0,0,0.198-0.301,0.703-0.608c0.518-0.315,1.401-0.582,2.575-0.637c2.321-0.157,5.63,0.469,9.679,0.926
		c-0.011,0.041-0.021,0.082-0.029,0.122c-0.102,0.516-0.324,0.98-0.617,1.404c-0.288,0.42-0.652,0.736-1.062,0.955
		c-0.429,0.221-0.804,0.31-1.397,0.347c-2.507,0.086-4.843,0.323-6.991,0.604c-4.296,0.6-7.831,1.459-10.204,2.391
		c-1.187,0.464-2.073,0.974-2.604,1.438c-0.545,0.484-0.649,0.885-0.654,0.859l0.231,0.127c0,0,0.048-0.076,0.14-0.225
		c0.097-0.127,0.249-0.289,0.506-0.492c0.514-0.387,1.392-0.803,2.575-1.154c2.364-0.727,5.903-1.251,10.153-1.543
		c0.874-0.059,1.794-0.104,2.724-0.139c1.671,0.012,3.436,0.061,5.144,0.168c0.631,0.037,1.17-0.066,1.627-0.254
		c0.02,0.104,0.033,0.205,0.058,0.314c0.098,0.46,0.255,0.941,0.519,1.391c0.281,0.43,0.74,0.809,1.037,1.281
		c0.611,0.928,1.1,1.932,1.348,2.758c0.132,0.41,0.168,0.769,0.22,1.02c0.027,0.27,0.041,0.42,0.041,0.42l0.266,0.037
		c0,0,0.06-0.141,0.161-0.391c0.094-0.271,0.198-0.664,0.261-1.149c0.153-0.968,0.039-2.317-0.349-3.567
		c-0.195-0.623-0.302-1.305-0.6-1.83c-0.262-0.439-0.609-0.769-0.963-1.031c0.198,0.049,0.39,0.099,0.609,0.146
		c0.659,0.132,1.41,0.226,2.209,0.22c0.795-0.041,1.648-0.248,2.502-0.278c0.853-0.043,1.707-0.038,2.502-0.011
		c0.4,0.011,0.773,0.061,1.137,0.092c0.352,0.052,0.705,0.09,0.991,0.172c0.308,0.064,0.56,0.167,0.789,0.263
		c0.192,0.115,0.407,0.224,0.493,0.321c0.127,0.068,0.205,0.222,0.244,0.316c0.045,0.094,0.074,0.146,0.074,0.146l0.252-0.08
		c0,0-0.009-0.05-0.021-0.155c-0.012-0.104-0.02-0.251-0.148-0.473c-0.104-0.25-0.289-0.413-0.507-0.645
		c-0.229-0.182-0.496-0.398-0.81-0.57c-0.877-0.523-2.047-0.918-3.291-1.206c0.074-0.13,0.146-0.304,0.234-0.538
		c0.207-0.514,0.375-1.227,0.432-1.934c0.015-0.209,0.07-0.42,0.107-0.629c0.51,0.159,1.086,0.287,1.696,0.326
		c0.615,0,1.289-0.148,1.959-0.113c1.321,0.057,2.666,0.265,3.563,0.646c0.445,0.18,0.789,0.441,0.943,0.614
		c0.194,0.18,0.24,0.416,0.256,0.392l0.256-0.064c-0.025-0.012,0.037-0.16-0.08-0.521c-0.111-0.387-0.407-0.78-0.836-1.2
		c-0.854-0.85-2.271-1.549-3.74-1.969c-0.73-0.201-1.471-0.515-2.188-0.561c-0.716-0.036-1.383,0.104-1.933,0.315
		c-0.155,0.054-0.278,0.124-0.415,0.185c0.094-0.213,0.182-0.435,0.231-0.639l0.25-0.886c0.338-1.194,0.687-2.411,1.037-3.647
		c1.01-3.582,2.068-7.336,3.143-11.137c1.429-0.076,2.779-0.326,4.029-0.695c2.877-0.851,6.517-3.992,10.066-9.537
		c7.854-2.844,19.348-7.825,26.624-16.842c1.271-1.451,2.504-3.02,3.668-4.719c10.479-15.32,6.619-31.623,6.619-31.623
		C216.193,79.268,203.891,59.216,203.891,59.216z M146.318,180.732c-0.908-0.127-1.823-0.373-2.681-0.363
		c-0.86,0.009-1.65,0.195-2.313,0.428c-0.109,0.034-0.19,0.082-0.292,0.119c0.062-0.214,0.107-0.421,0.135-0.604
		c0.099-0.228,0.187-0.461,0.249-0.709c0.043-0.155,0.09-0.312,0.135-0.469c0.393,0.033,0.784,0.062,1.189,0.084l0.429,0.021
		l0.106,0.008l0.165-0.005l0.21-0.007c0.237,0.012,0.678-0.057,1.034-0.137c0.524-0.125,1.018-0.38,1.478-0.688
		c0.106,0.151,0.225,0.312,0.298,0.487c0.267,0.576,0.528,1.156,0.729,1.59c0.071,0.16,0.121,0.308,0.166,0.438
		C147.012,180.854,146.664,180.783,146.318,180.732z M147.438,170.217c-0.314,1.25-0.625,2.477-0.928,3.678l-0.226,0.896
		c-0.059,0.258-0.11,0.424-0.218,0.662c-0.201,0.438-0.472,0.842-0.788,1.149c-0.322,0.312-0.688,0.537-1.101,0.662
		c-0.198,0.045-0.315,0.106-0.646,0.127l-0.207,0.017l-0.055,0.01c0.1-0.003-0.001,0,0.007,0l-0.1,0.004l-0.407,0.011
		c-0.252,0.002-0.484-0.011-0.731-0.011c1.439-5.094,2.971-10.513,4.504-15.928c0.233-0.833,0.455-1.662,0.685-2.488
		c0.991,0.296,1.963,0.494,2.907,0.603C149.212,163.223,148.303,166.799,147.438,170.217z"/>
</g>
<g>
	<g id="Calque_5">
		<g>
			<g transform="translate(0,-952.36218)">
				<path fill="#CC3019" d="M143.355,974.376L35.046,1038.53l-5.283,42.059l113.592-53.97V974.376L143.355,974.376z
					 M148.639,974.376v52.243l113.598,53.97l-5.282-42.059l-34.345-20.371v-19.057h-21.133v6.571L148.639,974.376z M201.477,985.959
					v7.886h21.133v-7.886H201.477z M145.998,1030.644l-95.099,44.687v113.031h15.85v-65.717h-5.284v-10.515h58.114v10.515h-5.281
					v65.717h126.806v-113.03L145.998,1030.644z M106.371,1059.559c28.417,0,55.4,0,79.254,0c0,13.256,0,25.049,0,36.799
					c-5.477,0-10.952,0-16.43,0c1.867,3.219-0.975,7.979-4.704,7.889h-36.985c-3.757,0.145-6.665-4.646-4.789-7.889
					c-5.447,0-10.896,0-16.346,0C106.371,1083.102,106.371,1071.311,106.371,1059.559z M132.788,1064.815v10.516h10.567v-10.516
					H132.788z M148.639,1064.815v10.516h10.567v-10.516H148.639z M112.975,1066.13c4.816,0,8.879,0,13.209,0
					c0,8.077,0,16.447,0,23.658c-4.541,0-9.294,0-13.209,0C112.975,1081.438,112.975,1073.599,112.975,1066.13z M165.811,1066.13
					c4.541,0,9.295,0,13.209,0c0,8.695,0,16.326,0,23.658c-4.815,0-8.879,0-13.209,0
					C165.811,1081.711,165.811,1073.341,165.811,1066.13z M115.618,1068.759v7.886h7.925v-7.886H115.618z M168.453,1068.759v7.886
					h7.925v-7.886H168.453z M115.618,1079.272v7.887h7.925v-7.887H115.618z M168.453,1079.272v7.887h7.925v-7.887H168.453z
					 M132.788,1080.589v10.514h10.567v-10.514H132.788z M148.639,1080.589v10.514h10.567v-10.514H148.639z M132.788,1122.645
					c13.325,0,25.174,0,36.985,0c0,13.257,0,25.049,0,36.802c1.396-0.025,2.681,1.237,2.681,2.628c0,1.389-1.284,2.648-2.681,2.629
					h-36.985c-1.382,0.129-2.759-1.007-2.888-2.382c0.247-2.909,2.888-2.875,2.888-2.875
					C132.788,1146.755,132.788,1133.563,132.788,1122.645z M185.625,1122.645c13.323,0,25.175,0,36.984,0
					c0,13.257,0,25.049,0,36.802c1.396-0.025,2.682,1.237,2.682,2.628c0,1.389-1.284,2.648-2.682,2.629h-36.984
					c-1.383,0.129-2.759-1.007-2.891-2.382c0.25-2.909,2.891-2.909,2.891-2.875C185.625,1146.755,185.625,1133.563,185.625,1122.645
					z M138.072,1127.903v10.514h10.567v-10.514H138.072z M153.923,1127.903v10.514h10.567v-10.514H153.923z M190.909,1127.903
					v10.514h10.567v-10.514H190.909z M206.759,1127.903v10.514h10.566v-10.514H206.759z M138.072,1143.675v10.516h10.567v-10.516
					H138.072z M153.923,1143.675v10.516h10.567v-10.516H153.923z M190.909,1143.675v10.516h10.567v-10.516H190.909z
					 M206.759,1143.675v10.516h10.566v-10.516H206.759z M82.599,1151.559c1.459,0,2.643,1.178,2.643,2.63s-1.183,2.628-2.643,2.628
					c-1.459,0-2.642-1.176-2.642-2.628S81.14,1151.559,82.599,1151.559z"/>
			</g>
			<g id="fenetre_bas_gauche_3_">
				<rect x="137.896" y="191.304" fill="#FCC759" width="11.078" height="11.603"/>
				<rect x="153.825" y="191.089" fill="#FCC759" width="10.741" height="11.397"/>
				<rect x="137.813" y="175.203" fill="#FCC759" width="11.077" height="11.221"/>
				<rect x="153.918" y="175.279" fill="#FCC759" width="10.74" height="11.021"/>
			</g>
			<g id="fenetre_bas_droite_2_">
				<rect x="190.588" y="191.298" fill="#FCC759" width="11.077" height="11.603"/>
				<rect x="206.732" y="191.084" fill="#FCC759" width="10.74" height="11.396"/>
				<rect x="190.504" y="175.197" fill="#FCC759" width="11.078" height="11.22"/>
				<rect x="206.65" y="175.273" fill="#FCC759" width="10.74" height="11.021"/>
			</g>
			<g id="fenetre_haut_3_">
				<rect x="132.788" y="128.152" fill="#FCC759" width="10.741" height="11.742"/>
				<rect x="148.628" y="127.974" fill="#FCC759" width="10.741" height="11.743"/>
				<rect x="132.708" y="111.855" fill="#FCC759" width="10.741" height="11.358"/>
				<rect x="148.547" y="111.682" fill="#FCC759" width="10.74" height="11.358"/>
				<g>
					<path fill="#FCC759" d="M112.972,113.68v23.945h13.212V113.68H112.972z M123.234,134.111h-7.312v-7.182h7.312V134.111z
						 M123.234,123.767h-7.312v-7.184h7.312V123.767z"/>
				</g>
			</g>
		</g>
	</g>
	<g>
		<path fill="#FCC759" d="M165.806,113.68v23.945h13.212V113.68H165.806z M176.068,134.111h-7.312v-7.182h7.312V134.111z
			 M176.068,123.767h-7.312v-7.185h7.312V123.767z"/>
	</g>
</g>
</svg>
