<?xml version="1.0" encoding="utf-8"?>
<!-- Generator: Adobe Illustrator 16.0.0, SVG Export Plug-In . SVG Version: 6.00 Build 0)  -->
<!DOCTYPE svg PUBLIC "-//W3C//DTD SVG 1.1//EN" "http://www.w3.org/Graphics/SVG/1.1/DTD/svg11.dtd">
<svg version="1.1" id="Calque_1" xmlns="http://www.w3.org/2000/svg" xmlns:xlink="http://www.w3.org/1999/xlink" x="0px" y="0px"
	 width="71.708px" height="24.739px" viewBox="0 0 71.708 24.739" enable-background="new 0 0 71.708 24.739" xml:space="preserve">
<g>
	<g>
		<g>
			<polygon fill="#FFFFFF" points="6.644,12.118 8.399,15.673 12.321,16.243 9.482,19.01 10.153,22.915 6.644,21.071 3.136,22.915 
				3.807,19.01 0.968,16.243 4.89,15.673 			"/>
			<path fill="#FFFFFF" d="M10.751,23.739L6.644,21.58l-4.106,2.159l0.785-4.572L0,15.929l4.591-0.667l2.053-4.161l2.054,4.161
				l4.592,0.667l-3.323,3.238L10.751,23.739z M6.644,20.563l2.911,1.53l-0.556-3.241l2.354-2.294L8.1,16.085l-1.456-2.949
				l-1.455,2.949l-3.253,0.473l2.354,2.294l-0.556,3.241L6.644,20.563z"/>
		</g>
		<g>
			<polygon fill="#FFFFFF" points="20.989,12.118 22.744,15.673 26.666,16.243 23.828,19.01 24.497,22.915 20.989,21.071 
				17.48,22.915 18.151,19.01 15.313,16.243 19.235,15.673 			"/>
			<path fill="#FFFFFF" d="M16.882,23.739l0.785-4.572l-3.322-3.238l4.592-0.667l2.052-4.161l2.054,4.161l4.591,0.667l-3.322,3.238
				l0.783,4.572l-4.106-2.159L16.882,23.739z M20.989,20.563l2.91,1.53l-0.555-3.241l2.354-2.294l-3.253-0.473l-1.456-2.948
				l-1.454,2.948l-3.254,0.473l2.354,2.294l-0.556,3.241L20.989,20.563z"/>
		</g>
		<g>
			<polygon fill="#FFFFFF" points="34.264,12.118 36.02,15.673 39.942,16.243 37.105,19.01 37.774,22.915 34.264,21.071 
				30.757,22.915 31.427,19.01 28.589,16.243 32.512,15.673 			"/>
			<path fill="#FFFFFF" d="M30.159,23.739l0.784-4.572l-3.323-3.238l4.593-0.667l2.051-4.161l2.056,4.161l4.59,0.667l-3.321,3.238
				l0.784,4.572l-4.108-2.159L30.159,23.739z M34.264,20.563l2.912,1.53l-0.556-3.241l2.354-2.294l-3.254-0.473l-1.457-2.948
				l-1.453,2.948l-3.255,0.473l2.354,2.294l-0.556,3.241L34.264,20.563z"/>
		</g>
		<g>
			<polygon fill="#FFFFFF" points="48.457,12.118 50.212,15.673 54.134,16.243 51.295,19.01 51.965,22.915 48.457,21.071 
				44.949,22.915 45.62,19.01 42.78,16.243 46.703,15.673 			"/>
			<path fill="#FFFFFF" d="M44.351,23.739l0.784-4.572l-3.323-3.238l4.592-0.667l2.053-4.16l2.056,4.16l4.591,0.667l-3.324,3.238
				l0.785,4.572l-4.107-2.159L44.351,23.739z M48.457,20.563l2.91,1.53l-0.556-3.241l2.354-2.294l-3.252-0.473l-1.457-2.949
				l-1.454,2.949l-3.254,0.473l2.354,2.294l-0.556,3.241L48.457,20.563z"/>
		</g>
		<g>
			<polygon fill="#FFFFFF" points="62.872,12.118 64.626,15.673 68.549,16.243 65.709,19.01 66.38,22.915 62.872,21.071 
				59.364,22.915 60.035,19.01 57.195,16.243 61.118,15.673 			"/>
			<path fill="#FFFFFF" d="M58.765,23.739l0.785-4.572l-3.324-3.238l4.593-0.667l2.053-4.16l2.054,4.16l4.593,0.667l-3.324,3.238
				l0.785,4.572l-4.107-2.159L58.765,23.739z M62.872,20.563l2.91,1.53l-0.556-3.241l2.354-2.294l-3.253-0.473l-1.456-2.949
				l-1.456,2.949l-3.252,0.473l2.354,2.294l-0.556,3.241L62.872,20.563z"/>
		</g>
	</g>
	<rect x="0.536" y="0.367" fill="none" width="71.172" height="14.559"/>
	
		<text transform="matrix(1 0 0 1 18.3154 6.6973)" fill="#FFFFFF" stroke="#FFFFFF" stroke-miterlimit="10" font-family="'HelveticaNeueLTStd-HvEx'" font-size="8.6716">8,5/10</text>
</g>
</svg>
