<?xml version="1.0" encoding="utf-8"?>
<!-- Generator: Adobe Illustrator 16.0.0, SVG Export Plug-In . SVG Version: 6.00 Build 0)  -->
<!DOCTYPE svg PUBLIC "-//W3C//DTD SVG 1.1//EN" "http://www.w3.org/Graphics/SVG/1.1/DTD/svg11.dtd">
<svg version="1.1" id="Calque_1" xmlns="http://www.w3.org/2000/svg" xmlns:xlink="http://www.w3.org/1999/xlink" x="0px" y="0px"
	 width="73.944px" height="78.818px" viewBox="0 0 73.944 78.818" enable-background="new 0 0 73.944 78.818" xml:space="preserve">
<g>
	<g>
		<path fill="#FFFFFF" d="M52.095,9.155H24.87l2.247-2.248c1.402-1.4,1.402-3.672,0-5.073c-1.401-1.403-3.672-1.403-5.076,0
			l-8.371,8.372c-0.002,0.001-0.004,0.001-0.004,0.001l-2.538,2.539l2.536,2.535c0,0,0.002,0,0.004,0.004l8.971,8.97
			c0.701,0.7,1.619,1.051,2.537,1.051c0.919,0,1.836-0.351,2.538-1.051c1.403-1.401,1.403-3.672,0-5.075l-2.844-2.846h27.225
			c7.254,0,13.158,5.905,13.158,13.159s-5.906,13.159-13.158,13.159H16.208c-1.983,0-3.591,1.607-3.591,3.59
			s1.607,3.588,3.591,3.588h35.887c11.213,0,20.334-9.123,20.334-20.334C72.429,18.281,63.308,9.155,52.095,9.155z"/>
	</g>
	<g>
		<path fill="#FFFFFF" d="M21.598,69.663h27.224l-2.248,2.248c-1.4,1.4-1.4,3.674,0,5.074c1.402,1.402,3.674,1.402,5.076,0
			l8.371-8.371c0.004-0.002,0.004-0.002,0.004-0.002l2.539-2.539l-2.537-2.535c0,0-0.002-0.002-0.006-0.004l-8.969-8.969
			c-0.701-0.701-1.619-1.051-2.537-1.051c-0.92,0-1.836,0.35-2.539,1.051c-1.4,1.4-1.4,3.672,0,5.074l2.846,2.846H21.598
			c-7.256,0-13.158-5.904-13.158-13.16c0-7.252,5.904-13.157,13.158-13.157h35.886c1.984,0,3.59-1.607,3.59-3.59
			c0-1.981-1.605-3.588-3.59-3.588H21.598c-11.215,0-20.336,9.123-20.336,20.334C1.262,60.538,10.385,69.663,21.598,69.663z"/>
	</g>
</g>
</svg>
