<?xml version="1.0" encoding="utf-8"?>
<!-- Generator: Adobe Illustrator 16.0.0, SVG Export Plug-In . SVG Version: 6.00 Build 0)  -->
<!DOCTYPE svg PUBLIC "-//W3C//DTD SVG 1.1//EN" "http://www.w3.org/Graphics/SVG/1.1/DTD/svg11.dtd">
<svg version="1.1" id="Capa_1" xmlns="http://www.w3.org/2000/svg" xmlns:xlink="http://www.w3.org/1999/xlink" x="0px" y="0px"
	 width="435.838px" height="355.136px" viewBox="29.854 68.609 435.838 355.136"
	 enable-background="new 29.854 68.609 435.838 355.136" xml:space="preserve">
<g>
	<g>
		<path fill="#AF1D1F" d="M318.562,115.752H198.966l9.874-9.874c6.157-6.157,6.157-16.132,0-22.296
			c-6.155-6.157-16.131-6.157-22.296,0l-36.781,36.78c-0.007,0.007-0.015,0.007-0.015,0.007l-11.146,11.154l11.144,11.138
			c0,0,0.007,0.006,0.015,0.021l39.405,39.397c3.082,3.082,7.116,4.619,11.144,4.619c4.042,0,8.069-1.537,11.153-4.619
			c6.156-6.156,6.156-16.131,0-22.296l-12.497-12.496h119.596c31.874,0,57.805,25.939,57.805,57.805
			c0,31.868-25.938,57.807-57.805,57.807H160.914c-8.714,0-15.771,7.057-15.771,15.764s7.057,15.764,15.771,15.764h157.648
			c49.263,0,89.332-40.076,89.332-89.332C407.894,155.84,367.823,115.752,318.562,115.752z"/>
	</g>
	<g>
		<path fill="#AF1D1F" d="M184.593,381.559h119.595l-9.874,9.873c-6.156,6.156-6.156,16.135,0,22.297
			c6.156,6.158,16.132,6.158,22.297,0l36.78-36.779c0.008-0.008,0.016-0.008,0.016-0.008l11.146-11.154l-11.144-11.137
			c0,0-0.008-0.008-0.016-0.021l-39.404-39.398c-3.082-3.08-7.117-4.617-11.145-4.617c-4.042,0-8.069,1.537-11.152,4.617
			c-6.157,6.156-6.157,16.135,0,22.297l12.496,12.498H184.593c-31.875,0-57.806-25.939-57.806-57.809
			c0-31.863,25.939-57.806,57.806-57.806h157.648c8.714,0,15.771-7.057,15.771-15.763c0-8.706-7.057-15.764-15.771-15.764H184.593
			c-49.264,0-89.333,40.077-89.333,89.333S135.331,381.559,184.593,381.559z"/>
	</g>
</g>
</svg>
