<?xml version="1.0" encoding="utf-8"?>
<!-- Generator: Adobe Illustrator 16.0.4, SVG Export Plug-In . SVG Version: 6.00 Build 0)  -->
<!DOCTYPE svg PUBLIC "-//W3C//DTD SVG 1.1//EN" "http://www.w3.org/Graphics/SVG/1.1/DTD/svg11.dtd">
<svg version="1.1" xmlns="http://www.w3.org/2000/svg" xmlns:xlink="http://www.w3.org/1999/xlink" x="0px" y="0px" width="292px"
	 height="236px" viewBox="0 0 292 236" enable-background="new 0 0 292 236" xml:space="preserve">
<g id="Calque_1">
</g>
<g id="domain-cont" display="none">
	<g display="inline">
		<g>
			<path fill="#FCC759" d="M223.502,191.138c-0.465-4.64-3.016-27.15-4.873-33.182c-1.854-6.035-0.696-10.213-2.088-16.014
				c-1.393-5.568-2.32-19.723-5.105-26.685c-2.784-6.961,0.465-8.817,0.465-19.724c0-10.441,1.392-13.924-2.553-24.828
				c4.409-1.393,8.122-3.249,11.139-5.105l6.032-4.178l-9.281-15.779l-0.463-0.463c-10.675-12.299-54.068-18.101-80.057-18.101
				c-4.409,0-8.586,0.232-12.531,0.465c-30.63,2.319-55.691,11.835-56.619,12.299l-4.873,1.856v13.227l1.161,2.088
				c0.231,0.465,3.943,5.338,12.53,10.442c-0.697,2.552-3.945,14.62-2.784,18.563c1.392,4.641,3.247,22.045,2.784,26.686
				c-0.465,4.641-4.642,22.973,0,30.398c4.641,7.426-3.481,45.019-8.122,52.907c-4.64,7.888-12.763,15.546-15.083,18.33v6.497
				c0,0,81.215,34.112,185.636,0v-6.032C239.048,214.575,223.966,196.012,223.502,191.138z M139.269,63.976
				c-7.656,0-15.082-0.231-22.043-0.928c-16.012-1.393-26.453-5.568-32.255-8.818c-1.625-0.928-3.017-1.855-4.177-2.552
				c0,0,12.066-7.426,20.42-10.675c8.354-3.247,27.613-8.354,37.359-5.568c9.746,2.784,19.725,0.464,29.006,3.713
				c9.283,3.248,32.719,7.889,37.129,16.707C191.479,60.728,165.954,63.976,139.269,63.976z"/>
			<g>
				<path fill="#CC3019" d="M179.454,145.485l-1.055-4.141c-1.628-8.975,1.564-15.27,2.527-16.913
					c0.09-0.143,0.184-0.295,0.269-0.428c-3.412-3.084-11.536-9.568-22.345-12.625c-3.836,0.354-18.814,2.755-23.904,18.823
					c3.363-0.755,7.677-1.041,10.831,1.138c1.897,1.312,4.092,4.023,3.78,9.52c-0.664,11.724,5.588,23.456,15.156,29.088l2.42,1.257
					c0.104,0.048,0.203,0.1,0.307,0.144l-0.005,0.014l0.132,0.07c0.002,0,1.919,0.947,4.367,0.947c3.69,0,6.674-2.168,8.865-6.44
					c2.374-4.634,0.943-8.433-0.438-12.107C179.318,151.06,178.25,148.199,179.454,145.485z M163.621,134.522
					c-3.005,0-5.445-2.438-5.445-5.444c0-3.006,2.439-5.442,5.445-5.442s5.443,2.437,5.443,5.442
					C169.064,132.084,166.627,134.522,163.621,134.522z"/>
				<path fill="#CC3019" d="M129.768,168.636c-0.84-0.416-2.764-1.521-2.206-3.392c0.723-2.44,3.346-2.167,3.346-2.167v-0.055
					c7.656,2.365,22.482,8.896,34.444,20.982l-0.005-0.16c0,0,3.249,2.926,1.756-1.83c-0.889-2.002-1.852-3.955-2.949-5.822
					c-12.693-6.091-21.205-20.901-20.37-35.661c0.129-2.262-0.3-3.755-1.29-4.44c-1.836-1.271-5.706-0.536-8.438,0.344
					c-0.006,0.001-0.006,0.001-0.012,0.003c-6.134,1.483-5.494-4.29-5.35-5.242c1.744-7.349,5.164-12.589,9.111-16.333
					c0.074-0.084,0.146-0.17,0.229-0.264c3.986-4.475-2.707-3.104-2.707-3.104l0.38-0.141c-7.962,2.276-15.716,6.933-23.161,14.036
					c-1.8,2.389-19.174,26.771,5.102,46.353c8.873,7.156,18.394,12.334,27.596,17.342c8.219,4.475,15.945,8.693,22.102,13.776
					l-0.012-0.017c0,0,6.062,3.924,3.277-2.221C161.009,181.744,138.194,171.772,129.768,168.636z"/>
				<path fill="#CC3019" d="M182.308,110.888c-3.374-0.711-9.021-1.899-9.743-7.68c-0.415-3.324-1.696-4.102-4.019-5.518
					c-2.488-1.517-5.896-3.592-7.68-9.314c-0.26-0.832-0.507-1.037-0.511-1.038c-0.67-0.188-3.12,1.126-4.299,1.752
					c-2.853,1.515-5.808,3.082-8.606,1.762c-1.648-0.771-2.729-2.341-3.214-4.661c-0.682-3.275-4.89-6.317-9.574-6.928
					c-2.698-0.353-9.415-0.309-13.386,7.629c-1.603,3.207-1.875,6.181-0.837,9.093c2.004,5.606,8.294,9.389,10.726,10.672
					c5.252-1.882,10.611-2.845,16.061-2.845c13.926,0,25.323,6.152,32.337,11.201c2.171-1.868,3.36-3.093,3.993-3.852
					C183.133,111.062,182.679,110.966,182.308,110.888z"/>
				<path fill="#CC3019" d="M184.37,141.404c0.73-0.272,1.448-0.486,2.091-0.65c3.066-0.785,6.194-1.301,9.339-1.557
					c-4.787-1.234-9.401-1.64-12.439-1.764L184.37,141.404z"/>
				<path fill="#CC3019" d="M186.176,126.931c-0.77,1.184-1.771,2.873-2.573,4.727c4.183,0.163,10.966,0.83,17.617,3.162
					C197.666,130.934,192.634,127.31,186.176,126.931z"/>
				<path fill="#CC3019" d="M127.079,186.619v-0.002c-34.452-16.937-31.457-44.646-29.488-52.301h-0.06c0,0,0.68-3.042-2.052-3.973
					c-2.631-0.898-3.413,1.396-3.466,1.58c-2.124,9.518-5.938,41.496,32.134,60.239c0.922,0.347,2.899,0.512,3.851-1.358
					C129.412,188.021,127.079,186.619,127.079,186.619z"/>
				<path fill="#CC3019" d="M135.928,192.012l-0.586-0.33c-0.024-0.013-2.202-0.985-3.603,1.441
					c-1.408,2.439,0.744,3.571,0.744,3.571l1.565,0.878c0.095,0.052,1.708,0.858,3.156-1.733
					C138.29,193.897,136.815,192.583,135.928,192.012z"/>
			</g>
		</g>
	</g>
</g>
<g id="Calque_3" display="none">
	<g display="inline">
		<g>
			<g transform="translate(-30 -200)">
				<path fill="#FCC759" d="M211.608,216.981c0,0-16.129,2.82-29.43,26.602c-13.301,23.77-23.204,24.34-31.411,17.549
					c-8.213-6.795-12.743-29.432-47.55-28.873c-34.808,0.57-61.138,31.986-50.379,66.506c0,0,3.401-38.205,34.809-45.279
					c0,0-18.685,26.602-13.867,46.984c4.245-13.016,15.005-22.357,21.513-27.746c0,0-3.674,16.135,1.702,27.746
					c0.565-8.482,9.616-14.719,9.616-14.719s-1.696,12.178,3.959,20.66c1.418-8.482,8.219-11.883,8.219-11.883
					s7.639,21.807,11.312,28.307c2.835-2.834,5.864-5.818,13.301-5.383c4.818,0.291,19.255,9.635,19.255,9.635l-2.836,6.793
					l5.37,16.402l-10.513,4.383l-2.396,5.662l12.351-2.398l15.519,8.49h7.69l-10.187-7.926h23.21l-6.489-5.283l-16.156-1.23
					c0,0-6.482-7.477-7.645-9.803c-1.017-2.021-2.835-8.023,0.005-11.709c2.821-3.68,20.375-12.457,27.741-19.529
					c7.36-7.074,13.295-14.719,21.227-19.809c7.932-5.105,13.302-19.531,12.171-30.004c-1.138-10.475-4.239-14.16-6.508-18.398
					c-2.27-4.252,1.982-7.924,3.68-8.498c1.703-0.572,4.953-1.41,10.05-0.852l-8.211-9.764c0,0,3.966-5.65,2.12-7.783
					c-1.834-2.119-3.959-14.004-6.364-12.039c-2.411,1.994-0.994,6.807-3.544,4.822c-2.548-1.98-3.679-8.775-6.508-8.775
					c-2.834,0-0.286,4.102-1.273,5.232c-0.994,1.133-4.525-3.529-7.646-2.834c-3.114,0.707-5.801,6.793-3.537,8.354
					C206.245,212.149,211.608,216.981,211.608,216.981z"/>
			</g>
			<path fill="#CC3019" d="M285.519,57.362l4.458-4.193c-4.078-1.771-6.608-1.346-7.909-0.805c-0.338,0.121-0.614,0.254-0.822,0.373
				l6.513-6.967c-2.827-2.658-8.867-1.449-12.034-0.195c-0.481,0.178-0.904,0.359-1.248,0.535c-3.653,1.826-7.138,6.055-7.634,6.67
				c-8.116,0.486-15.016,2.268-20.848,4.693c-7.645,3.139-13.482,7.377-17.868,11.256c-4.302,3.803-9.22,6.35-13.472,7.953
				c-5.456,2.025-9.758,2.494-10.125,2.062c-13.631-15.74-32.131-18.475-32.131-18.475s2.82-4.697,2.82-9.631
				c0-6.715-5.689-10.457-9.249-9.061c-0.243,0.096-0.472,0.221-0.693,0.359c-3.101,1.76-3.804,7.576-1.527,13.471
				c-0.889-0.52-4.187-3.211-6.059-2.475c-0.181,0.07-0.354,0.164-0.517,0.268c-2.402,1.311-2.948,5.789-1.173,10.316
				c0.183,0.465,0.405,0.889,0.621,1.318c-1.348-1.352-2.872-1.975-4.127-1.482c-0.14,0.057-0.273,0.123-0.401,0.201
				c-1.948,1.016-2.4,4.602-0.978,8.227c0.409,1.049,0.937,1.984,1.524,2.773c-0.036,0.154-0.074,0.305-0.107,0.461
				c0,0-2.701,1.227-4.592,3.113c-2.435,2.438-1.889,4.725-1.889,4.725s2.854-1.184,5.195-1.65c2.34-0.471,4.486,0.234,4.486,0.234
				c-1.05,7.756,6.441,10.432,6.441,10.432s-1.868,4.332-4.28,16.051c-3.747,18.191-0.609,22.885,8.56,31.568
				c6.325,5.998,22.812,11.389,34.778,15.232l-0.136,0.148c0,0,5.186,7.795,10.399,12.305c1.979,1.715,3.937,2.975,5.849,3.881
				c-0.28,1.066-0.564,2.129-0.836,3.199c-1.616,6.393-3.233,12.787-4.751,18.781c-0.028,0.113-0.055,0.219-0.083,0.328
				c-0.045,0-0.094,0-0.136,0c-4.694-0.219-8.713-0.469-11.528-0.035c-1.405,0.199-2.492,0.637-3.118,1.113
				c-0.307,0.232-0.533,0.473-0.644,0.627c-0.114,0.152-0.17,0.23-0.17,0.23l0.239,0.193c0,0,0.226-0.348,0.808-0.703
				c0.598-0.361,1.614-0.67,2.965-0.73c2.674-0.184,6.481,0.539,11.143,1.064c-0.014,0.047-0.023,0.094-0.034,0.139
				c-0.116,0.592-0.375,1.131-0.712,1.619c-0.333,0.482-0.75,0.846-1.222,1.1c-0.493,0.252-0.926,0.354-1.609,0.395
				c-2.887,0.102-5.573,0.375-8.048,0.699c-4.944,0.689-9.013,1.68-11.742,2.748c-1.367,0.535-2.39,1.123-2.996,1.656
				c-0.629,0.559-0.75,1.018-0.757,0.988l0.269,0.146c0,0,0.054-0.086,0.16-0.256c0.112-0.15,0.285-0.336,0.582-0.566
				c0.592-0.445,1.602-0.924,2.964-1.332c2.72-0.834,6.793-1.438,11.685-1.773c1.006-0.068,2.066-0.121,3.137-0.162
				c1.924,0.016,3.954,0.072,5.918,0.197c0.729,0.041,1.346-0.078,1.875-0.297c0.022,0.121,0.038,0.24,0.065,0.367
				c0.112,0.531,0.294,1.082,0.599,1.6c0.32,0.494,0.85,0.932,1.192,1.473c0.703,1.068,1.265,2.223,1.551,3.172
				c0.151,0.475,0.194,0.887,0.254,1.178c0.033,0.307,0.046,0.482,0.046,0.482l0.306,0.043c0,0,0.068-0.162,0.184-0.451
				c0.108-0.312,0.228-0.764,0.302-1.322c0.176-1.117,0.043-2.67-0.402-4.107c-0.225-0.717-0.347-1.498-0.688-2.104
				c-0.302-0.508-0.703-0.883-1.107-1.189c0.228,0.055,0.448,0.113,0.701,0.168c0.758,0.152,1.623,0.258,2.539,0.25
				c0.917-0.043,1.897-0.285,2.883-0.32c0.979-0.047,1.965-0.043,2.878-0.008c0.461,0.008,0.894,0.068,1.309,0.104
				c0.405,0.059,0.811,0.102,1.141,0.193c0.354,0.076,0.641,0.195,0.906,0.305c0.225,0.133,0.469,0.258,0.57,0.369
				c0.147,0.084,0.235,0.256,0.279,0.365c0.054,0.109,0.084,0.168,0.084,0.168l0.294-0.094c0,0-0.01-0.055-0.025-0.178
				c-0.013-0.121-0.022-0.289-0.172-0.545c-0.119-0.287-0.332-0.475-0.581-0.74c-0.264-0.209-0.574-0.459-0.934-0.656
				c-1.01-0.6-2.354-1.055-3.785-1.387c0.082-0.15,0.167-0.35,0.268-0.621c0.238-0.592,0.432-1.41,0.499-2.225
				c0.013-0.24,0.08-0.484,0.12-0.725c0.589,0.186,1.251,0.334,1.955,0.379c0.709,0,1.483-0.172,2.253-0.133
				c1.521,0.064,3.07,0.301,4.102,0.744c0.513,0.209,0.907,0.508,1.089,0.707c0.222,0.209,0.273,0.48,0.29,0.451l0.296-0.072
				c-0.027-0.014,0.043-0.186-0.093-0.602c-0.128-0.443-0.467-0.9-0.962-1.381c-0.984-0.977-2.616-1.783-4.304-2.266
				c-0.841-0.232-1.692-0.594-2.519-0.643c-0.823-0.045-1.592,0.119-2.225,0.361c-0.181,0.061-0.32,0.141-0.479,0.213
				c0.109-0.244,0.208-0.496,0.267-0.736l0.289-1.02c0.39-1.373,0.788-2.773,1.193-4.195c1.16-4.123,2.382-8.443,3.615-12.818
				c1.646-0.086,3.199-0.375,4.637-0.801c3.312-0.977,7.5-4.594,11.588-10.975c9.036-3.275,22.265-9.006,30.638-19.383
				c1.463-1.67,2.884-3.475,4.223-5.43c12.061-17.633,7.617-36.395,7.617-36.395C299.679,80.44,285.519,57.362,285.519,57.362z
				 M219.263,197.21c-1.047-0.145-2.099-0.426-3.087-0.42c-0.988,0.012-1.897,0.229-2.659,0.496
				c-0.127,0.039-0.22,0.094-0.339,0.137c0.075-0.248,0.124-0.486,0.156-0.695c0.114-0.266,0.216-0.531,0.287-0.818
				c0.05-0.18,0.103-0.357,0.154-0.537c0.452,0.037,0.904,0.072,1.37,0.096l0.493,0.023l0.123,0.01l0.189-0.006l0.242-0.008
				c0.271,0.014,0.778-0.062,1.191-0.156c0.602-0.143,1.168-0.436,1.697-0.795c0.123,0.182,0.26,0.365,0.345,0.566
				c0.306,0.662,0.608,1.33,0.838,1.83c0.081,0.186,0.14,0.352,0.192,0.5C220.06,197.351,219.661,197.272,219.263,197.21z
				 M220.55,185.112c-0.363,1.436-0.718,2.846-1.068,4.229l-0.258,1.031c-0.067,0.295-0.126,0.488-0.251,0.762
				c-0.232,0.508-0.541,0.969-0.906,1.322c-0.369,0.355-0.792,0.621-1.266,0.764c-0.229,0.053-0.363,0.125-0.744,0.145l-0.238,0.02
				l-0.062,0.01c0.113-0.006-0.002,0,0.006,0l-0.115,0.004l-0.469,0.012c-0.289,0.004-0.556-0.012-0.841-0.012
				c1.656-5.861,3.42-12.096,5.183-18.332c0.27-0.955,0.525-1.912,0.789-2.859c1.141,0.34,2.257,0.568,3.346,0.691
				C222.593,177.06,221.549,181.177,220.55,185.112z"/>
			<path fill="#CC3019" d="M6.553,127.417c0,0-4.441,18.764,7.617,36.395c1.341,1.957,2.76,3.76,4.223,5.43
				c8.375,10.377,21.604,16.107,30.639,19.385c4.09,6.381,8.276,9.996,11.589,10.975c1.437,0.424,2.99,0.713,4.636,0.801
				c1.235,4.375,2.456,8.695,3.616,12.816c0.403,1.424,0.805,2.822,1.192,4.197l0.289,1.018c0.058,0.24,0.157,0.492,0.266,0.736
				c-0.156-0.07-0.297-0.15-0.477-0.211c-0.634-0.244-1.402-0.406-2.225-0.361c-0.828,0.049-1.678,0.41-2.519,0.643
				c-1.689,0.484-3.32,1.289-4.304,2.264c-0.496,0.482-0.834,0.938-0.963,1.383c-0.137,0.416-0.064,0.586-0.092,0.602l0.297,0.072
				c0.016,0.029,0.066-0.242,0.289-0.451c0.181-0.199,0.576-0.5,1.089-0.709c1.032-0.439,2.579-0.68,4.101-0.742
				c0.77-0.041,1.545,0.131,2.254,0.131c0.703-0.045,1.366-0.189,1.955-0.375c0.04,0.24,0.106,0.48,0.121,0.723
				c0.067,0.814,0.258,1.633,0.497,2.225c0.101,0.27,0.185,0.471,0.27,0.621c-1.435,0.332-2.777,0.787-3.786,1.389
				c-0.359,0.197-0.669,0.445-0.934,0.654c-0.25,0.268-0.463,0.453-0.581,0.738c-0.149,0.258-0.161,0.426-0.172,0.547
				c-0.015,0.121-0.024,0.178-0.024,0.178l0.293,0.094c0,0,0.031-0.061,0.082-0.166c0.046-0.111,0.135-0.285,0.281-0.369
				c0.1-0.111,0.345-0.236,0.568-0.367c0.265-0.109,0.553-0.227,0.906-0.305c0.33-0.094,0.736-0.135,1.141-0.193
				c0.416-0.037,0.846-0.098,1.309-0.104c0.914-0.037,1.898-0.041,2.879,0.008c0.984,0.035,1.964,0.277,2.881,0.32
				c0.918,0.006,1.783-0.098,2.54-0.25c0.255-0.055,0.475-0.111,0.702-0.168c-0.405,0.307-0.806,0.682-1.107,1.189
				c-0.341,0.605-0.466,1.389-0.69,2.104c-0.445,1.439-0.575,2.992-0.4,4.107c0.073,0.561,0.192,1.01,0.301,1.322
				c0.116,0.289,0.184,0.451,0.184,0.451l0.306-0.043c0,0,0.016-0.176,0.048-0.484c0.06-0.291,0.102-0.701,0.253-1.174
				c0.285-0.951,0.848-2.107,1.551-3.174c0.343-0.541,0.872-0.979,1.193-1.473c0.305-0.516,0.485-1.07,0.597-1.6
				c0.028-0.127,0.044-0.246,0.066-0.365c0.528,0.217,1.146,0.336,1.874,0.295c1.965-0.125,3.996-0.182,5.918-0.197
				c1.07,0.043,2.133,0.094,3.139,0.162c4.892,0.336,8.963,0.939,11.685,1.773c1.361,0.408,2.372,0.887,2.964,1.332
				c0.296,0.232,0.469,0.418,0.582,0.566c0.106,0.168,0.16,0.256,0.16,0.256l0.268-0.145c-0.006,0.027-0.127-0.432-0.755-0.99
				c-0.608-0.533-1.63-1.123-2.996-1.654c-2.731-1.07-6.797-2.061-11.743-2.75c-2.475-0.322-5.163-0.598-8.048-0.699
				c-0.684-0.039-1.116-0.145-1.608-0.395c-0.473-0.254-0.89-0.619-1.224-1.1c-0.337-0.488-0.594-1.027-0.71-1.619
				c-0.013-0.045-0.022-0.092-0.034-0.139c4.659-0.525,8.468-1.246,11.142-1.064c1.351,0.061,2.368,0.369,2.965,0.73
				c0.582,0.355,0.809,0.705,0.809,0.705l0.239-0.193c0,0-0.056-0.08-0.17-0.232c-0.111-0.152-0.337-0.396-0.643-0.627
				c-0.628-0.475-1.715-0.916-3.12-1.113c-2.815-0.432-6.834-0.186-11.526,0.035c-0.043,0-0.093,0-0.138,0
				c-0.027-0.109-0.054-0.215-0.082-0.326c-1.518-5.996-3.135-12.391-4.753-18.783c-0.271-1.068-0.555-2.135-0.834-3.199
				c1.911-0.908,3.868-2.166,5.847-3.881c5.215-4.512,10.399-12.305,10.399-12.305l-0.135-0.146
				c11.964-3.846,28.45-9.238,34.774-15.234c9.168-8.684,12.306-13.377,8.56-31.568c-2.413-11.719-4.28-16.053-4.28-16.053
				s7.49-2.672,6.439-10.43c0,0,2.147-0.705,4.49-0.234c2.339,0.469,5.194,1.652,5.194,1.652s0.544-2.289-1.892-4.725
				c-1.889-1.887-4.589-3.115-4.589-3.115c-0.034-0.154-0.074-0.305-0.109-0.459c0.589-0.789,1.116-1.727,1.524-2.773
				c1.424-3.627,0.971-7.213-0.977-8.225c-0.128-0.08-0.262-0.148-0.402-0.203c-1.255-0.494-2.78,0.131-4.127,1.482
				c0.215-0.43,0.438-0.854,0.62-1.32c1.775-4.527,1.229-9.004-1.173-10.314c-0.163-0.105-0.336-0.197-0.518-0.268
				c-1.87-0.736-5.168,1.957-6.056,2.477c2.275-5.896,1.571-11.715-1.529-13.473c-0.221-0.139-0.45-0.266-0.693-0.359
				c-3.557-1.396-9.245,2.346-9.245,9.059c0,4.934,2.821,9.633,2.821,9.633s-18.5,2.734-32.13,18.475
				c-0.368,0.432-4.67-0.039-10.127-2.062c-4.25-1.605-9.17-4.152-13.469-7.955c-4.386-3.879-10.227-8.117-17.869-11.254
				c-5.834-2.426-12.732-4.207-20.848-4.693c-0.497-0.619-3.981-4.846-7.634-6.672c-0.345-0.176-0.769-0.357-1.249-0.535
				c-3.167-1.254-9.208-2.463-12.036,0.195l6.515,6.967c-0.209-0.117-0.485-0.252-0.824-0.371c-1.301-0.543-3.831-0.969-7.908,0.805
				l4.458,4.191C6.482,84.784-7.678,107.86,6.553,127.417z M71.543,224.854c0.054-0.15,0.111-0.316,0.193-0.504
				c0.229-0.5,0.532-1.166,0.838-1.828c0.085-0.201,0.222-0.383,0.345-0.564c0.528,0.357,1.096,0.652,1.696,0.795
				c0.414,0.092,0.92,0.168,1.192,0.158l0.242,0.006l0.189,0.004l0.123-0.008l0.493-0.025c0.467-0.021,0.917-0.057,1.369-0.096
				c0.053,0.182,0.104,0.359,0.156,0.541c0.07,0.285,0.172,0.551,0.286,0.816c0.031,0.209,0.082,0.447,0.156,0.693
				c-0.119-0.041-0.213-0.096-0.339-0.135c-0.762-0.27-1.67-0.484-2.658-0.494s-2.042,0.273-3.086,0.418
				C72.339,224.692,71.94,224.771,71.543,224.854z M68.348,200.317c1.089-0.127,2.205-0.354,3.346-0.693
				c0.263,0.949,0.518,1.904,0.786,2.861c1.766,6.234,3.529,12.469,5.185,18.332c-0.285,0-0.554,0.016-0.841,0.012l-0.469-0.012
				l-0.116-0.004c0.01,0-0.107-0.006,0.007,0l-0.062-0.01l-0.24-0.02c-0.381-0.02-0.514-0.094-0.742-0.145
				c-0.475-0.143-0.896-0.408-1.268-0.766c-0.363-0.352-0.675-0.814-0.906-1.318c-0.124-0.273-0.184-0.469-0.25-0.766l-0.26-1.029
				c-0.35-1.383-0.705-2.793-1.067-4.23C70.453,208.597,69.408,204.481,68.348,200.317z"/>
		</g>
	</g>
</g>
<g id="Calque_4">
	<g id="fenetre_bas_gauche_1_">
		<rect x="131.479" y="120.521" fill="#EFC73D" width="11.809" height="12.528"/>
		<rect x="148.7" y="120.329" fill="#EFC73D" width="11.81" height="12.53"/>
		<rect x="131.389" y="103.136" fill="#EFC73D" width="11.81" height="12.116"/>
		<rect x="148.804" y="102.95" fill="#EFC73D" width="11.808" height="12.117"/>
	</g>
	<g id="fenetre_haut_1_">
		<rect x="131.49" y="120.521" fill="#EFC73D" width="11.809" height="12.528"/>
		<rect x="148.906" y="120.328" fill="#EFC73D" width="11.807" height="12.531"/>
		<rect x="131.401" y="103.135" fill="#EFC73D" width="11.809" height="12.117"/>
		<rect x="148.816" y="102.95" fill="#EFC73D" width="11.808" height="12.116"/>
		<g>
			<path fill="#EFC73D" d="M109.705,104.618v26.009h14.525v-26.009H109.705z M120.987,127.351h-8.038v-7.991h8.038V127.351z
				 M120.987,115.839h-8.038v-7.991h8.038V115.839z"/>
		</g>
		<g>
			<path fill="#EFC73D" d="M167.77,104.618v26.009h14.525v-26.009H167.77z M179.05,127.351h-8.036v-7.991h8.036V127.351z
				 M179.05,115.839h-8.036v-7.991h8.036V115.839z"/>
		</g>
	</g>
	<g>
		<g>
			<g>
				<path fill="#CC3019" d="M218.667,157.728c-12.842,0-23.277,10.594-23.277,23.621c0,13.016,10.436,23.611,23.277,23.611
					s23.277-10.596,23.277-23.611C241.944,168.322,231.509,157.728,218.667,157.728z M222.825,185.574v13.598h-8.326v-13.598
					h-13.406v-8.453h13.406v-13.598h8.326v13.598h13.411v8.453H222.825z"/>
			</g>
		</g>
		<path fill="#FCC759" d="M214.796,1.238c-3.891-0.358-6.789-0.548-10.227-0.548c-27.541,0-40.367,12.03-55.52,30.271
			C133.912,12.72,120.94,0.69,93.289,0.69c-3.427,0-8.861,0.189-12.802,0.548C56.663,3.614,28.941,25.717,23.961,68.017v14.081
			c4.98,40.533,35.252,90.504,123.58,153.212c18.319-12.996,34.509-24.996,48.111-36.926c-5.025-5.121-7.312-12.457-7.312-20.068
			c0-15.767,13.399-28.548,29.733-28.548c7.207,0,12.643,2.495,17.771,6.63c22.336-27.846,32.193-52.451,32.193-74.3V68.017
			C263.06,25.717,238.696,3.614,214.796,1.238z"/>
	</g>
	<path fill="#CC3019" d="M203.891,59.216l3.871-3.644c-3.541-1.54-5.74-1.17-6.87-0.699c-0.295,0.104-0.536,0.221-0.716,0.323
		l5.658-6.054c-2.457-2.31-7.705-1.26-10.456-0.17c-0.418,0.155-0.786,0.312-1.086,0.466c-3.174,1.587-6.201,5.26-6.632,5.797
		c-7.054,0.421-13.05,1.971-18.116,4.077c-6.642,2.728-11.716,6.41-15.527,9.779c-3.735,3.307-8.01,5.518-11.703,6.912
		c-4.741,1.761-8.479,2.166-8.801,1.791c-11.839-13.677-27.915-16.052-27.915-16.052s2.451-4.083,2.451-8.369
		c0-5.834-4.943-9.085-8.037-7.872c-0.211,0.083-0.41,0.192-0.603,0.312c-2.693,1.528-3.306,6.583-1.327,11.705
		c-0.772-0.453-3.637-2.791-5.264-2.152c-0.158,0.063-0.307,0.143-0.448,0.233c-2.089,1.138-2.563,5.03-1.021,8.964
		c0.159,0.404,0.353,0.773,0.539,1.146c-1.171-1.174-2.495-1.716-3.585-1.287c-0.123,0.048-0.238,0.106-0.349,0.175
		c-1.693,0.881-2.087,3.998-0.85,7.148c0.356,0.911,0.813,1.725,1.325,2.408c-0.032,0.137-0.065,0.266-0.096,0.401
		c0,0-2.346,1.066-3.987,2.708c-2.116,2.115-1.644,4.104-1.644,4.104s2.48-1.029,4.515-1.437c2.034-0.408,3.901,0.206,3.901,0.206
		c-0.914,6.739,5.597,9.062,5.597,9.062s-1.623,3.765-3.721,13.947c-3.255,15.807-0.528,19.885,7.439,27.43
		c5.497,5.211,19.822,9.896,30.218,13.238l-0.118,0.127c0,0,4.504,6.771,9.034,10.69c1.72,1.493,3.421,2.585,5.083,3.372
		c-0.244,0.928-0.492,1.852-0.726,2.78c-1.407,5.556-2.811,11.112-4.13,16.321c-0.024,0.098-0.047,0.189-0.072,0.283
		c-0.039,0-0.082,0-0.118,0c-4.079-0.19-7.571-0.406-10.015-0.03c-1.221,0.172-2.164,0.556-2.711,0.969
		c-0.266,0.2-0.462,0.411-0.558,0.543c-0.1,0.134-0.148,0.203-0.148,0.203l0.209,0.167c0,0,0.198-0.302,0.703-0.609
		c0.518-0.316,1.401-0.582,2.575-0.637c2.321-0.157,5.63,0.469,9.679,0.926c-0.011,0.041-0.021,0.082-0.029,0.122
		c-0.102,0.515-0.324,0.981-0.617,1.405c-0.288,0.419-0.652,0.736-1.062,0.955c-0.429,0.22-0.804,0.309-1.397,0.346
		c-2.507,0.086-4.843,0.324-6.991,0.604c-4.296,0.6-7.831,1.46-10.204,2.391c-1.187,0.464-2.073,0.974-2.604,1.438
		c-0.545,0.484-0.649,0.885-0.654,0.859l0.231,0.127c0,0,0.048-0.076,0.14-0.224c0.097-0.128,0.249-0.29,0.506-0.493
		c0.514-0.387,1.392-0.802,2.575-1.154c2.364-0.726,5.903-1.251,10.153-1.543c0.874-0.058,1.794-0.104,2.724-0.139
		c1.671,0.012,3.436,0.061,5.144,0.168c0.631,0.038,1.17-0.066,1.627-0.254c0.02,0.104,0.033,0.205,0.058,0.315
		c0.098,0.46,0.255,0.941,0.519,1.39c0.281,0.43,0.74,0.809,1.037,1.281c0.611,0.928,1.1,1.932,1.348,2.758
		c0.132,0.411,0.168,0.769,0.22,1.02c0.027,0.269,0.041,0.42,0.041,0.42l0.266,0.037c0,0,0.06-0.141,0.161-0.391
		c0.094-0.271,0.198-0.663,0.261-1.149c0.153-0.968,0.039-2.317-0.349-3.568c-0.195-0.622-0.302-1.304-0.6-1.829
		c-0.262-0.44-0.609-0.769-0.963-1.032c0.198,0.049,0.39,0.099,0.609,0.146c0.659,0.132,1.41,0.225,2.209,0.219
		c0.795-0.041,1.648-0.248,2.502-0.278c0.853-0.043,1.707-0.038,2.502-0.01c0.401,0.01,0.774,0.06,1.137,0.091
		c0.352,0.052,0.705,0.09,0.991,0.172c0.308,0.064,0.559,0.167,0.789,0.263c0.193,0.115,0.407,0.223,0.493,0.321
		c0.127,0.069,0.205,0.222,0.244,0.316c0.045,0.095,0.074,0.146,0.074,0.146l0.252-0.08c0,0-0.008-0.05-0.021-0.155
		c-0.011-0.105-0.02-0.251-0.149-0.473c-0.104-0.25-0.289-0.413-0.506-0.645c-0.229-0.181-0.496-0.398-0.81-0.57
		c-0.877-0.523-2.046-0.918-3.291-1.206c0.074-0.13,0.147-0.304,0.235-0.538c0.207-0.513,0.375-1.226,0.432-1.934
		c0.014-0.209,0.07-0.42,0.106-0.629c0.511,0.16,1.086,0.288,1.697,0.327c0.615,0,1.289-0.149,1.959-0.114
		c1.321,0.057,2.666,0.265,3.563,0.647c0.446,0.18,0.79,0.441,0.944,0.614c0.194,0.18,0.24,0.416,0.255,0.392l0.257-0.064
		c-0.026-0.013,0.036-0.161-0.081-0.521c-0.111-0.387-0.407-0.781-0.836-1.201c-0.854-0.849-2.271-1.548-3.74-1.968
		c-0.73-0.201-1.47-0.515-2.188-0.56c-0.716-0.037-1.383,0.104-1.933,0.315c-0.155,0.053-0.278,0.124-0.415,0.184
		c0.094-0.212,0.182-0.434,0.232-0.639l0.25-0.885c0.338-1.195,0.686-2.411,1.037-3.647c1.009-3.583,2.068-7.337,3.142-11.137
		c1.429-0.077,2.78-0.326,4.029-0.695c2.878-0.851,6.517-3.993,10.067-9.537c7.853-2.845,19.347-7.826,26.624-16.843
		c1.271-1.45,2.504-3.019,3.668-4.718c10.479-15.32,6.619-31.623,6.619-31.623C216.194,79.268,203.891,59.216,203.891,59.216z
		 M146.318,180.732c-0.908-0.126-1.823-0.372-2.681-0.363c-0.86,0.009-1.65,0.195-2.313,0.428c-0.109,0.034-0.19,0.082-0.292,0.119
		c0.062-0.214,0.107-0.421,0.135-0.604c0.099-0.227,0.187-0.46,0.249-0.708c0.043-0.156,0.09-0.312,0.135-0.469
		c0.393,0.033,0.784,0.062,1.189,0.084l0.429,0.021l0.106,0.008l0.165-0.005l0.21-0.006c0.237,0.011,0.678-0.057,1.034-0.138
		c0.524-0.124,1.018-0.379,1.478-0.688c0.106,0.152,0.225,0.312,0.298,0.487c0.267,0.577,0.529,1.157,0.729,1.591
		c0.072,0.16,0.122,0.307,0.167,0.438C147.011,180.854,146.664,180.783,146.318,180.732z M147.437,170.217
		c-0.314,1.25-0.624,2.476-0.927,3.677l-0.226,0.896c-0.059,0.258-0.11,0.424-0.218,0.662c-0.201,0.439-0.472,0.842-0.788,1.15
		c-0.322,0.311-0.688,0.537-1.101,0.662c-0.198,0.045-0.315,0.106-0.646,0.126l-0.207,0.017l-0.055,0.01c0.1-0.003-0.001,0,0.007,0
		l-0.1,0.004l-0.407,0.01c-0.252,0.002-0.484-0.01-0.731-0.01c1.439-5.094,2.971-10.513,4.504-15.928
		c0.234-0.833,0.455-1.662,0.684-2.488c0.992,0.296,1.963,0.494,2.908,0.602C149.212,163.222,148.303,166.799,147.437,170.217z"/>
</g>
<g id="Calque_5" display="none">
	<g display="inline">
		<g transform="translate(0,-952.36218)">
			<path fill="#CC3019" d="M143.355,974.376L35.046,1038.53l-5.283,42.059l113.592-53.97V974.376L143.355,974.376z M148.639,974.376
				v52.243l113.598,53.97l-5.283-42.059l-34.344-20.371v-19.057h-21.134v6.571L148.639,974.376z M201.476,985.959v7.886h21.134
				v-7.886H201.476z M145.998,1030.644l-95.099,44.687v113.031h15.85v-65.716h-5.284v-10.515h58.114v10.515h-5.281v65.716h126.805
				v-113.03L145.998,1030.644z M106.371,1059.559c28.417,0,55.401,0,79.254,0c0,13.256,0,25.049,0,36.799
				c-5.476,0-10.952,0-16.429,0c1.867,3.219-0.975,7.979-4.705,7.889h-36.985c-3.757,0.145-6.665-4.646-4.789-7.889
				c-5.447,0-10.896,0-16.346,0C106.371,1083.102,106.371,1071.311,106.371,1059.559z M132.788,1064.815v10.516h10.567v-10.516
				H132.788z M148.639,1064.815v10.516h10.567v-10.516H148.639z M112.975,1066.13c4.816,0,8.879,0,13.209,0
				c0,8.077,0,16.447,0,23.658c-4.541,0-9.294,0-13.209,0C112.975,1081.438,112.975,1073.598,112.975,1066.13z M165.81,1066.13
				c4.542,0,9.296,0,13.21,0c0,8.695,0,16.326,0,23.658c-4.816,0-8.879,0-13.21,0C165.81,1081.711,165.81,1073.341,165.81,1066.13z
				 M115.618,1068.759v7.887h7.925v-7.887H115.618z M168.453,1068.759v7.887h7.925v-7.887H168.453z M115.618,1079.273v7.886h7.925
				v-7.886H115.618z M168.453,1079.273v7.886h7.925v-7.886H168.453z M132.788,1080.589v10.513h10.567v-10.513H132.788z
				 M148.639,1080.589v10.513h10.567v-10.513H148.639z M132.788,1122.645c13.325,0,25.174,0,36.986,0c0,13.257,0,25.049,0,36.802
				c1.396-0.025,2.68,1.238,2.68,2.628c0,1.389-1.284,2.648-2.68,2.629h-36.986c-1.382,0.129-2.759-1.007-2.888-2.382
				c0.247-2.909,2.888-2.875,2.888-2.875C132.788,1146.755,132.788,1133.563,132.788,1122.645z M185.625,1122.645
				c13.323,0,25.175,0,36.985,0c0,13.257,0,25.049,0,36.802c1.396-0.025,2.681,1.238,2.681,2.628c0,1.389-1.284,2.648-2.681,2.629
				h-36.985c-1.383,0.129-2.759-1.007-2.89-2.382c0.25-2.909,2.89-2.909,2.89-2.875
				C185.625,1146.755,185.625,1133.563,185.625,1122.645z M138.072,1127.903v10.514h10.567v-10.514H138.072z M153.923,1127.903
				v10.514h10.567v-10.514H153.923z M190.909,1127.903v10.514h10.567v-10.514H190.909z M206.759,1127.903v10.514h10.566v-10.514
				H206.759z M138.072,1143.675v10.515h10.567v-10.515H138.072z M153.923,1143.675v10.515h10.567v-10.515H153.923z
				 M190.909,1143.675v10.515h10.567v-10.515H190.909z M206.759,1143.675v10.515h10.566v-10.515H206.759z M82.599,1151.56
				c1.459,0,2.643,1.177,2.643,2.629c0,1.453-1.183,2.628-2.643,2.628c-1.459,0-2.642-1.176-2.642-2.628
				S81.14,1151.56,82.599,1151.56z"/>
		</g>
		<g id="fenetre_bas_gauche_3_">
			<rect x="138.159" y="191.264" fill="#FCC759" width="10.741" height="11.396"/>
			<rect x="153.825" y="191.089" fill="#FCC759" width="10.741" height="11.397"/>
			<rect x="138.079" y="175.449" fill="#FCC759" width="10.74" height="11.021"/>
			<rect x="153.918" y="175.28" fill="#FCC759" width="10.74" height="11.021"/>
		</g>
		<g id="fenetre_bas_droite_2_">
			<rect x="190.892" y="191.258" fill="#FCC759" width="10.74" height="11.396"/>
			<rect x="206.732" y="191.084" fill="#FCC759" width="10.74" height="11.396"/>
			<rect x="190.811" y="175.443" fill="#FCC759" width="10.741" height="11.021"/>
			<rect x="206.65" y="175.274" fill="#FCC759" width="10.741" height="11.021"/>
		</g>
		<g id="fenetre_haut_3_">
			<rect x="132.788" y="128.232" fill="#FCC727" width="10.741" height="11.396"/>
			<rect x="148.628" y="128.058" fill="#FCC759" width="10.741" height="11.397"/>
			<rect x="132.708" y="112.418" fill="#FCC759" width="10.741" height="11.021"/>
			<rect x="148.547" y="112.249" fill="#FCC759" width="10.74" height="11.022"/>
			<g>
				<path fill="#FCC759" d="M112.972,113.768v23.658h13.212v-23.658H112.972z M123.234,134.444h-7.312v-7.269h7.312V134.444z
					 M123.234,123.974h-7.312v-7.269h7.312V123.974z"/>
			</g>
			<g>
				<path fill="#FCC759" d="M165.79,113.768v23.658H179v-23.658H165.79z M176.05,134.444h-7.311v-7.269h7.311V134.444z
					 M176.05,123.974h-7.311v-7.269h7.311V123.974z"/>
			</g>
		</g>
	</g>
</g>
</svg>
