<?xml version="1.0" encoding="utf-8"?>
<!-- Generator: Adobe Illustrator 16.0.0, SVG Export Plug-In . SVG Version: 6.00 Build 0)  -->
<!DOCTYPE svg PUBLIC "-//W3C//DTD SVG 1.1//EN" "http://www.w3.org/Graphics/SVG/1.1/DTD/svg11.dtd">
<svg version="1.1" id="Calque_1" xmlns="http://www.w3.org/2000/svg" xmlns:xlink="http://www.w3.org/1999/xlink" x="0px" y="0px"
	 width="88.67px" height="78.818px" viewBox="0 0 88.67 78.818" enable-background="new 0 0 88.67 78.818" xml:space="preserve">
<g>
	<path fill="#FFFFFF" d="M0.845,7.625v51.547c0,0.503,0.065,0.947,0.2,1.334c0.135,0.386,0.36,0.695,0.68,0.931
		c0.32,0.235,0.596,0.428,0.831,0.579c0.236,0.152,0.628,0.251,1.183,0.301c0.552,0.051,0.931,0.086,1.134,0.104
		c0.2,0.014,0.628,0.014,1.283,0c0.653-0.018,1.031-0.026,1.132-0.026c0,3.558,1.259,6.595,3.775,9.111
		c2.518,2.516,5.553,3.774,9.11,3.774c3.557,0,6.595-1.259,9.112-3.774c2.515-2.518,3.773-5.556,3.773-9.111h19.33
		c0,3.558,1.258,6.595,3.775,9.111c2.516,2.516,5.555,3.774,9.111,3.774s6.594-1.259,9.111-3.774
		c2.516-2.518,3.773-5.556,3.773-9.111h3.223c0.1,0,0.479,0.009,1.133,0.026c0.654,0.014,1.084,0.014,1.283,0
		c0.201-0.018,0.58-0.053,1.133-0.104c0.555-0.05,0.949-0.148,1.184-0.301c0.234-0.151,0.512-0.344,0.83-0.579
		s0.547-0.545,0.678-0.931c0.137-0.387,0.203-0.831,0.203-1.334c0-0.873-0.32-1.629-0.957-2.266
		c-0.639-0.637-1.391-0.956-2.264-0.956V39.844c0-0.271,0.008-0.857,0.025-1.763c0.016-0.905,0.016-1.544,0-1.913
		c-0.018-0.371-0.059-0.949-0.125-1.736c-0.068-0.791-0.176-1.41-0.328-1.864c-0.152-0.452-0.387-0.966-0.703-1.534
		c-0.32-0.571-0.699-1.074-1.135-1.511l-9.967-9.968c-0.639-0.638-1.486-1.174-2.543-1.61c-1.057-0.435-2.039-0.653-2.945-0.653
		h-8.053V7.625c0-0.871-0.32-1.627-0.957-2.265c-0.635-0.637-1.393-0.957-2.264-0.957H4.064c-0.871,0-1.628,0.32-2.266,0.957
		C1.162,5.999,0.843,6.754,0.845,7.625z M58.832,62.395c0-1.744,0.639-3.258,1.914-4.531c1.275-1.275,2.783-1.913,4.529-1.913
		s3.256,0.638,4.531,1.913c1.273,1.273,1.914,2.787,1.914,4.531c0,1.742-0.639,3.256-1.914,4.529
		c-1.275,1.275-2.785,1.913-4.531,1.913s-3.254-0.64-4.529-1.913S58.832,64.137,58.832,62.395z M58.832,36.621V23.734h7.955
		c0.436,0,0.805,0.15,1.107,0.453l9.814,9.816c0.303,0.303,0.453,0.67,0.453,1.107v1.51H58.832L58.832,36.621z M13.731,62.395
		c0-1.744,0.638-3.255,1.912-4.531c1.274-1.275,2.785-1.913,4.53-1.913c1.744,0,3.258,0.638,4.531,1.913
		c1.273,1.273,1.912,2.787,1.912,4.531c0,1.742-0.639,3.256-1.912,4.529c-1.273,1.275-2.787,1.913-4.531,1.913
		c-1.745,0-3.256-0.64-4.53-1.913C14.367,65.65,13.731,64.137,13.731,62.395z"/>
</g>
</svg>
