<?xml version="1.0" encoding="utf-8"?>
<!-- Generator: Adobe Illustrator 16.0.0, SVG Export Plug-In . SVG Version: 6.00 Build 0)  -->
<!DOCTYPE svg PUBLIC "-//W3C//DTD SVG 1.1//EN" "http://www.w3.org/Graphics/SVG/1.1/DTD/svg11.dtd">
<svg version="1.1" id="Calque_1" xmlns="http://www.w3.org/2000/svg" xmlns:xlink="http://www.w3.org/1999/xlink" x="0px" y="0px"
	 width="54.885px" height="54.885px" viewBox="0 0 54.885 54.885" enable-background="new 0 0 54.885 54.885" xml:space="preserve">
<g>
	<path fill="#FFFFFF" d="M0.208,0.207v54.471h54.469V0.207H0.208z M40.64,20.669c0.014,0.293,0.021,0.59,0.021,0.885
		c0,8.997-6.842,19.375-19.375,19.375c-3.846,0-7.422-1.125-10.438-3.059c0.533,0.059,1.074,0.094,1.625,0.094
		c3.191,0,6.125-1.086,8.455-2.912c-2.979-0.057-5.494-2.025-6.359-4.727c0.416,0.08,0.842,0.117,1.279,0.117
		c0.623,0,1.225-0.082,1.795-0.242c-3.111-0.625-5.463-3.375-5.463-6.676c0-0.029,0-0.057,0-0.086
		c0.922,0.512,1.969,0.816,3.086,0.852c-1.824-1.219-3.027-3.305-3.027-5.672c0-1.244,0.336-2.416,0.922-3.42
		c3.357,4.119,8.377,6.834,14.035,7.115c-0.113-0.5-0.178-1.02-0.178-1.551c0-3.76,3.051-6.809,6.814-6.809
		c1.949,0,3.723,0.824,4.967,2.15c1.549-0.305,3.008-0.875,4.324-1.652c-0.508,1.592-1.59,2.926-2.992,3.766
		c1.377-0.164,2.689-0.531,3.91-1.07C43.128,18.515,41.974,19.712,40.64,20.669z"/>
</g>
</svg>
