<?xml version="1.0" encoding="utf-8"?>
<!-- Generator: Adobe Illustrator 16.0.0, SVG Export Plug-In . SVG Version: 6.00 Build 0)  -->
<!DOCTYPE svg PUBLIC "-//W3C//DTD SVG 1.1//EN" "http://www.w3.org/Graphics/SVG/1.1/DTD/svg11.dtd">
<svg version="1.1" id="Capa_1" xmlns="http://www.w3.org/2000/svg" xmlns:xlink="http://www.w3.org/1999/xlink" x="0px" y="0px"
	 width="435.838px" height="355.136px" viewBox="29.854 68.609 435.838 355.136"
	 enable-background="new 29.854 68.609 435.838 355.136" xml:space="preserve">
<g>
	<g>
		<path fill="#AF1D1F" d="M247.771,85.134c-91.963,0-166.515,74.555-166.515,166.518c0,91.961,74.552,166.52,166.515,166.52
			c91.964,0,166.521-74.559,166.521-166.52C414.292,159.687,339.735,85.134,247.771,85.134z M248.279,330.212v-0.002h-1.017h-71.129
			c0-52.017,45.685-52.004,55.823-65.606l1.16-6.202c-14.244-7.219-24.298-24.621-24.298-44.974
			c0-26.815,17.442-48.556,38.953-48.556c21.512,0,38.954,21.741,38.954,48.556c0,20.18-9.877,37.474-23.93,44.806l1.321,7.049
			c11.122,12.941,55.287,13.785,55.287,64.93H248.279z"/>
	</g>
</g>
</svg>
