<?xml version="1.0" encoding="utf-8"?>
<!-- Generator: Adobe Illustrator 16.0.0, SVG Export Plug-In . SVG Version: 6.00 Build 0)  -->
<!DOCTYPE svg PUBLIC "-//W3C//DTD SVG 1.1//EN" "http://www.w3.org/Graphics/SVG/1.1/DTD/svg11.dtd">
<svg version="1.1" id="Calque_1" xmlns="http://www.w3.org/2000/svg" xmlns:xlink="http://www.w3.org/1999/xlink" x="0px" y="0px"
	 width="54.885px" height="54.885px" viewBox="0 0 54.885 54.885" enable-background="new 0 0 54.885 54.885" xml:space="preserve">
<g>
	<g>
		<path fill="#FFFFFF" d="M24.686,40.435c-0.492,0.694-0.956,1.035-1.4,1.035c-0.295,0-0.464-0.174-0.518-0.517
			c-0.021-0.072-0.021-0.342-0.021-0.86V31.1h-2.213v9.658c0,0.862,0.075,1.447,0.196,1.816c0.222,0.619,0.713,0.909,1.426,0.909
			c0.813,0,1.649-0.493,2.528-1.501v1.333H26.9V31.1h-2.215L24.686,40.435L24.686,40.435z"/>
		<path fill="#FFFFFF" d="M33.316,30.951c-0.812,0-1.571,0.444-2.288,1.326v-5.354h-2.212v16.393h2.212v-1.185
			c0.74,0.916,1.502,1.352,2.288,1.352c0.881,0,1.474-0.464,1.768-1.373c0.148-0.517,0.226-1.331,0.226-2.461v-4.864
			c0-1.158-0.076-1.965-0.226-2.456C34.789,31.414,34.196,30.951,33.316,30.951z M33.095,39.822c0,1.104-0.323,1.648-0.961,1.648
			c-0.365,0-0.735-0.174-1.105-0.544v-7.445c0.37-0.365,0.739-0.539,1.105-0.539c0.639,0,0.961,0.564,0.961,1.667V39.822z"/>
		<polygon fill="#FFFFFF" points="12.498,29.228 15.1,29.228 15.1,43.314 17.562,43.314 17.562,29.228 20.213,29.228 20.213,26.919 
			12.498,26.919 		"/>
		<path fill="#FFFFFF" d="M26.586,19.814c0.72,0,1.067-0.572,1.067-1.713v-5.193c0-1.142-0.347-1.71-1.067-1.71
			c-0.721,0-1.068,0.569-1.068,1.71v5.193C25.518,19.243,25.865,19.814,26.586,19.814z"/>
		<path fill="#FFFFFF" d="M40.365,30.951c-1.131,0-2.009,0.415-2.651,1.252c-0.47,0.617-0.685,1.573-0.685,2.878v4.277
			c0,1.298,0.242,2.261,0.712,2.873c0.638,0.834,1.521,1.252,2.677,1.252c1.157,0,2.063-0.438,2.677-1.326
			c0.269-0.39,0.443-0.835,0.517-1.325c0.021-0.222,0.048-0.713,0.048-1.426v-0.324h-2.258c0,0.888-0.029,1.379-0.05,1.5
			c-0.126,0.591-0.443,0.887-0.988,0.887c-0.759,0-1.131-0.564-1.131-1.694V37.61h4.427v-2.529c0-1.306-0.222-2.261-0.685-2.878
			C42.356,31.366,41.475,30.951,40.365,30.951z M41.448,35.767h-2.214v-1.13c0-1.131,0.371-1.694,1.111-1.694
			c0.733,0,1.103,0.564,1.103,1.694V35.767L41.448,35.767z"/>
		<path fill="#FFFFFF" d="M53.17-1.273H2.987C1.337-1.273,0,0.064,0,1.714v50.184c0,1.649,1.337,2.987,2.987,2.987H53.17
			c1.65,0,2.987-1.338,2.987-2.987V1.714C56.158,0.064,54.82-1.273,53.17-1.273z M31.729,9.333h2.23v9.089
			c0,0.523,0,0.795,0.028,0.87c0.049,0.345,0.224,0.523,0.523,0.523c0.447,0,0.916-0.347,1.412-1.047V9.333h2.237v12.344h-2.237
			v-1.346c-0.889,1.02-1.739,1.517-2.554,1.517c-0.721,0-1.217-0.293-1.44-0.918c-0.124-0.374-0.199-0.963-0.199-1.835V9.333z
			 M23.282,13.359c0-1.319,0.224-2.285,0.7-2.909c0.62-0.844,1.489-1.266,2.604-1.266c1.119,0,1.99,0.422,2.609,1.266
			c0.469,0.624,0.693,1.589,0.693,2.908v4.322c0,1.312-0.224,2.286-0.693,2.903c-0.619,0.842-1.49,1.265-2.609,1.265
			c-1.115,0-1.985-0.422-2.604-1.265c-0.476-0.617-0.7-1.591-0.7-2.903V13.359z M17.3,5.113l1.76,6.505l1.692-6.505h2.508
			l-2.983,9.855v6.708h-2.479v-6.708c-0.224-1.188-0.722-2.929-1.517-5.24c-0.523-1.537-1.067-3.08-1.59-4.616H17.3L17.3,5.113z
			 M45.75,44.393c-0.449,1.947-2.042,3.384-3.959,3.599c-4.542,0.508-9.137,0.51-13.714,0.508c-4.578,0.002-9.174,0-13.714-0.508
			c-1.918-0.215-3.51-1.651-3.958-3.599c-0.638-2.773-0.638-5.801-0.638-8.657c0-2.855,0.008-5.885,0.646-8.658
			c0.448-1.947,2.041-3.384,3.958-3.599c4.54-0.507,9.138-0.509,13.713-0.507c4.577-0.002,9.173,0,13.714,0.507
			c1.917,0.214,3.511,1.651,3.959,3.599c0.639,2.774,0.634,5.802,0.634,8.658C46.391,38.592,46.388,41.619,45.75,44.393z"/>
	</g>
</g>
</svg>
