<?xml version="1.0" encoding="utf-8"?>
<!-- Generator: Adobe Illustrator 16.0.0, SVG Export Plug-In . SVG Version: 6.00 Build 0)  -->
<!DOCTYPE svg PUBLIC "-//W3C//DTD SVG 1.1//EN" "http://www.w3.org/Graphics/SVG/1.1/DTD/svg11.dtd">
<svg version="1.1" id="Calque_1" xmlns="http://www.w3.org/2000/svg" xmlns:xlink="http://www.w3.org/1999/xlink" x="0px" y="0px"
	 width="552px" height="264.5px" viewBox="29.672 137.672 552 264.5" enable-background="new 29.672 137.672 552 264.5"
	 xml:space="preserve">
<g display="none">
	<rect x="-692.537" y="-191.045" display="inline" fill="none" width="3429.254" height="1814.926"/>
	<path display="inline" d="M897.911,14.328H382.09c-26.374,0-47.761,21.378-47.761,47.761v439.403v68.271v8.147
		c0,26.384,21.387,47.762,47.761,47.762h8.14h499.554h8.129c26.374,0,47.762-21.378,47.762-47.762v-8.147v-240.21V62.089
		C945.673,35.706,924.285,14.328,897.911,14.328z M926.567,334.93L558.739,438.382l13.011,97.92
		c2.33,17.633-10.029,34.006-27.559,36.508c-1.557,0.211-3.085,0.325-4.595,0.325c-16.076,0-29.852-12.026-32.038-27.959
		l-8.606-64.976l-57.887,70.268l-0.506,0.468c-6.009,5.474-13.822,8.492-21.999,8.492c-8.826,0-17.014-3.431-23.061-9.677
		c-5.816-5.979-8.884-13.87-8.625-22.199c0.258-8.264,3.726-15.952,9.8-21.723l23.489-28.476l-66.73,18.771V62.089
		c0-15.799,12.855-28.655,28.655-28.655H897.91c15.799,0,28.656,12.856,28.656,28.655L926.567,334.93L926.567,334.93z"/>
	<g display="inline">
		<path d="M888.358,282.135v55.04H680.76v-59.874c-0.124-18.273,2.254-32.563,7.146-42.86c5.788-12.236,16.096-20.986,30.893-26.27
			c12.877-4.251,37.405-10.611,73.581-19.124c13.259-3.074,21.435-7.011,24.529-11.769c2.445-3.467,3.668-10.364,3.668-20.661
			c0-12.103-1.747-19.896-5.216-23.364c-3.343-3.354-7.919-5.226-13.717-5.598c-6.047-0.525-13.908-0.784-23.556-0.784
			c-9.781,0-16.603,1.156-20.472,3.487c-6.181,3.601-9.532,12.035-10.039,25.294c-0.134,2.579-0.258,7.068-0.392,13.507h-65.462
			v-16.793c0-17.385,1.9-30.872,5.703-40.463c3.792-9.591,10.459-17.729,19.981-24.425c10.433-7.346,22.593-11.845,36.5-13.526
			c12.352-1.548,25.619-2.312,39.775-2.312c30.252,0,52.012,2.837,65.271,8.501c17.51,7.346,28.896,19.889,34.179,37.654
			c3.085,10.164,4.633,23.623,4.633,40.358c0,24.205-4.375,42.029-13.125,53.502c-6.181,8.234-16.162,14.873-29.937,19.888
			c-13.65,5.016-37.531,11.388-71.643,19.114c-11.711,2.837-18.99,6.181-21.827,10.049c-2.703,3.61-4.06,8.895-4.06,15.828v5.607
			h141.182L888.358,282.135L888.358,282.135z"/>
	</g>
</g>
<g display="none">
	<path display="inline" d="M897.911,14.328H382.09c-26.374,0-47.761,21.378-47.761,47.761v439.403v68.271v8.147
		c0,26.384,21.387,47.762,47.761,47.762h8.14h499.554h8.129c26.374,0,47.762-21.378,47.762-47.762v-8.147v-240.21V62.089
		C945.673,35.706,924.285,14.328,897.911,14.328z M926.567,334.93L558.739,438.382l13.011,97.92
		c2.33,17.633-10.029,34.006-27.559,36.508c-1.557,0.211-3.085,0.325-4.595,0.325c-16.076,0-29.852-12.026-32.038-27.959
		l-8.606-64.976l-57.887,70.268l-0.506,0.468c-6.009,5.474-13.822,8.492-21.999,8.492c-8.826,0-17.014-3.431-23.061-9.677
		c-5.816-5.979-8.884-13.87-8.625-22.199c0.258-8.264,3.726-15.952,9.8-21.723l23.489-28.476l-66.73,18.771V62.089
		c0-15.799,12.855-28.655,28.655-28.655H897.91c15.799,0,28.656,12.856,28.656,28.655L926.567,334.93L926.567,334.93z"/>
	<path display="inline" d="M902.687,162.388c0,5.271-4.28,9.553-9.553,9.553h-95.522c-5.271,0-9.552-4.28-9.552-9.553V66.865
		c0-5.282,4.279-9.552,9.552-9.552h95.522c5.271,0,9.553,4.27,9.553,9.552V162.388z"/>
</g>
<g>
	<g>
		<linearGradient id="SVGID_1_" gradientUnits="userSpaceOnUse" x1="305.9836" y1="337.2771" x2="306.9836" y2="177.2771">
			<stop  offset="0" style="stop-color:#CDDC39"/>
			<stop  offset="0.09" style="stop-color:#CED738"/>
			<stop  offset="0.2039" style="stop-color:#D2C737"/>
			<stop  offset="0.3307" style="stop-color:#D9AD34"/>
			<stop  offset="0.4658" style="stop-color:#E28930"/>
			<stop  offset="0.5347" style="stop-color:#E8742E"/>
			<stop  offset="0.6223" style="stop-color:#E96F2D"/>
			<stop  offset="0.7321" style="stop-color:#EE5F2C"/>
			<stop  offset="0.8536" style="stop-color:#F44629"/>
			<stop  offset="0.9829" style="stop-color:#FE2226"/>
			<stop  offset="1" style="stop-color:#FF1D25"/>
		</linearGradient>
		<rect x="29.672" y="372.172" fill="url(#SVGID_1_)" width="552" height="30"/>
	</g>
	<g>
		<linearGradient id="SVGID_2_" gradientUnits="userSpaceOnUse" x1="305.6174" y1="337.2751" x2="306.6174" y2="177.2751">
			<stop  offset="0" style="stop-color:#CDDC39"/>
			<stop  offset="0.09" style="stop-color:#CED738"/>
			<stop  offset="0.2039" style="stop-color:#D2C737"/>
			<stop  offset="0.3307" style="stop-color:#D9AD34"/>
			<stop  offset="0.4658" style="stop-color:#E28930"/>
			<stop  offset="0.5347" style="stop-color:#E8742E"/>
			<stop  offset="0.6223" style="stop-color:#E96F2D"/>
			<stop  offset="0.7321" style="stop-color:#EE5F2C"/>
			<stop  offset="0.8536" style="stop-color:#F44629"/>
			<stop  offset="0.9829" style="stop-color:#FE2226"/>
			<stop  offset="1" style="stop-color:#FF1D25"/>
		</linearGradient>
		<rect x="56.172" y="313.547" fill="url(#SVGID_2_)" width="499" height="30"/>
	</g>
	<g>
		<linearGradient id="SVGID_3_" gradientUnits="userSpaceOnUse" x1="305.2512" y1="337.2722" x2="306.2512" y2="177.2722">
			<stop  offset="0" style="stop-color:#CDDC39"/>
			<stop  offset="0.09" style="stop-color:#CED738"/>
			<stop  offset="0.2039" style="stop-color:#D2C737"/>
			<stop  offset="0.3307" style="stop-color:#D9AD34"/>
			<stop  offset="0.4658" style="stop-color:#E28930"/>
			<stop  offset="0.5347" style="stop-color:#E8742E"/>
			<stop  offset="0.6223" style="stop-color:#E96F2D"/>
			<stop  offset="0.7321" style="stop-color:#EE5F2C"/>
			<stop  offset="0.8536" style="stop-color:#F44629"/>
			<stop  offset="0.9829" style="stop-color:#FE2226"/>
			<stop  offset="1" style="stop-color:#FF1D25"/>
		</linearGradient>
		<rect x="71.672" y="254.922" fill="url(#SVGID_3_)" width="468" height="30"/>
	</g>
	<g>
		<linearGradient id="SVGID_4_" gradientUnits="userSpaceOnUse" x1="304.885" y1="337.2703" x2="305.885" y2="177.2703">
			<stop  offset="0" style="stop-color:#CDDC39"/>
			<stop  offset="0.09" style="stop-color:#CED738"/>
			<stop  offset="0.2039" style="stop-color:#D2C737"/>
			<stop  offset="0.3307" style="stop-color:#D9AD34"/>
			<stop  offset="0.4658" style="stop-color:#E28930"/>
			<stop  offset="0.5347" style="stop-color:#E8742E"/>
			<stop  offset="0.6223" style="stop-color:#E96F2D"/>
			<stop  offset="0.7321" style="stop-color:#EE5F2C"/>
			<stop  offset="0.8536" style="stop-color:#F44629"/>
			<stop  offset="0.9829" style="stop-color:#FE2226"/>
			<stop  offset="1" style="stop-color:#FF1D25"/>
		</linearGradient>
		<rect x="89.422" y="196.297" fill="url(#SVGID_4_)" width="432.5" height="30"/>
	</g>
	<g>
		<linearGradient id="SVGID_5_" gradientUnits="userSpaceOnUse" x1="304.5217" y1="337.2683" x2="305.5217" y2="177.2683">
			<stop  offset="0" style="stop-color:#CDDC39"/>
			<stop  offset="0.09" style="stop-color:#CED738"/>
			<stop  offset="0.2039" style="stop-color:#D2C737"/>
			<stop  offset="0.3307" style="stop-color:#D9AD34"/>
			<stop  offset="0.4658" style="stop-color:#E28930"/>
			<stop  offset="0.5347" style="stop-color:#E8742E"/>
			<stop  offset="0.6223" style="stop-color:#E96F2D"/>
			<stop  offset="0.7321" style="stop-color:#EE5F2C"/>
			<stop  offset="0.8536" style="stop-color:#F44629"/>
			<stop  offset="0.9829" style="stop-color:#FE2226"/>
			<stop  offset="1" style="stop-color:#FF1D25"/>
		</linearGradient>
		<rect x="106.422" y="138.172" fill="url(#SVGID_5_)" width="398.5" height="30"/>
	</g>
</g>
</svg>
