<?xml version="1.0" encoding="utf-8"?>
<!-- Generator: Adobe Illustrator 16.0.0, SVG Export Plug-In . SVG Version: 6.00 Build 0)  -->
<!DOCTYPE svg PUBLIC "-//W3C//DTD SVG 1.0//EN" "http://www.w3.org/TR/2001/REC-SVG-20010904/DTD/svg10.dtd">
<svg version="1.0" id="Calque_1" xmlns="http://www.w3.org/2000/svg" xmlns:xlink="http://www.w3.org/1999/xlink" x="0px" y="0px"
	 width="57.001px" height="57.001px" viewBox="0 0 57.001 57.001" enable-background="new 0 0 57.001 57.001" xml:space="preserve">
<g>
	<g>
		<path fill-rule="evenodd" clip-rule="evenodd" fill="#C63E54" d="M52.102,25.603c0,0.922,0,1.844,0,2.766
			c-0.028,0.132-0.07,0.264-0.079,0.397c-0.229,3.282-1.102,6.401-2.693,9.286c-3.672,6.648-9.248,10.717-16.717,12.153
			c-0.901,0.173-1.82,0.25-2.729,0.372c-0.922,0-1.844,0-2.766,0c-0.119-0.026-0.236-0.068-0.356-0.075
			c-2.88-0.192-5.643-0.877-8.23-2.145c-7.267-3.562-11.705-9.322-13.26-17.273c-0.176-0.894-0.25-1.807-0.372-2.715
			c0-0.922,0-1.844,0-2.766c0.027-0.133,0.069-0.264,0.079-0.397c0.263-3.677,1.317-7.115,3.237-10.256
			c3.742-6.124,9.151-9.879,16.22-11.197c0.886-0.166,1.788-0.247,2.683-0.368c0.922,0,1.844,0,2.766,0
			c0.118,0.026,0.235,0.068,0.354,0.076c3.291,0.229,6.411,1.092,9.3,2.68c6.67,3.669,10.752,9.251,12.192,16.738
			C51.902,23.777,51.98,24.694,52.102,25.603z M32.63,21.348c0.182,0.167,0.283,0.254,0.377,0.347
			c1.586,1.584,3.163,3.18,4.767,4.748c0.366,0.36,0.792,0.69,1.245,0.929c2.313,1.224,5.01-0.43,4.968-3.034
			c-0.018-1.123-0.536-2.019-1.316-2.797c-3.589-3.58-7.17-7.167-10.756-10.75c-0.163-0.162-0.335-0.316-0.512-0.463
			c-1.472-1.21-3.457-1.164-4.803,0.171c-3.719,3.688-7.418,7.396-11.122,11.1c-0.163,0.162-0.307,0.344-0.446,0.527
			c-1.538,2.023-0.534,4.902,1.937,5.454c1.371,0.306,2.531-0.184,3.507-1.165c1.582-1.59,3.17-3.173,4.756-4.759
			c0.114-0.114,0.237-0.22,0.439-0.407c0,0.28,0,0.457,0,0.634c0,6.159-0.001,12.309,0.002,18.468c0,0.353,0.014,0.706,0.053,1.057
			c0.15,1.337,0.86,2.292,2.084,2.809c1.227,0.519,2.409,0.349,3.473-0.468c0.993-0.763,1.35-1.82,1.35-3.034
			c-0.002-6.236-0.002-12.462-0.002-18.699C32.63,21.833,32.63,21.649,32.63,21.348z"/>
		<path fill-rule="evenodd" clip-rule="evenodd" fill="#FFFFFF" d="M52.102,25.603c-0.122-0.909-0.2-1.826-0.372-2.724
			C50.29,15.392,46.208,9.81,39.538,6.141c-2.889-1.588-6.009-2.451-9.3-2.68c-0.119-0.008-0.236-0.05-0.354-0.076
			c7.406,0,14.813,0,22.219,0C52.102,10.791,52.102,18.197,52.102,25.603z"/>
		<path fill-rule="evenodd" clip-rule="evenodd" fill="#FFFFFF" d="M27.118,3.385c-0.895,0.121-1.797,0.202-2.683,0.368
			C17.366,5.071,11.957,8.826,8.215,14.95c-1.919,3.141-2.974,6.579-3.237,10.256c-0.01,0.133-0.052,0.265-0.079,0.397
			c0-7.406,0-14.813,0-22.218C12.305,3.385,19.711,3.385,27.118,3.385z"/>
		<path fill-rule="evenodd" clip-rule="evenodd" fill="#FFFFFF" d="M4.899,28.369c0.122,0.908,0.196,1.821,0.372,2.715
			c1.555,7.951,5.993,13.712,13.26,17.273c2.588,1.268,5.35,1.952,8.23,2.145c0.12,0.007,0.237,0.049,0.356,0.075
			c-7.406,0-14.813,0-22.218,0C4.899,43.171,4.899,35.765,4.899,28.369z"/>
		<path fill-rule="evenodd" clip-rule="evenodd" fill="#FFFFFF" d="M29.883,50.577c0.909-0.122,1.828-0.199,2.729-0.372
			c7.469-1.437,13.045-5.505,16.717-12.153c1.592-2.885,2.464-6.004,2.693-9.286c0.009-0.133,0.051-0.265,0.079-0.397
			c0,7.396,0,14.802,0,22.208C44.696,50.577,37.29,50.577,29.883,50.577z"/>
		<path fill-rule="evenodd" clip-rule="evenodd" fill="#FFFFFF" d="M32.63,21.348c0,0.301,0,0.485,0,0.668
			c0,6.236,0,12.462,0.002,18.699c0,1.214-0.356,2.271-1.35,3.034c-1.064,0.816-2.246,0.986-3.473,0.468
			c-1.224-0.517-1.934-1.472-2.084-2.809c-0.039-0.351-0.053-0.704-0.053-1.057c-0.003-6.159-0.002-12.31-0.002-18.468
			c0-0.177,0-0.354,0-0.634c-0.202,0.187-0.325,0.292-0.439,0.407c-1.586,1.585-3.174,3.169-4.756,4.759
			c-0.976,0.981-2.136,1.47-3.507,1.165c-2.47-0.551-3.475-3.43-1.937-5.454c0.139-0.183,0.284-0.365,0.446-0.527
			c3.704-3.704,7.402-7.412,11.122-11.1c1.346-1.335,3.331-1.381,4.803-0.171c0.177,0.146,0.349,0.301,0.512,0.463
			c3.586,3.583,7.167,7.17,10.756,10.75c0.78,0.778,1.299,1.675,1.316,2.797c0.042,2.604-2.655,4.258-4.968,3.034
			c-0.453-0.239-0.879-0.569-1.245-0.929c-1.604-1.568-3.181-3.164-4.767-4.748C32.914,21.602,32.812,21.515,32.63,21.348z"/>
	</g>
</g>
</svg>
