<?xml version="1.0" encoding="utf-8"?>
<!-- Generator: Adobe Illustrator 16.0.0, SVG Export Plug-In . SVG Version: 6.00 Build 0)  -->
<!DOCTYPE svg PUBLIC "-//W3C//DTD SVG 1.1//EN" "http://www.w3.org/Graphics/SVG/1.1/DTD/svg11.dtd">
<svg version="1.1" id="Calque_1" xmlns="http://www.w3.org/2000/svg" xmlns:xlink="http://www.w3.org/1999/xlink" x="0px" y="0px"
	 width="149px" height="657px" viewBox="504.5 76.5 149 657" enable-background="new 504.5 76.5 149 657" xml:space="preserve">
<rect x="568.5" y="-160.5" fill="#FFFFFF" width="66" height="10"/>
<rect x="530.5" y="-708.5" fill="#FFFFFF" width="66" height="10"/>
<g>
	<rect x="515.799" y="101.887" width="119.53" height="604.087"/>
	<rect x="592.115" y="118.719" opacity="0.7" fill="#FFFFFF" width="60.688" height="3.784"/>
	<rect x="592.115" y="125.909" opacity="0.7" fill="#FFFFFF" width="60.688" height="3.784"/>
	<rect x="592.115" y="132.721" opacity="0.7" fill="#FFFFFF" width="60.688" height="3.784"/>
	<rect x="592.115" y="140.29" opacity="0.7" fill="#FFFFFF" width="60.688" height="3.784"/>
	<rect x="592.115" y="147.102" opacity="0.7" fill="#FFFFFF" width="60.688" height="3.785"/>
	<rect x="592.115" y="154.293" opacity="0.7" fill="#FFFFFF" width="60.688" height="3.785"/>
	<rect x="592.115" y="161.105" opacity="0.7" fill="#FFFFFF" width="60.688" height="3.785"/>
	<rect x="592.115" y="167.916" opacity="0.7" fill="#FFFFFF" width="60.688" height="3.785"/>
	<rect x="592.115" y="174.729" opacity="0.7" fill="#FFFFFF" width="60.688" height="3.785"/>
	<rect x="592.115" y="181.919" opacity="0.7" fill="#FFFFFF" width="60.688" height="3.785"/>
	<rect x="592.115" y="188.731" opacity="0.7" fill="#FFFFFF" width="60.688" height="3.785"/>
	<rect x="592.115" y="194.9" opacity="0.7" fill="#FFFFFF" width="60.688" height="3.785"/>
	<rect x="592.115" y="201.712" opacity="0.7" fill="#FFFFFF" width="60.688" height="3.784"/>
	<rect x="592.115" y="208.903" opacity="0.7" fill="#FFFFFF" width="60.688" height="3.784"/>
	<rect x="592.115" y="215.715" opacity="0.7" fill="#FFFFFF" width="60.688" height="3.785"/>
	<rect x="592.115" y="222.469" opacity="0.7" fill="#FFFFFF" width="60.688" height="3.785"/>
	<rect x="592.115" y="229.282" opacity="0.7" fill="#FFFFFF" width="60.688" height="3.785"/>
	<rect x="592.115" y="236.473" opacity="0.7" fill="#FFFFFF" width="60.688" height="3.784"/>
	<rect x="592.115" y="243.284" opacity="0.7" fill="#FFFFFF" width="60.688" height="3.785"/>
	<rect x="592.115" y="250.854" opacity="0.7" fill="#FFFFFF" width="60.688" height="3.785"/>
	<rect x="592.115" y="257.666" opacity="0.7" fill="#FFFFFF" width="60.688" height="3.784"/>
	<rect x="592.115" y="264.856" opacity="0.7" fill="#FFFFFF" width="60.688" height="3.784"/>
	<rect x="592.115" y="271.668" opacity="0.7" fill="#FFFFFF" width="60.688" height="3.785"/>
	<rect x="592.115" y="278.48" opacity="0.7" fill="#FFFFFF" width="60.688" height="3.784"/>
	<rect x="592.115" y="285.292" opacity="0.7" fill="#FFFFFF" width="60.688" height="3.784"/>
	<rect x="592.115" y="292.483" opacity="0.7" fill="#FFFFFF" width="60.688" height="3.785"/>
	<rect x="592.115" y="299.295" opacity="0.7" fill="#FFFFFF" width="60.688" height="3.784"/>
	<rect x="592.115" y="305.464" opacity="0.7" fill="#FFFFFF" width="60.688" height="3.785"/>
	<rect x="592.115" y="312.276" opacity="0.7" fill="#FFFFFF" width="60.688" height="3.785"/>
	<rect x="592.115" y="319.467" opacity="0.7" fill="#FFFFFF" width="60.688" height="3.784"/>
	<rect x="592.115" y="326.279" opacity="0.7" fill="#FFFFFF" width="60.688" height="3.784"/>
	<rect x="592.115" y="333.091" opacity="0.7" fill="#FFFFFF" width="60.688" height="3.784"/>
	<rect x="592.115" y="340.281" opacity="0.7" fill="#FFFFFF" width="60.688" height="3.784"/>
	<rect x="592.115" y="347.093" opacity="0.7" fill="#FFFFFF" width="60.688" height="3.784"/>
	<rect x="592.115" y="355.591" opacity="0.7" fill="#FFFFFF" width="60.688" height="3.784"/>
	<rect x="592.115" y="362.403" opacity="0.7" fill="#FFFFFF" width="60.688" height="3.784"/>
	<rect x="592.115" y="369.594" opacity="0.7" fill="#FFFFFF" width="60.688" height="3.785"/>
	<rect x="592.115" y="376.406" opacity="0.7" fill="#FFFFFF" width="60.688" height="3.784"/>
	<rect x="592.115" y="383.975" opacity="0.7" fill="#FFFFFF" width="60.688" height="3.784"/>
	<rect x="592.115" y="390.786" opacity="0.7" fill="#FFFFFF" width="60.688" height="3.784"/>
	<rect x="592.115" y="397.977" opacity="0.7" fill="#FFFFFF" width="60.688" height="3.785"/>
	<rect x="592.115" y="404.788" opacity="0.7" fill="#FFFFFF" width="60.688" height="3.785"/>
	<rect x="592.115" y="411.601" opacity="0.7" fill="#FFFFFF" width="60.688" height="3.784"/>
	<rect x="592.115" y="418.412" opacity="0.7" fill="#FFFFFF" width="60.688" height="3.785"/>
	<rect x="592.115" y="425.604" opacity="0.7" fill="#FFFFFF" width="60.688" height="3.784"/>
	<rect x="592.115" y="432.415" opacity="0.7" fill="#FFFFFF" width="60.688" height="3.785"/>
	<rect x="592.115" y="438.584" opacity="0.7" fill="#FFFFFF" width="60.688" height="3.785"/>
	<rect x="592.115" y="445.397" opacity="0.7" fill="#FFFFFF" width="60.688" height="3.784"/>
	<rect x="592.115" y="452.587" opacity="0.7" fill="#FFFFFF" width="60.688" height="3.784"/>
	<rect x="592.115" y="459.399" opacity="0.7" fill="#FFFFFF" width="60.688" height="3.785"/>
	<rect x="592.115" y="466.153" opacity="0.7" fill="#FFFFFF" width="60.688" height="3.785"/>
	<rect x="592.115" y="472.966" opacity="0.7" fill="#FFFFFF" width="60.688" height="3.784"/>
	<rect x="592.115" y="480.156" opacity="0.7" fill="#FFFFFF" width="60.688" height="3.786"/>
	<rect x="592.115" y="486.968" opacity="0.7" fill="#FFFFFF" width="60.688" height="3.786"/>
	<rect x="592.115" y="494.537" opacity="0.7" fill="#FFFFFF" width="60.688" height="3.786"/>
	<rect x="592.115" y="501.35" opacity="0.7" fill="#FFFFFF" width="60.688" height="3.785"/>
	<rect x="592.115" y="508.54" opacity="0.7" fill="#FFFFFF" width="60.688" height="3.785"/>
	<rect x="592.115" y="515.354" opacity="0.7" fill="#FFFFFF" width="60.688" height="3.783"/>
	<rect x="592.115" y="522.165" opacity="0.7" fill="#FFFFFF" width="60.688" height="3.783"/>
	<rect x="592.115" y="528.977" opacity="0.7" fill="#FFFFFF" width="60.688" height="3.783"/>
	<rect x="592.115" y="536.167" opacity="0.7" fill="#FFFFFF" width="60.688" height="3.785"/>
	<rect x="592.115" y="542.979" opacity="0.7" fill="#FFFFFF" width="60.688" height="3.785"/>
	<rect x="592.115" y="549.149" opacity="0.7" fill="#FFFFFF" width="60.688" height="3.784"/>
	<rect x="592.115" y="555.96" opacity="0.7" fill="#FFFFFF" width="60.688" height="3.784"/>
	<rect x="592.115" y="563.151" opacity="0.7" fill="#FFFFFF" width="60.688" height="3.784"/>
	<rect x="592.115" y="569.962" opacity="0.7" fill="#FFFFFF" width="60.688" height="3.784"/>
	<rect x="592.115" y="576.774" opacity="0.7" fill="#FFFFFF" width="60.688" height="3.786"/>
	<rect x="592.115" y="583.965" opacity="0.7" fill="#FFFFFF" width="60.688" height="3.783"/>
	<rect x="592.115" y="590.778" opacity="0.7" fill="#FFFFFF" width="60.688" height="3.784"/>
	<rect x="592.115" y="598.183" opacity="0.7" fill="#FFFFFF" width="60.688" height="3.785"/>
	<rect x="592.115" y="604.995" opacity="0.7" fill="#FFFFFF" width="60.688" height="3.784"/>
	<rect x="592.115" y="612.186" opacity="0.7" fill="#FFFFFF" width="60.688" height="3.784"/>
	<rect x="592.115" y="618.997" opacity="0.7" fill="#FFFFFF" width="60.688" height="3.785"/>
	<rect x="592.115" y="625.752" opacity="0.7" fill="#FFFFFF" width="60.688" height="3.784"/>
	<rect x="592.115" y="632.565" opacity="0.7" fill="#FFFFFF" width="60.688" height="3.784"/>
	<rect x="592.115" y="639.755" opacity="0.7" fill="#FFFFFF" width="60.688" height="3.786"/>
	<rect x="592.115" y="646.567" opacity="0.7" fill="#FFFFFF" width="60.688" height="3.786"/>
	<rect x="592.115" y="654.137" opacity="0.7" fill="#FFFFFF" width="60.688" height="3.785"/>
	<rect x="592.115" y="660.948" opacity="0.7" fill="#FFFFFF" width="60.688" height="3.785"/>
	<rect x="592.115" y="668.139" opacity="0.7" fill="#FFFFFF" width="60.688" height="3.785"/>
	<rect x="592.115" y="674.952" opacity="0.7" fill="#FFFFFF" width="60.688" height="3.783"/>
	<rect x="592.115" y="681.764" opacity="0.7" fill="#FFFFFF" width="60.688" height="3.783"/>
	<rect x="592.115" y="688.575" opacity="0.7" fill="#FFFFFF" width="60.688" height="3.783"/>
</g>
</svg>
