<?xml version="1.0" encoding="utf-8"?>
<!-- Generator: Adobe Illustrator 16.0.4, SVG Export Plug-In . SVG Version: 6.00 Build 0)  -->
<!DOCTYPE svg PUBLIC "-//W3C//DTD SVG 1.1//EN" "http://www.w3.org/Graphics/SVG/1.1/DTD/svg11.dtd">
<svg version="1.1" id="Calque_1" xmlns="http://www.w3.org/2000/svg" xmlns:xlink="http://www.w3.org/1999/xlink" x="0px" y="0px"
	 width="38px" height="38px" viewBox="112.5 1862.5 38 38" enable-background="new 112.5 1862.5 38 38" xml:space="preserve">
<g>
	<g>
		<path d="M138.077,1879.625c0.823-0.885,1.461-2.473,1.461-4.452s-0.639-3.566-1.461-4.451V1879.625z"/>
		<path d="M146.115,1862.5h-29.23c-2.418,0-4.385,2.006-4.385,4.473v26.839c0,2.467,1.966,4.473,4.385,4.473h11.839l1.743,1.778
			c0.285,0.292,0.659,0.437,1.033,0.437s0.748-0.146,1.033-0.437l1.743-1.778h11.839c2.418,0,4.385-2.006,4.385-4.473v-26.839
			C150.5,1864.506,148.534,1862.5,146.115,1862.5z M132.231,1874.428c0,2.773-1.867,5.103-4.385,5.768v12.125
			c0,0.823-0.655,1.491-1.461,1.491c-0.807,0-1.462-0.668-1.462-1.491v-12.125c-2.517-0.665-4.384-2.995-4.384-5.768v-5.964
			c0-0.823,0.655-1.491,1.461-1.491s1.461,0.668,1.461,1.491v5.964c0,1.099,0.592,2.05,1.461,2.567v-8.531
			c0-0.823,0.655-1.491,1.462-1.491c0.807,0,1.461,0.668,1.461,1.491v8.531c0.87-0.518,1.461-1.469,1.461-2.567v-5.964
			c0-0.823,0.655-1.491,1.461-1.491c0.807,0,1.462,0.668,1.462,1.491V1874.428z M138.077,1883.116v9.205
			c0,0.823-0.655,1.491-1.462,1.491c-0.807,0-1.461-0.668-1.461-1.491v-23.856c0-0.823,0.655-1.491,1.461-1.491
			c3.278,0,5.846,3.602,5.846,8.201C142.461,1879.061,140.625,1882.227,138.077,1883.116z"/>
	</g>
</g>
</svg>
