<?xml version="1.0" encoding="utf-8"?>
<!-- Generator: Adobe Illustrator 16.0.4, SVG Export Plug-In . SVG Version: 6.00 Build 0)  -->
<!DOCTYPE svg PUBLIC "-//W3C//DTD SVG 1.0//EN" "http://www.w3.org/TR/2001/REC-SVG-20010904/DTD/svg10.dtd">
<svg version="1.0" id="Calque_1" xmlns="http://www.w3.org/2000/svg" xmlns:xlink="http://www.w3.org/1999/xlink" x="0px" y="0px"
	 width="157.669px" height="69.576px" viewBox="0 0 157.669 69.576" enable-background="new 0 0 157.669 69.576"
	 xml:space="preserve">
<path display="none" fill="#C53C52" d="M138.119,0.833c-11.582-15.986-30.399-26.386-51.651-26.386
	c-11.786,0-22.826,3.202-32.297,8.78l-0.004,0.004c-2.149,1.267-4.222,2.652-6.2,4.157C34.833-3.449,5.803,18.883,10.779,34.144
	c0,0,7.249,5.97,3.411,8.528c0,0,5.091,2.708,9.582,7.112c10.008,4.55,13.871,12.93,13.871,12.93c0,3.41,10.66,14.498,10.66,14.498
	c2.559,7.248,19.188,15.776,19.188,15.776c0.371,3.701,2.025,5.155,3.782,5.612c2.286,0.596,4.746-0.495,4.746-0.495
	c3.04-2.4,4.191-7.249,4.191-7.249c5.476-2.559,12.013-46.479,12.013-46.479c19.188-11.513,40.082-11.087,40.082-11.087
	c10.234-2.132,16.102-10.204,16.102-10.204v-0.004C151.085,19.654,147.103,10.248,138.119,0.833z M88.386-17.025
	c-4.265,5.543-27.815,0-27.815,0C78.702-25.417,88.386-17.025,88.386-17.025z M75.167,89.577c0,0-36.671-20.895-34.113-36.031
	l32.407-9.595c0,0,3.271,2.559,6.75,1.706L75.167,89.577z M104.589,14.529C89.239,28.174,56.832-5.086,56.832-5.086
	C122.5-9.776,104.589,14.529,104.589,14.529z M128.468,8.559c-5.922,1.271-26.125-25.798-26.434-26.211
	C139.982,6.014,128.468,8.559,128.468,8.559z"/>
<path fill-rule="evenodd" clip-rule="evenodd" fill="#C53C52" d="M156.623,32.459c0.211,1.769,0.521,3.534,0.602,5.309
	c0.057,1.291-0.015,2.641-0.338,3.885c-0.645,2.479-1.501,4.902-2.271,7.348c-0.208,0.656-0.291,1.395-0.65,1.955
	c-3.851,6.023-8.546,12.012-14.81,14.676c-4.383,1.863-9.164,5.073-15.208,3.543c-4.682-1.184-9.967,0.133-14.984,0.137
	c-3.502,0.002-7.012-0.252-10.506-0.539c-5.017-0.412-10.021-0.981-15.034-1.441c-5.406-0.496-10.825-0.871-16.225-1.438
	c-3.501-0.367-6.989-0.91-10.459-1.508c-4.8-0.828-9.58-1.779-14.367-2.682c-4.916-0.928-9.905-1.578-14.726-2.859
	c-5.554-1.475-11.079-2.752-16.522-5.133c-5.961-2.606-6.928-8.023-10.394-11.91c-0.674-0.757-0.604-2.289-0.646-3.473
	c-0.087-2.442-0.15-4.898,0.037-7.328c0.109-1.418,0.618-2.838,1.148-4.178c0.292-0.737,1.32-1.242,1.47-1.965
	c1.306-6.274,7.245-7.636,11.39-10.883c0.52-0.406,1.201-0.846,1.813-0.854c4.751-0.067,9.508,0.081,14.255-0.063
	c4.222-0.127,8.441-0.482,12.653-0.843c6.077-0.522,12.161-1.017,18.213-1.758c4.589-0.562,9.128-1.529,13.701-2.248
	c5.105-0.803,10.229-1.495,15.336-2.3c3.907-0.616,7.84-1.156,11.687-2.05c4.487-1.043,8.873-2.518,13.348-3.624
	c1.419-0.352,2.979-0.134,4.476-0.159c1.881-0.032,3.766-0.123,5.642-0.044c1.583,0.066,3.193,0.191,4.729,0.553
	c2.242,0.53,4.455,1.219,6.627,1.99c1.247,0.442,2.473,1.064,3.551,1.826c0.885,0.625,1.416,2.086,2.314,2.301
	c5.857,1.408,7.747,6.993,10.54,10.976c2.788,3.976,3.201,9.618,4.655,14.53C157.321,32.291,156.971,32.375,156.623,32.459z
	 M101.344,8.462c-7.854,1.582-15.694,3.36-23.611,4.682c-4.955,0.827-10.028,0.925-15.04,1.426
	c-3.939,0.394-7.869,0.89-11.799,1.365c-4.965,0.6-9.94,1.149-14.885,1.897c-1.21,0.183-2.316,1.055-3.47,1.61
	c0.932,1.449,1.641,3.874,2.841,4.148c2.793,0.639,3.601,1.829,2.653,4.287c-0.988,2.56,0.233,3.856,2.284,4.97
	c0.819,0.444,1.458,1.219,2.18,1.843c-0.633,0.592-1.167,1.448-1.917,1.728c-2.96,1.106-3.287,2.977-1.968,5.554
	c0.537,1.049,0.926,2.173,1.66,3.925c-6.586-1.488-8.808,1.316-7.37,7.902c-2.209-1.023-3.36-1.741-4.613-2.083
	c-1.156-0.315-2.421-0.226-3.639-0.313c-0.042,0.529-0.084,1.062-0.125,1.594c28.212,6.408,56.792,10.04,86.415,11.126
	c-2.487-5.157-6.246-1.163-8.871-2.159c0.49-5.781,0.486-5.754-5.365-6.723c-2.789-0.461-1.886-2.145-1.037-3.654
	c1.625-2.895,0.604-4.564-2.455-4.929c-3.88-0.46-3.26-2.092-1.319-4.216c2.114-2.315,1.817-4.184-1.005-5.563
	c-2.785-1.361-2.915-2.845-0.132-4.255c3.237-1.639,3.36-3.635,1.085-6.199c-0.695-0.783-1.186-1.75-1.847-2.749
	c0.651-0.256,1.001-0.458,1.376-0.532c5.43-1.068,5.479-1.077,4.024-6.249c-0.84-2.987,1.202-2.771,2.998-2.891
	C103.146,13.688,103.523,13.002,101.344,8.462z M32.6,39.503c-0.798-4.503-0.437-8.515-2.228-10.931
	c-1.927-2.601-5.803-4.92-8.959-5.102c-2.896-0.168-6.975,1.961-8.682,4.383c-1.744,2.475-1.306,6.528-1.689,9.905
	c-0.265,2.331,8.387,9.163,11.386,8.094C26.181,44.517,29.371,41.604,32.6,39.503z M111.073,33.665
	c0.288,1.812,0.182,2.903,0.634,3.657c1.332,2.216,2.604,4.597,4.447,6.332c1.303,1.228,3.518,2.119,5.286,2.058
	c2.188-0.076,4.487-1.019,6.462-2.094c1.793-0.979,4.796-3.295,4.547-3.896c-1.784-4.312,2.609-9.599-2.152-13.228
	c-0.524-0.4-1.268-0.521-1.92-0.739c-2.296-0.77-4.608-2.145-6.891-2.096c-1.888,0.038-3.965,1.496-5.539,2.823
	c-1.269,1.07-1.879,2.904-2.84,4.361C112.372,31.958,111.545,33.014,111.073,33.665z M121.781,60.618
	c1.584-1.236,4.367-2.715,4.184-3.393c-0.697-2.584-1.796-5.655-3.791-7.136c-2.398-1.779-5.899-2.952-8.855-2.826
	c-2.407,0.103-4.715,2.509-7.066,3.893c1.122,1.667,1.875,4.049,3.441,4.857C113.283,57.873,117.27,58.965,121.781,60.618z
	 M130.989,50.882c0.521,0.925,1.171,3.346,2.737,4.383c0.891,0.589,3.845-0.61,4.884-1.84c2.712-3.204,5.291-6.666,7.146-10.409
	c1.741-3.513,0.069-5.366-3.971-5.368C137.599,37.647,131.047,44.952,130.989,50.882z M111.373,22.636
	c4.606-1.395,8.58-1.79,11.48-3.763c1.895-1.289,2.232-4.865,3.266-7.416c-1.99-0.465-4.098-1.585-5.946-1.255
	c-3.595,0.643-7.2,1.775-10.481,3.363c-1.495,0.724-3.486,3.713-3.07,4.463C107.751,20.063,110.048,21.449,111.373,22.636z
	 M97.912,33.688c-0.094,0.018-0.188,0.035-0.281,0.053c0.449,2.715,0.691,5.483,1.396,8.129c1.013,3.805,3.045,4.481,5.935,1.802
	c1.256-1.164,1.986-3.2,2.337-4.963c0.479-2.412,0.339-4.943,0.516-7.419c0.207-2.889-2.914-7.141-5.65-7.064
	c-3.562,0.101-3.541,3.26-4.047,5.741C97.871,31.17,97.968,32.445,97.912,33.688z M141.097,31.498
	c3.492-0.172,6.063-0.109,5.099-3.589c-1.6-5.77-4.86-10.468-9.937-13.685c-0.819-0.519-3.007-0.344-3.468,0.297
	c-1.923,2.675-2.831,5.704-0.544,8.731c1.488,1.971,2.903,4.057,4.695,5.722C138.349,30.281,140.281,31.02,141.097,31.498z"/>
</svg>
