<?xml version="1.0" encoding="utf-8"?>
<!-- Generator: Adobe Illustrator 16.0.4, SVG Export Plug-In . SVG Version: 6.00 Build 0)  -->
<!DOCTYPE svg PUBLIC "-//W3C//DTD SVG 1.0//EN" "http://www.w3.org/TR/2001/REC-SVG-20010904/DTD/svg10.dtd">
<svg version="1.0" xmlns="http://www.w3.org/2000/svg" xmlns:xlink="http://www.w3.org/1999/xlink" x="0px" y="0px"
	 width="120.132px" height="99px" viewBox="0 0 120.132 99" enable-background="new 0 0 120.132 99" xml:space="preserve">
<g id="Calque_1">
</g>
<g id="Calque_2">
	<g>
		<g>
			<path fill="#C53C52" d="M10.448,0c-0.279,0-2.014,0-3.854,0S2.744,0,2.13,0C1.517,0,0.786,0.102,0.507,0.227
				C0.228,0.352,0,2.84,0,5.072v26.372c0,2.232,0.102,4.286,0.227,4.565s1.29,0.507,1.903,0.507c0.614,0,2.623,0,4.463,0
				s3.576,0,3.854,0s0.507-0.229,0.507-0.507s0-2.333,0-4.565V5.072c0-2.232,0-4.286,0-4.565S10.727,0,10.448,0z"/>
		</g>
		<g>
			<path fill="#C53C52" d="M113.81,0c-1.004,0-2.511,0-3.348,0s-2.387,0-3.444,0h-92.72c-1.058,0-1.923,0.865-1.923,1.923v32.671
				c0,1.058,0.865,1.923,1.923,1.923h92.72c1.058,0,2.607,0,3.444,0s2.344,0,3.348,0s1.826-0.865,1.826-1.923V1.923
				C115.636,0.865,114.813,0,113.81,0z M64.848,24.979c-0.965,0.432-2.62,0.786-3.678,0.786H25.861
				c-1.058,0-1.923-0.023-1.923-0.052s-0.746-0.491-1.657-1.027c0,0-4.429-2.606-4.429-6.225c0-4.033,3.27-7.303,7.303-7.303
				c0.498,0,0.498,0,0.498,0c0.526,0.08,1.822,0.146,2.879,0.146h31.182c1.058,0,2.354-0.065,2.879-0.146c0,0,0,0,0.499,0
				c4.033,0,7.303,3.27,7.303,7.303C70.396,22.495,64.848,24.979,64.848,24.979z M99.405,32.768c0,1.058-0.865,1.923-1.923,1.923
				h-1.226c-1.058,0-1.923-0.865-1.923-1.923V3.749c0-1.058,0.865-1.923,1.923-1.923h1.226c1.058,0,1.923,0.865,1.923,1.923V32.768z
				"/>
		</g>
		<rect x="23.127" y="37.531" fill="#C53C52" width="50.515" height="6.086"/>
		<path fill="#C53C52" d="M117.089,27.981c1.914-2.687,3.043-5.971,3.043-9.521s-1.129-6.833-3.043-9.521V27.981z"/>
		<path fill="#C53C52" d="M61.875,56.228v-11.19H26.981v24.666c-1.499,1.423-2.434,3.434-2.434,5.663s0.935,4.239,2.434,5.661v6.815
			h6.642C37.482,94.511,44.69,99,52.949,99c12.324,0,22.316-9.991,22.316-22.315C75.265,67.535,69.757,59.672,61.875,56.228z
			 M30.729,78.75c-1.258-0.608-2.124-1.896-2.124-3.384c0-1.659,1.075-3.065,2.566-3.562c0.373-0.125,0.773-0.192,1.187-0.192
			c2.074,0,3.753,1.681,3.753,3.754s-1.68,3.753-3.753,3.753C31.773,79.119,31.222,78.984,30.729,78.75z M53.354,91.696
			c-6.928,0-12.744-4.755-14.361-11.182c1.503-1.193,2.469-3.037,2.469-5.104c0-1.691-0.646-3.233-1.706-4.392
			c2.27-5.261,7.504-8.94,13.598-8.94c8.18,0,14.81,6.63,14.81,14.81C68.164,85.066,61.534,91.696,53.354,91.696z"/>
	</g>
</g>
</svg>
