<?xml version="1.0" encoding="utf-8"?>
<!-- Generator: Adobe Illustrator 16.0.4, SVG Export Plug-In . SVG Version: 6.00 Build 0)  -->
<!DOCTYPE svg PUBLIC "-//W3C//DTD SVG 1.0//EN" "http://www.w3.org/TR/2001/REC-SVG-20010904/DTD/svg10.dtd">
<svg version="1.0" id="Calque_1" xmlns="http://www.w3.org/2000/svg" xmlns:xlink="http://www.w3.org/1999/xlink" x="0px" y="0px"
	 width="133.84px" height="91.468px" viewBox="0 0 133.84 91.468" enable-background="new 0 0 133.84 91.468" xml:space="preserve">
<path display="none" fill="#C53C52" d="M124.551,9.437C112.969-6.549,94.152-16.95,72.9-16.95c-11.786,0-22.826,3.202-32.297,8.78
	l-0.004,0.004c-2.149,1.267-4.222,2.652-6.2,4.157C21.266,5.155-7.764,27.487-2.788,42.748c0,0,7.249,5.97,3.411,8.528
	c0,0,5.091,2.708,9.582,7.112c10.008,4.55,13.871,12.93,13.871,12.93c0,3.41,10.66,14.498,10.66,14.498
	c2.559,7.248,19.188,15.776,19.188,15.776c0.371,3.701,2.025,5.155,3.782,5.612c2.286,0.596,4.746-0.495,4.746-0.495
	c3.04-2.4,4.191-7.249,4.191-7.249c5.476-2.559,12.013-46.479,12.013-46.479c19.188-11.513,40.082-11.087,40.082-11.087
	c10.234-2.132,16.102-10.204,16.102-10.204v-0.004C137.518,28.258,133.536,18.852,124.551,9.437z M74.819-8.421
	c-4.265,5.543-27.815,0-27.815,0C65.135-16.813,74.819-8.421,74.819-8.421z M61.6,98.181c0,0-36.671-20.895-34.113-36.031
	l32.407-9.595c0,0,3.271,2.559,6.75,1.706L61.6,98.181z M91.022,23.133C75.671,36.778,43.264,3.518,43.264,3.518
	C108.932-1.172,91.022,23.133,91.022,23.133z M114.901,17.163c-5.922,1.271-26.125-25.798-26.434-26.211
	C126.415,14.618,114.901,17.163,114.901,17.163z"/>
<path display="none" fill-rule="evenodd" clip-rule="evenodd" fill="#C53C52" d="M143.055,41.063
	c0.211,1.769,0.521,3.534,0.602,5.309c0.057,1.291-0.015,2.641-0.338,3.885c-0.645,2.479-1.501,4.902-2.271,7.348
	c-0.208,0.656-0.291,1.395-0.65,1.955c-3.851,6.023-8.546,12.012-14.81,14.676c-4.383,1.863-9.164,5.073-15.208,3.543
	c-4.682-1.184-9.967,0.133-14.984,0.137c-3.502,0.002-7.012-0.252-10.506-0.539c-5.017-0.412-10.021-0.981-15.034-1.441
	c-5.406-0.496-10.825-0.871-16.225-1.438c-3.501-0.367-6.989-0.91-10.459-1.508c-4.8-0.828-9.58-1.779-14.367-2.682
	c-4.916-0.928-9.905-1.578-14.726-2.859c-5.554-1.475-11.079-2.752-16.522-5.133c-5.961-2.606-6.928-8.023-10.394-11.91
	c-0.674-0.757-0.604-2.289-0.646-3.473c-0.087-2.442-0.15-4.898,0.037-7.328c0.109-1.418,0.618-2.838,1.148-4.178
	c0.292-0.737,1.32-1.242,1.47-1.965c1.306-6.274,7.245-7.636,11.39-10.883c0.52-0.406,1.201-0.846,1.813-0.854
	c4.751-0.067,9.508,0.081,14.255-0.063c4.222-0.127,8.441-0.482,12.653-0.843c6.077-0.522,12.161-1.017,18.213-1.758
	c4.589-0.562,9.128-1.529,13.701-2.248c5.105-0.803,10.229-1.495,15.336-2.3c3.907-0.616,7.84-1.156,11.687-2.05
	c4.487-1.043,8.873-2.518,13.348-3.624c1.419-0.352,2.979-0.134,4.476-0.159c1.881-0.032,3.766-0.123,5.642-0.044
	c1.583,0.066,3.193,0.191,4.729,0.553c2.242,0.53,4.455,1.219,6.627,1.99c1.247,0.442,2.473,1.064,3.551,1.826
	c0.885,0.625,1.416,2.086,2.314,2.301c5.857,1.408,7.747,6.993,10.54,10.976c2.788,3.976,3.201,9.618,4.655,14.53
	C143.753,40.895,143.404,40.979,143.055,41.063z M87.777,17.066c-7.854,1.582-15.694,3.36-23.611,4.682
	c-4.955,0.827-10.028,0.925-15.04,1.426c-3.939,0.394-7.869,0.89-11.799,1.365c-4.965,0.6-9.94,1.149-14.885,1.897
	c-1.21,0.183-2.316,1.055-3.47,1.61c0.932,1.449,1.641,3.874,2.841,4.148c2.793,0.639,3.601,1.829,2.653,4.287
	c-0.988,2.56,0.233,3.856,2.284,4.97c0.819,0.444,1.458,1.219,2.18,1.843c-0.633,0.592-1.167,1.448-1.917,1.728
	c-2.96,1.106-3.287,2.977-1.968,5.554c0.537,1.049,0.926,2.173,1.66,3.925c-6.586-1.488-8.808,1.316-7.37,7.902
	c-2.209-1.023-3.36-1.741-4.613-2.083c-1.156-0.315-2.421-0.226-3.639-0.313c-0.042,0.529-0.084,1.062-0.125,1.594
	c28.212,6.408,56.792,10.04,86.415,11.126c-2.487-5.157-6.246-1.163-8.871-2.159c0.49-5.781,0.486-5.754-5.365-6.723
	c-2.789-0.461-1.886-2.145-1.037-3.654c1.625-2.895,0.604-4.564-2.455-4.929c-3.88-0.46-3.26-2.092-1.319-4.216
	c2.114-2.315,1.817-4.184-1.005-5.563c-2.785-1.361-2.915-2.845-0.132-4.255c3.237-1.639,3.36-3.635,1.085-6.199
	c-0.695-0.783-1.186-1.75-1.847-2.749c0.651-0.256,1.001-0.458,1.376-0.532c5.43-1.068,5.479-1.077,4.024-6.249
	c-0.84-2.987,1.202-2.771,2.998-2.891C89.579,22.292,89.956,21.606,87.777,17.066z M19.033,48.107
	c-0.798-4.503-0.437-8.515-2.228-10.931c-1.927-2.601-5.803-4.92-8.959-5.102c-2.896-0.168-6.975,1.961-8.682,4.383
	c-1.744,2.475-1.306,6.528-1.689,9.905c-0.265,2.331,8.387,9.163,11.386,8.094C12.614,53.121,15.804,50.208,19.033,48.107z
	 M97.505,42.269c0.288,1.812,0.182,2.903,0.634,3.657c1.332,2.216,2.604,4.597,4.447,6.332c1.303,1.228,3.518,2.119,5.286,2.058
	c2.188-0.076,4.487-1.019,6.462-2.094c1.793-0.979,4.796-3.295,4.547-3.896c-1.784-4.312,2.609-9.599-2.152-13.228
	c-0.524-0.4-1.268-0.521-1.92-0.739c-2.296-0.77-4.608-2.145-6.891-2.096c-1.888,0.038-3.965,1.496-5.539,2.823
	c-1.269,1.07-1.879,2.904-2.84,4.361C98.804,40.562,97.978,41.618,97.505,42.269z M108.213,69.222
	c1.584-1.236,4.367-2.715,4.184-3.393c-0.697-2.584-1.796-5.655-3.791-7.136c-2.398-1.779-5.899-2.952-8.855-2.826
	c-2.407,0.103-4.715,2.509-7.066,3.893c1.122,1.667,1.875,4.049,3.441,4.857C99.715,66.477,103.703,67.569,108.213,69.222z
	 M117.421,59.486c0.521,0.925,1.171,3.346,2.737,4.383c0.891,0.589,3.845-0.61,4.884-1.84c2.712-3.204,5.291-6.666,7.146-10.409
	c1.741-3.513,0.069-5.366-3.971-5.368C124.032,46.251,117.48,53.556,117.421,59.486z M97.805,31.24
	c4.606-1.395,8.58-1.79,11.48-3.763c1.895-1.289,2.232-4.865,3.266-7.416c-1.99-0.465-4.098-1.585-5.946-1.255
	c-3.595,0.643-7.2,1.775-10.481,3.363c-1.495,0.724-3.486,3.713-3.07,4.463C94.184,28.667,96.481,30.053,97.805,31.24z
	 M84.344,42.292c-0.094,0.018-0.188,0.035-0.281,0.053c0.449,2.715,0.691,5.483,1.396,8.129c1.013,3.805,3.045,4.481,5.935,1.802
	c1.256-1.164,1.986-3.2,2.337-4.963c0.479-2.412,0.339-4.943,0.516-7.419c0.207-2.889-2.914-7.141-5.65-7.064
	c-3.562,0.101-3.541,3.26-4.047,5.741C84.303,39.774,84.401,41.049,84.344,42.292z M127.53,40.102
	c3.492-0.172,6.063-0.109,5.099-3.589c-1.6-5.77-4.86-10.468-9.937-13.685c-0.819-0.519-3.007-0.344-3.468,0.297
	c-1.923,2.675-2.831,5.704-0.544,8.731c1.488,1.971,2.903,4.057,4.695,5.722C124.782,38.885,126.713,39.624,127.53,40.102z"/>
<g display="none">
	<rect x="41.45" y="61.898" display="inline" fill="#C53C52" width="4.376" height="27.01"/>
	
		<path display="inline" fill="#C53C52" stroke="#FF8787" stroke-width="0.2471" stroke-linecap="round" stroke-linejoin="round" stroke-miterlimit="10" d="
		M28.288,79.328l-2.433-10.786l-3.856,0.869l0.745,3.304c-1.217,0.332-2.114,1.441-2.114,2.764c0,1.584,1.284,2.867,2.867,2.867
		c0.174,0,0.342-0.018,0.506-0.047l0.428,1.898L28.288,79.328z"/>
	
		<path display="inline" fill="#C53C52" stroke="#FF8787" stroke-width="0.2471" stroke-linecap="round" stroke-linejoin="round" stroke-miterlimit="10" d="
		M57.147,29.626c0-1.179,0.284-2.292,0.784-3.276L43.18,30.208L29.533,50.154V92.53h0.34c0.299,2.548,2.463,4.526,5.092,4.526
		s4.792-1.979,5.092-4.526h0.038V53.421l9.894-14.459l11.526-2.686C58.946,35.163,57.147,32.605,57.147,29.626z"/>
	<rect x="86.573" y="61.898" display="inline" fill="#C53C52" width="4.377" height="27.01"/>
	
		<path display="inline" fill="#C53C52" stroke="#FF8787" stroke-width="0.2471" stroke-linecap="round" stroke-linejoin="round" stroke-miterlimit="10" d="
		M104.11,79.328l2.434-10.786l3.857,0.869l-0.746,3.304c1.218,0.332,2.113,1.441,2.113,2.764c0,1.584-1.283,2.867-2.867,2.867
		c-0.172,0-0.34-0.018-0.505-0.047l-0.429,1.898L104.11,79.328z"/>
	
		<path display="inline" fill="#C53C52" stroke="#FF8787" stroke-width="0.2471" stroke-linecap="round" stroke-linejoin="round" stroke-miterlimit="10" d="
		M94.732,5.915h13.265V-4.346H88.501c-1.346-0.392-2.769-0.604-4.239-0.604c-6.906,0-12.729,4.626-14.545,10.947l-0.593,0.219
		c0.067,0.603,0.12,1.18,0.165,1.744c-0.107,0.727-0.165,1.471-0.165,2.227c0,1.007,0.101,1.991,0.288,2.943
		c-0.291,7.214-2.607,9.605-2.607,9.605l0,0c-3.086,0.696-5.393,3.454-5.393,6.749c0,3.824,3.099,6.92,6.92,6.92
		c3.796,0,6.877-3.057,6.916-6.842c0,0.021,0.004,0.042,0.004,0.063c0,2.979-1.799,5.535-4.367,6.649l11.525,2.685l9.893,14.459
		V92.53h0.039c0.299,2.548,2.463,4.526,5.092,4.526s4.793-1.979,5.092-4.526h0.34V50.154L89.219,30.209l-0.458-0.12v-19.82
		C90.294,8.312,92.357,6.789,94.732,5.915z M67.861,34.253c-2.417,0-4.375-1.962-4.375-4.376c0-2.418,1.959-4.376,4.375-4.376
		c2.417,0,4.376,1.958,4.376,4.376C72.237,32.292,70.278,34.253,67.861,34.253z"/>
</g>
<g display="none">
	
		<path display="inline" fill="none" stroke="#C53C52" stroke-width="9.3268" stroke-linecap="square" stroke-linejoin="round" stroke-miterlimit="10" d="
		M39.643,17.576l8.384,21.576l12.757,32.83c0,0,7.461,0,7.772,1.555l35.131-43.836l-1.865-4.975"/>
	
		<polyline display="inline" fill="none" stroke="#C53C52" stroke-width="9.3268" stroke-linecap="square" stroke-linejoin="round" stroke-miterlimit="10" points="
		49.094,41.898 102.409,26.293 98.712,17.576 103.686,29.701 108.04,38.094 112.703,37.784 129.801,77.578 	"/>
	
		<line display="inline" fill="none" stroke="#C53C52" stroke-width="9.3268" stroke-linecap="square" stroke-linejoin="round" stroke-miterlimit="10" x1="48.026" y1="39.152" x2="22.232" y2="77.578"/>
</g>
<g>
	
		<path fill="#C53C52" stroke="#C53C52" stroke-width="0.4177" stroke-linecap="round" stroke-linejoin="round" stroke-miterlimit="10" d="
		M18.985,0.209v72.255h105.25V0.209H18.985z M118.387,67.453H23.997V4.386h94.391V67.453z"/>
	
		<polygon fill="#C53C52" stroke="#C53C52" stroke-width="0.4177" stroke-linecap="round" stroke-linejoin="round" stroke-miterlimit="10" points="
		18.985,74.552 124.235,74.552 133.422,82.488 10.631,82.488 	"/>
	
		<rect x="10.631" y="84.994" fill="#C53C52" stroke="#C53C52" stroke-width="0.8353" stroke-linecap="round" stroke-linejoin="round" stroke-miterlimit="10" width="122.791" height="6.057"/>
	
		<path fill="#C53C52" stroke="#C53C52" stroke-width="0.8353" stroke-linecap="round" stroke-linejoin="round" stroke-miterlimit="10" d="
		M118.387,32.786h-7.518v7.518l-4.177,4.177l-5.847-5.848l-9.397,9.397l3.759,3.759v6.892h-8.145v5.848h15.662
		c0,0,2.506-18.168,15.768-15.767L118.387,32.786z"/>
	
		<path fill="#C53C52" stroke="#C53C52" stroke-width="0.8353" stroke-linecap="round" stroke-linejoin="round" stroke-miterlimit="10" d="
		M49.474,8.98l-12.53,2.088l-5.429,11.694l7.935,10.023l14.495-2.583l2.629-9.529L49.474,8.98z M49.847,28.401h-8.705l-5.012-6.331
		l3.429-7.386l7.914-1.319l4.484,7.386L49.847,28.401z"/>
	
		<line fill="#C53C52" stroke="#C53C52" stroke-width="5.4296" stroke-linecap="square" stroke-linejoin="round" stroke-miterlimit="10" x1="36.269" y1="28.67" x2="30.605" y2="31.736"/>
	
		<path fill="#C53C52" stroke="#C53C52" stroke-width="0.6155" stroke-linecap="round" stroke-linejoin="round" stroke-miterlimit="10" d="
		M5.539,57.428l9.233-1.538l4.001-8.617l-5.848-7.386L2.245,41.79l-1.937,7.021L5.539,57.428z M5.264,43.118h6.415l3.693,4.665
		l-2.527,5.442l-5.831,0.972l-3.304-5.442L5.264,43.118z"/>
	
		<line fill="#C53C52" stroke="#C53C52" stroke-width="4.0007" stroke-linecap="square" stroke-linejoin="round" stroke-miterlimit="10" x1="15.27" y1="42.92" x2="19.442" y2="40.661"/>
	<polyline fill="#C53C52" points="18.985,19.004 10.631,11.903 7.29,15.454 13.137,23.598 15.27,23.598 28.591,32.786 
		28.591,32.786 	"/>
	
		<line fill="#C53C52" stroke="#C53C52" stroke-width="4.1766" stroke-miterlimit="10" x1="24.846" y1="30.203" x2="44.464" y2="48.589"/>
	<path fill="#C53C52" stroke="#C53C52" stroke-width="2.818" stroke-miterlimit="10" d="M54.941,63.577
		c-0.556,0.578-1.448,0.622-1.992,0.099L30.267,41.871c-0.545-0.523-0.536-1.416,0.02-1.994l3.419-3.558
		c0.555-0.578,1.448-0.621,1.992-0.098l22.683,21.804c0.544,0.523,0.535,1.417-0.02,1.994L54.941,63.577z"/>
</g>
</svg>
