<?xml version="1.0" encoding="utf-8"?>
<!-- Generator: Adobe Illustrator 16.0.4, SVG Export Plug-In . SVG Version: 6.00 Build 0)  -->
<!DOCTYPE svg PUBLIC "-//W3C//DTD SVG 1.0//EN" "http://www.w3.org/TR/2001/REC-SVG-20010904/DTD/svg10.dtd">
<svg version="1.0" id="Calque_1" xmlns="http://www.w3.org/2000/svg" xmlns:xlink="http://www.w3.org/1999/xlink" x="0px" y="0px"
	 width="91.385px" height="102.253px" viewBox="0 0 91.385 102.253" enable-background="new 0 0 91.385 102.253"
	 xml:space="preserve">
<path display="none" fill="#C53C52" d="M104.044,14.51C92.462-1.476,73.645-11.876,52.393-11.876
	c-11.786,0-22.826,3.202-32.297,8.78l-0.004,0.004c-2.149,1.267-4.222,2.652-6.2,4.157C0.759,10.229-28.271,32.56-23.295,47.821
	c0,0,7.249,5.97,3.411,8.528c0,0,5.091,2.708,9.582,7.112c10.008,4.55,13.871,12.93,13.871,12.93c0,3.41,10.66,14.498,10.66,14.498
	c2.559,7.248,19.188,15.776,19.188,15.776c0.371,3.701,2.025,5.155,3.782,5.612c2.286,0.596,4.746-0.495,4.746-0.495
	c3.04-2.4,4.191-7.249,4.191-7.249c5.476-2.559,12.013-46.479,12.013-46.479c19.188-11.513,40.082-11.087,40.082-11.087
	c10.234-2.132,16.102-10.204,16.102-10.204V36.76C117.011,33.332,113.029,23.925,104.044,14.51z M54.312-3.348
	c-4.265,5.543-27.815,0-27.815,0C44.628-11.74,54.312-3.348,54.312-3.348z M41.093,103.254c0,0-36.671-20.895-34.113-36.031
	l32.407-9.595c0,0,3.271,2.559,6.75,1.706L41.093,103.254z M70.515,28.206C55.165,41.851,22.757,8.591,22.757,8.591
	C88.425,3.901,70.515,28.206,70.515,28.206z M94.394,22.236C88.472,23.507,68.269-3.562,67.96-3.975
	C105.908,19.691,94.394,22.236,94.394,22.236z"/>
<path display="none" fill-rule="evenodd" clip-rule="evenodd" fill="#C53C52" d="M122.548,46.137
	c0.211,1.769,0.521,3.534,0.602,5.309c0.057,1.291-0.015,2.641-0.338,3.885c-0.645,2.479-1.501,4.902-2.271,7.348
	c-0.208,0.656-0.291,1.395-0.65,1.955c-3.851,6.023-8.546,12.012-14.81,14.676c-4.383,1.863-9.164,5.073-15.208,3.543
	c-4.682-1.184-9.967,0.133-14.984,0.137c-3.502,0.002-7.012-0.252-10.506-0.539c-5.017-0.412-10.021-0.981-15.034-1.441
	c-5.406-0.496-10.825-0.871-16.225-1.438c-3.501-0.367-6.989-0.91-10.459-1.508c-4.8-0.828-9.58-1.779-14.367-2.682
	c-4.916-0.928-9.905-1.578-14.726-2.859c-5.554-1.475-11.079-2.752-16.522-5.133c-5.961-2.606-6.928-8.023-10.394-11.91
	c-0.674-0.757-0.604-2.289-0.646-3.473c-0.087-2.442-0.15-4.898,0.037-7.328c0.109-1.418,0.618-2.838,1.148-4.178
	c0.292-0.737,1.32-1.242,1.47-1.965c1.306-6.274,7.245-7.636,11.39-10.883c0.52-0.406,1.201-0.846,1.813-0.854
	c4.751-0.067,9.508,0.081,14.255-0.063c4.222-0.127,8.441-0.482,12.653-0.843c6.077-0.522,12.161-1.017,18.213-1.758
	c4.589-0.562,9.128-1.529,13.701-2.248c5.105-0.803,10.229-1.495,15.336-2.3c3.907-0.616,7.84-1.156,11.687-2.05
	c4.487-1.043,8.873-2.518,13.348-3.624c1.419-0.352,2.979-0.134,4.476-0.159c1.881-0.032,3.766-0.123,5.642-0.044
	c1.583,0.066,3.193,0.191,4.729,0.553c2.242,0.53,4.455,1.219,6.627,1.99c1.247,0.442,2.473,1.064,3.551,1.826
	c0.885,0.625,1.416,2.086,2.314,2.301c5.857,1.408,7.747,6.993,10.54,10.976c2.788,3.976,3.201,9.618,4.655,14.53
	C123.247,45.968,122.897,46.053,122.548,46.137z M67.27,22.14c-7.854,1.582-15.694,3.36-23.611,4.682
	c-4.955,0.827-10.028,0.925-15.04,1.426c-3.939,0.394-7.869,0.89-11.799,1.365c-4.965,0.6-9.94,1.149-14.885,1.897
	c-1.21,0.183-2.316,1.055-3.47,1.61c0.932,1.449,1.641,3.874,2.841,4.148c2.793,0.639,3.601,1.829,2.653,4.287
	c-0.988,2.56,0.233,3.856,2.284,4.97c0.819,0.444,1.458,1.219,2.18,1.843c-0.633,0.592-1.167,1.448-1.917,1.728
	c-2.96,1.106-3.287,2.977-1.968,5.554c0.537,1.049,0.926,2.173,1.66,3.925c-6.586-1.488-8.808,1.316-7.37,7.902
	c-2.209-1.023-3.36-1.741-4.613-2.083c-1.156-0.315-2.421-0.226-3.639-0.313c-0.042,0.529-0.084,1.062-0.125,1.594
	c28.212,6.408,56.792,10.04,86.415,11.126c-2.487-5.157-6.246-1.163-8.871-2.159c0.49-5.781,0.486-5.754-5.365-6.723
	c-2.789-0.461-1.886-2.145-1.037-3.654c1.625-2.895,0.604-4.564-2.455-4.929c-3.88-0.46-3.26-2.092-1.319-4.216
	c2.114-2.315,1.817-4.184-1.005-5.563c-2.785-1.361-2.915-2.845-0.132-4.255c3.237-1.639,3.36-3.635,1.085-6.199
	c-0.695-0.783-1.186-1.75-1.847-2.749c0.651-0.256,1.001-0.458,1.376-0.532c5.43-1.068,5.479-1.077,4.024-6.249
	c-0.84-2.987,1.202-2.771,2.998-2.891C69.072,27.365,69.449,26.679,67.27,22.14z M-1.474,53.18
	c-0.798-4.503-0.437-8.515-2.228-10.931c-1.927-2.601-5.803-4.92-8.959-5.102c-2.896-0.168-6.975,1.961-8.682,4.383
	c-1.744,2.475-1.306,6.528-1.689,9.905c-0.265,2.331,8.387,9.163,11.386,8.094C-7.893,58.194-4.703,55.281-1.474,53.18z
	 M76.999,47.342c0.288,1.812,0.182,2.903,0.634,3.657c1.332,2.216,2.604,4.597,4.447,6.332c1.303,1.228,3.518,2.119,5.286,2.058
	c2.188-0.076,4.487-1.019,6.462-2.094c1.793-0.979,4.796-3.295,4.547-3.896c-1.784-4.312,2.609-9.599-2.152-13.228
	c-0.524-0.4-1.268-0.521-1.92-0.739c-2.296-0.77-4.608-2.145-6.891-2.096c-1.888,0.038-3.965,1.496-5.539,2.823
	c-1.269,1.07-1.879,2.904-2.84,4.361C78.297,45.635,77.471,46.691,76.999,47.342z M87.707,74.295
	c1.584-1.236,4.367-2.715,4.184-3.393c-0.697-2.584-1.796-5.655-3.791-7.136c-2.398-1.779-5.899-2.952-8.855-2.826
	c-2.407,0.103-4.715,2.509-7.066,3.893c1.122,1.667,1.875,4.049,3.441,4.857C79.208,71.55,83.196,72.642,87.707,74.295z
	 M96.915,64.559c0.521,0.925,1.171,3.346,2.737,4.383c0.891,0.589,3.845-0.61,4.884-1.84c2.712-3.204,5.291-6.666,7.146-10.409
	c1.741-3.513,0.069-5.366-3.971-5.368C103.525,51.325,96.973,58.629,96.915,64.559z M77.298,36.313
	c4.606-1.395,8.58-1.79,11.48-3.763c1.895-1.289,2.232-4.865,3.266-7.416c-1.99-0.465-4.098-1.585-5.946-1.255
	c-3.595,0.643-7.2,1.775-10.481,3.363c-1.495,0.724-3.486,3.713-3.07,4.463C73.677,33.741,75.974,35.126,77.298,36.313z
	 M63.837,47.365c-0.094,0.018-0.188,0.035-0.281,0.053c0.449,2.715,0.691,5.483,1.396,8.129c1.013,3.805,3.045,4.481,5.935,1.802
	c1.256-1.164,1.986-3.2,2.337-4.963c0.479-2.412,0.339-4.943,0.516-7.419c0.207-2.889-2.914-7.141-5.65-7.064
	c-3.562,0.101-3.541,3.26-4.047,5.741C63.796,44.848,63.894,46.122,63.837,47.365z M107.023,45.175
	c3.492-0.172,6.063-0.109,5.099-3.589c-1.6-5.77-4.86-10.468-9.937-13.685c-0.819-0.519-3.007-0.344-3.468,0.297
	c-1.923,2.675-2.831,5.704-0.544,8.731c1.488,1.971,2.903,4.057,4.695,5.722C104.275,43.958,106.207,44.697,107.023,45.175z"/>
<g>
	<rect x="20.943" y="66.971" fill="#C53C52" width="4.376" height="27.01"/>
	
		<path fill="#C53C52" stroke="#FF8787" stroke-width="0.2471" stroke-linecap="round" stroke-linejoin="round" stroke-miterlimit="10" d="
		M7.781,84.401L5.349,73.615l-3.856,0.869l0.745,3.304c-1.217,0.332-2.114,1.441-2.114,2.764c0,1.584,1.284,2.867,2.867,2.867
		c0.174,0,0.342-0.018,0.506-0.047l0.428,1.898L7.781,84.401z"/>
	
		<path fill="#C53C52" stroke="#FF8787" stroke-width="0.2471" stroke-linecap="round" stroke-linejoin="round" stroke-miterlimit="10" d="
		M36.641,34.7c0-1.179,0.284-2.292,0.784-3.276l-14.751,3.858L9.026,55.227v42.376h0.34c0.299,2.548,2.463,4.526,5.092,4.526
		s4.792-1.979,5.092-4.526h0.038V58.495l9.894-14.459l11.526-2.686C38.439,40.236,36.641,37.678,36.641,34.7z"/>
	<rect x="66.066" y="66.971" fill="#C53C52" width="4.377" height="27.01"/>
	
		<path fill="#C53C52" stroke="#FF8787" stroke-width="0.2471" stroke-linecap="round" stroke-linejoin="round" stroke-miterlimit="10" d="
		M83.603,84.401l2.434-10.786l3.857,0.869l-0.746,3.304c1.218,0.332,2.113,1.441,2.113,2.764c0,1.584-1.283,2.867-2.867,2.867
		c-0.172,0-0.34-0.018-0.505-0.047L87.46,85.27L83.603,84.401z"/>
	
		<path fill="#C53C52" stroke="#FF8787" stroke-width="0.2471" stroke-linecap="round" stroke-linejoin="round" stroke-miterlimit="10" d="
		M74.225,10.988H87.49V0.727H67.995c-1.346-0.392-2.769-0.604-4.239-0.604c-6.906,0-12.729,4.626-14.545,10.947l-0.593,0.219
		c0.067,0.603,0.12,1.18,0.165,1.744c-0.107,0.727-0.165,1.471-0.165,2.227c0,1.007,0.101,1.991,0.288,2.943
		c-0.291,7.214-2.607,9.605-2.607,9.605l0,0c-3.086,0.696-5.393,3.454-5.393,6.749c0,3.824,3.099,6.92,6.92,6.92
		c3.796,0,6.877-3.057,6.916-6.842c0,0.021,0.004,0.042,0.004,0.063c0,2.979-1.799,5.535-4.367,6.649l11.525,2.685l9.893,14.459
		v39.109h0.039c0.299,2.548,2.463,4.526,5.092,4.526s4.793-1.979,5.092-4.526h0.34V55.227L68.712,35.283l-0.458-0.12v-19.82
		C69.788,13.385,71.85,11.862,74.225,10.988z M47.354,39.327c-2.417,0-4.375-1.962-4.375-4.376c0-2.418,1.959-4.376,4.375-4.376
		c2.417,0,4.376,1.958,4.376,4.376C51.73,37.365,49.771,39.327,47.354,39.327z"/>
</g>
</svg>
