<?xml version="1.0" encoding="utf-8"?>
<!-- Generator: Adobe Illustrator 16.0.4, SVG Export Plug-In . SVG Version: 6.00 Build 0)  -->
<!DOCTYPE svg PUBLIC "-//W3C//DTD SVG 1.0//EN" "http://www.w3.org/TR/2001/REC-SVG-20010904/DTD/svg10.dtd">
<svg version="1.0" xmlns="http://www.w3.org/2000/svg" xmlns:xlink="http://www.w3.org/1999/xlink" x="0px" y="0px"
	 width="155.081px" height="57.678px" viewBox="0 0 155.081 57.678" enable-background="new 0 0 155.081 57.678"
	 xml:space="preserve">
<g id="Calque_1">
	<path fill="#C53C52" d="M149.85,0.055h-31.072c-0.008,0-0.016,0-0.023,0c-1.479,0-9.406,0.519-15.633,11.006H51.978
		C45.702,0.472,37.7,0.007,36.304,0H5.232C2.343,0,0,2.343,0,5.232c0,2.89,2.343,5.232,5.232,5.232H36.21
		c0.262,0.033,1.748,0.29,3.642,2.002c2.156,1.949,5.156,6.093,7.217,14.813c0.078,0.313,1.956,7.759,6.362,15.093
		c6.01,10.006,13.914,15.245,22.943,15.245c0.165,0,0.333-0.015,0.498-0.019c0.045,0.005,0.088,0.013,0.133,0.017
		c0.571,0.041,1.138,0.062,1.701,0.062c9.03,0,16.935-5.239,22.944-15.244c4.405-7.335,6.283-14.78,6.375-15.15
		c2.049-8.667,5.049-12.811,7.203-14.761c1.895-1.713,3.381-1.97,3.643-2.003h30.979c2.889,0,5.231-2.343,5.231-5.232
		S152.738,0.055,149.85,0.055z M78.631,47.194c-0.42-0.075-0.855-0.106-1.301-0.075C63.294,48.13,57.282,24.984,57.239,24.816
		c-0.273-1.155-0.569-2.241-0.876-3.291h42.369c-0.307,1.048-0.602,2.132-0.874,3.285C97.801,25.039,92.05,47.188,78.631,47.194z"/>
</g>
<g id="Calque_2" display="none">
	<g display="inline">
		<g>
			<path fill="#C53C52" d="M26.884-17.699c-0.279,0-2.014,0-3.854,0s-3.849,0-4.463,0c-0.613,0-1.344,0.102-1.623,0.227
				c-0.279,0.125-0.507,2.613-0.507,4.845v26.372c0,2.232,0.102,4.286,0.227,4.565s1.29,0.507,1.903,0.507c0.614,0,2.623,0,4.463,0
				s3.576,0,3.854,0s0.507-0.229,0.507-0.507s0-2.333,0-4.565v-26.372c0-2.232,0-4.286,0-4.565S27.163-17.699,26.884-17.699z"/>
		</g>
		<g>
			<path fill="#C53C52" d="M130.246-17.699c-1.004,0-2.511,0-3.348,0s-2.387,0-3.444,0h-92.72c-1.058,0-1.923,0.865-1.923,1.923
				v32.671c0,1.058,0.865,1.923,1.923,1.923h92.72c1.058,0,2.607,0,3.444,0s2.344,0,3.348,0s1.826-0.865,1.826-1.923v-32.671
				C132.072-16.834,131.25-17.699,130.246-17.699z M81.284,7.28c-0.965,0.432-2.62,0.786-3.678,0.786H42.298
				c-1.058,0-1.923-0.023-1.923-0.052s-0.746-0.491-1.657-1.027c0,0-4.429-2.606-4.429-6.225c0-4.033,3.27-7.303,7.303-7.303
				c0.498,0,0.498,0,0.498,0c0.526,0.08,1.822,0.146,2.879,0.146h31.182c1.058,0,2.354-0.065,2.879-0.146c0,0,0,0,0.499,0
				c4.033,0,7.303,3.27,7.303,7.303C86.832,4.795,81.284,7.28,81.284,7.28z M115.842,15.068c0,1.058-0.865,1.923-1.923,1.923h-1.226
				c-1.058,0-1.923-0.865-1.923-1.923v-29.019c0-1.058,0.865-1.923,1.923-1.923h1.226c1.058,0,1.923,0.865,1.923,1.923V15.068z"/>
		</g>
		<rect x="39.563" y="19.832" fill="#C53C52" width="50.515" height="6.086"/>
		<path fill="#C53C52" d="M133.525,10.282c1.914-2.687,3.043-5.971,3.043-9.521s-1.129-6.833-3.043-9.521V10.282z"/>
		<path fill="#C53C52" d="M78.312,38.528v-11.19H43.418v24.666c-1.499,1.423-2.434,3.434-2.434,5.663s0.935,4.239,2.434,5.661v6.815
			h6.642c3.858,6.668,11.066,11.157,19.325,11.157c12.324,0,22.316-9.991,22.316-22.315C91.701,49.836,86.193,41.973,78.312,38.528z
			 M47.165,61.051c-1.258-0.608-2.124-1.896-2.124-3.384c0-1.659,1.075-3.065,2.566-3.562c0.373-0.125,0.773-0.192,1.187-0.192
			c2.074,0,3.753,1.681,3.753,3.754s-1.68,3.753-3.753,3.753C48.21,61.42,47.658,61.285,47.165,61.051z M69.791,73.997
			c-6.928,0-12.744-4.755-14.361-11.182c1.503-1.193,2.469-3.037,2.469-5.104c0-1.691-0.646-3.233-1.706-4.392
			c2.27-5.261,7.504-8.94,13.598-8.94c8.18,0,14.81,6.63,14.81,14.81C84.601,67.367,77.971,73.997,69.791,73.997z"/>
	</g>
</g>
</svg>
