<?xml version="1.0" encoding="utf-8"?>
<!-- Generator: Adobe Illustrator 16.0.4, SVG Export Plug-In . SVG Version: 6.00 Build 0)  -->
<!DOCTYPE svg PUBLIC "-//W3C//DTD SVG 1.0//EN" "http://www.w3.org/TR/2001/REC-SVG-20010904/DTD/svg10.dtd">
<svg version="1.0" id="Calque_1" xmlns="http://www.w3.org/2000/svg" xmlns:xlink="http://www.w3.org/1999/xlink" x="0px" y="0px"
	 width="157.67px" height="124.332px" viewBox="0 0 157.67 124.332" enable-background="new 0 0 157.67 124.332"
	 xml:space="preserve">
<path display="none" fill="#C53C52" d="M138.119,26.386C126.537,10.4,107.72,0,86.468,0C74.682,0,63.642,3.202,54.171,8.78
	l-0.004,0.004c-2.149,1.267-4.222,2.652-6.2,4.157C34.833,22.105,5.804,44.437,10.78,59.697c0,0,7.249,5.97,3.411,8.528
	c0,0,5.091,2.708,9.582,7.112c10.008,4.55,13.871,12.93,13.871,12.93c0,3.41,10.66,14.498,10.66,14.498
	c2.559,7.248,19.188,15.776,19.188,15.776c0.371,3.701,2.025,5.155,3.782,5.612c2.286,0.596,4.746-0.495,4.746-0.495
	c3.04-2.4,4.191-7.249,4.191-7.249c5.476-2.559,12.013-46.479,12.013-46.479c19.188-11.513,40.082-11.087,40.082-11.087
	c10.234-2.132,16.102-10.204,16.102-10.204v-0.004C151.086,45.208,147.104,35.802,138.119,26.386z M88.387,8.528
	c-4.265,5.543-27.815,0-27.815,0C78.703,0.136,88.387,8.528,88.387,8.528z M75.168,115.131c0,0-36.671-20.895-34.113-36.031
	l32.407-9.595c0,0,3.271,2.559,6.75,1.706L75.168,115.131z M104.59,40.083C89.239,53.728,56.832,20.468,56.832,20.468
	C122.5,15.777,104.59,40.083,104.59,40.083z M128.469,34.113c-5.922,1.271-26.125-25.798-26.434-26.211
	C139.982,31.567,128.469,34.113,128.469,34.113z"/>
<path display="none" fill-rule="evenodd" clip-rule="evenodd" fill="#C53C52" d="M156.623,58.013
	c0.211,1.769,0.521,3.534,0.602,5.309c0.057,1.291-0.015,2.641-0.338,3.885c-0.645,2.479-1.501,4.902-2.271,7.348
	c-0.208,0.656-0.291,1.395-0.65,1.955c-3.851,6.023-8.546,12.012-14.81,14.676c-4.383,1.863-9.164,5.073-15.208,3.543
	c-4.682-1.184-9.967,0.133-14.984,0.137c-3.502,0.002-7.012-0.252-10.506-0.539c-5.017-0.412-10.021-0.981-15.034-1.441
	c-5.406-0.496-10.825-0.871-16.225-1.438c-3.501-0.367-6.989-0.91-10.459-1.508c-4.8-0.828-9.58-1.779-14.367-2.682
	c-4.916-0.928-9.905-1.578-14.726-2.859c-5.554-1.475-11.079-2.752-16.522-5.133c-5.961-2.606-6.928-8.023-10.394-11.91
	c-0.674-0.757-0.604-2.289-0.646-3.473c-0.087-2.442-0.15-4.898,0.037-7.328c0.109-1.418,0.618-2.838,1.148-4.178
	c0.292-0.737,1.32-1.242,1.47-1.965c1.306-6.274,7.245-7.636,11.39-10.883c0.52-0.406,1.201-0.846,1.813-0.854
	c4.751-0.067,9.508,0.081,14.255-0.063c4.222-0.127,8.441-0.482,12.653-0.843c6.077-0.522,12.161-1.017,18.213-1.758
	c4.589-0.562,9.128-1.529,13.701-2.248c5.105-0.803,10.229-1.495,15.336-2.3c3.907-0.616,7.84-1.156,11.687-2.05
	c4.487-1.043,8.873-2.518,13.348-3.624c1.419-0.352,2.979-0.134,4.476-0.159c1.881-0.032,3.766-0.123,5.642-0.044
	c1.583,0.066,3.193,0.191,4.729,0.553c2.242,0.53,4.455,1.219,6.627,1.99c1.247,0.442,2.473,1.064,3.551,1.826
	c0.885,0.625,1.416,2.086,2.314,2.301c5.857,1.408,7.747,6.993,10.54,10.976c2.788,3.976,3.201,9.618,4.655,14.53
	C157.321,57.845,156.972,57.929,156.623,58.013z M101.345,34.016c-7.854,1.582-15.694,3.36-23.611,4.682
	c-4.955,0.827-10.028,0.925-15.04,1.426c-3.939,0.394-7.869,0.89-11.799,1.365c-4.965,0.6-9.94,1.149-14.885,1.897
	c-1.21,0.183-2.316,1.055-3.47,1.61c0.932,1.449,1.641,3.874,2.841,4.148c2.793,0.639,3.601,1.829,2.653,4.287
	c-0.988,2.56,0.233,3.856,2.284,4.97c0.819,0.444,1.458,1.219,2.18,1.843c-0.633,0.592-1.167,1.448-1.917,1.728
	c-2.96,1.106-3.287,2.977-1.968,5.554c0.537,1.049,0.926,2.173,1.66,3.925c-6.586-1.488-8.808,1.316-7.37,7.902
	c-2.209-1.023-3.36-1.741-4.613-2.083c-1.156-0.315-2.421-0.226-3.639-0.313c-0.042,0.529-0.084,1.062-0.125,1.594
	c28.212,6.408,56.792,10.04,86.415,11.126c-2.487-5.157-6.246-1.163-8.871-2.159c0.49-5.781,0.486-5.754-5.365-6.723
	c-2.789-0.461-1.886-2.145-1.037-3.654c1.625-2.895,0.604-4.564-2.455-4.929c-3.88-0.46-3.26-2.092-1.319-4.216
	c2.114-2.315,1.817-4.184-1.005-5.563c-2.785-1.361-2.915-2.845-0.132-4.255c3.237-1.639,3.36-3.635,1.085-6.199
	c-0.695-0.783-1.186-1.75-1.847-2.749c0.651-0.256,1.001-0.458,1.376-0.532c5.43-1.068,5.479-1.077,4.024-6.249
	c-0.84-2.987,1.202-2.771,2.998-2.891C103.146,39.241,103.523,38.556,101.345,34.016z M32.601,65.057
	c-0.798-4.503-0.437-8.515-2.228-10.931c-1.927-2.601-5.803-4.92-8.959-5.102c-2.896-0.168-6.975,1.961-8.682,4.383
	c-1.744,2.475-1.306,6.528-1.689,9.905c-0.265,2.331,8.387,9.163,11.386,8.094C26.182,70.07,29.372,67.157,32.601,65.057z
	 M111.073,59.219c0.288,1.812,0.182,2.903,0.634,3.657c1.332,2.216,2.604,4.597,4.447,6.332c1.303,1.228,3.518,2.119,5.286,2.058
	c2.188-0.076,4.487-1.019,6.462-2.094c1.793-0.979,4.796-3.295,4.547-3.896c-1.784-4.312,2.609-9.599-2.152-13.228
	c-0.524-0.4-1.268-0.521-1.92-0.739c-2.296-0.77-4.608-2.145-6.891-2.096c-1.888,0.038-3.965,1.496-5.539,2.823
	c-1.269,1.07-1.879,2.904-2.84,4.361C112.372,57.512,111.546,58.567,111.073,59.219z M121.781,86.172
	c1.584-1.236,4.367-2.715,4.184-3.393c-0.697-2.584-1.796-5.655-3.791-7.136c-2.398-1.779-5.899-2.952-8.855-2.826
	c-2.407,0.103-4.715,2.509-7.066,3.893c1.122,1.667,1.875,4.049,3.441,4.857C113.283,83.427,117.271,84.519,121.781,86.172z
	 M130.989,76.436c0.521,0.925,1.171,3.346,2.737,4.383c0.891,0.589,3.845-0.61,4.884-1.84c2.712-3.204,5.291-6.666,7.146-10.409
	c1.741-3.513,0.069-5.366-3.971-5.368C137.6,63.201,131.048,70.506,130.989,76.436z M111.373,48.19
	c4.606-1.395,8.58-1.79,11.48-3.763c1.895-1.289,2.232-4.865,3.266-7.416c-1.99-0.465-4.098-1.585-5.946-1.255
	c-3.595,0.643-7.2,1.775-10.481,3.363c-1.495,0.724-3.486,3.713-3.07,4.463C107.752,45.617,110.049,47.002,111.373,48.19z
	 M97.912,59.241c-0.094,0.018-0.188,0.035-0.281,0.053c0.449,2.715,0.691,5.483,1.396,8.129c1.013,3.805,3.045,4.481,5.935,1.802
	c1.256-1.164,1.986-3.2,2.337-4.963c0.479-2.412,0.339-4.943,0.516-7.419c0.207-2.889-2.914-7.141-5.65-7.064
	c-3.562,0.101-3.541,3.26-4.047,5.741C97.871,56.724,97.969,57.999,97.912,59.241z M141.098,57.051
	c3.492-0.172,6.063-0.109,5.099-3.589c-1.6-5.77-4.86-10.468-9.937-13.685c-0.819-0.519-3.007-0.344-3.468,0.297
	c-1.923,2.675-2.831,5.704-0.544,8.731c1.488,1.971,2.903,4.057,4.695,5.722C138.35,55.834,140.281,56.574,141.098,57.051z"/>
<path fill-rule="evenodd" clip-rule="evenodd" fill="#C53C52" d="M150.92,118.574c-1.793,4.74-2.952,5.535-8.101,5.535
	c-15.724,0.001-31.449,0.004-47.173-0.002c-5.199-0.002-7.219-2.037-7.234-7.248c-0.004-1.082-0.002-2.163-0.002-3.244
	c0.009-5.574,1.947-7.55,7.451-7.553c12.396-0.008,24.793-0.002,37.189-0.002c3.244,0,6.49-0.003,9.734,0
	c5.119,0.003,6.34,0.832,8.135,5.514C150.92,113.908,150.92,116.24,150.92,118.574z M119.519,122.611
	c4.127,0.009,7.462-3.265,7.524-7.383c0.063-4.238-3.295-7.67-7.504-7.67c-4.052,0-7.494,3.361-7.58,7.401
	C111.872,119.082,115.35,122.603,119.519,122.611z M101.791,114.26c0.221,2.67,1.227,3.777,3.062,3.739
	c1.714-0.036,2.769-1.14,2.771-2.865c0.002-1.856-1.186-3.136-2.942-2.861C103.521,112.454,102.529,113.721,101.791,114.26z
	 M131.308,115.913c0.745,0.552,1.729,1.812,2.896,2.018c1.784,0.313,2.962-1.01,2.985-2.829c0.021-1.704-1.057-2.845-2.766-2.895
	C132.597,112.154,131.566,113.256,131.308,115.913z M145.242,115.054c-1.271-0.881-2.043-1.833-2.711-1.765
	c-0.711,0.073-1.324,1.111-1.98,1.728c0.68,0.674,1.276,1.722,2.064,1.895C143.18,117.034,144,115.982,145.242,115.054z
	 M96.586,117.945c0.9-1.366,1.834-2.16,1.753-2.83c-0.087-0.709-1.137-1.303-1.766-1.948c-0.637,0.647-1.7,1.244-1.786,1.958
	C94.706,115.791,95.662,116.584,96.586,117.945z"/>
<path fill-rule="evenodd" clip-rule="evenodd" fill="#C53C52" d="M37.211,81.717c-3.72-3.727-6.966-6.979-10.194-10.214
	c2.833-3.2,5.373-5.835,7.647-8.682c7.881-9.867,7.817-15.245-0.249-24.958c-2.225-2.68-4.65-5.193-7.419-8.266
	c3.212-3.243,6.44-6.5,9.708-9.797c2.913,2.626,5.317,5.04,7.967,7.142c10.868,8.62,15.117,8.688,26.097-0.062
	c2.596-2.069,4.956-4.435,7.854-7.051c3.22,3.201,6.479,6.439,9.791,9.733c-2.603,2.876-4.903,5.266-7.019,7.811
	c-1.482,1.784-2.745,3.757-4.05,5.683c-3.367,4.967-3.352,10.048,0.021,14.918c2.407,3.474,4.942,6.937,7.89,9.945
	c11.13,11.362,22.452,22.536,33.698,33.783c0.632,0.631,1.236,1.291,2.265,2.371c-5.206,0-9.921-0.264-14.591,0.081
	c-3.916,0.288-6.607-1.021-9.287-3.849c-7.045-7.431-14.285-14.692-21.73-21.722c-3.6-3.398-7.695-6.334-11.821-9.097
	c-4.12-2.759-8.636-2.537-12.684,0.224c-3.901,2.66-7.544,5.708-11.216,8.688C38.947,79.164,38.32,80.317,37.211,81.717z
	 M67.452,50.655c0.05-5.451-4.283-9.896-9.699-9.946c-5.394-0.052-9.835,4.371-9.842,9.8c-0.007,5.369,4.198,9.659,9.572,9.769
	C62.946,60.389,67.402,56.088,67.452,50.655z"/>
<path fill-rule="evenodd" clip-rule="evenodd" fill="#C53C52" d="M59.205,99.426c-1.093-0.824-2.02-1.523-2.983-2.25
	c-1.012,0.674-1.972,1.313-3.41,2.271c-0.6-1.02-1.236-2.101-1.821-3.096c-1.698,0.815-2.791,1.34-3.836,1.841
	c-2.609-2.67-2.609-2.67-5.991-1.771c-2.195-3.047-2.195-3.047-5.723-2.332c-0.569-2.737-2.104-4.298-5.254-2.853
	c-0.479-2.457-0.979-4.605-4.015-4.029c-0.284,0.053-1.06-0.724-1.036-1.076c0.199-2.946-1.842-3.06-4.092-3.128
	c-0.078-1.296-0.15-2.514-0.227-3.809c-1.176-0.405-2.331-0.804-3.438-1.185c0.024-3.51,0.024-3.51-3.264-5.448
	c0.232-1.088,0.472-2.21,0.734-3.437c-1.043-0.678-2.062-1.34-3.286-2.135c1.656-2.503,1.275-4.501-1.85-5.677
	c1.653-2.347,2.705-4.561-0.914-5.866c0.845-1.322,1.504-2.353,2.208-3.454c-0.708-0.963-1.388-1.89-2.25-3.064
	c1.987-1.666,3.233-3.604,0.324-5.953c2.366-1.57,3.988-3.296,1.496-5.854c0.621-0.519,0.995-0.985,1.48-1.207
	c1.492-0.683,1.812-1.649,1.23-3.188c-0.22-0.584,0.029-1.946,0.328-2.032c2.824-0.804,2.665-2.723,1.688-5.089
	c2.969-0.524,4.641-1.873,3.465-5.12c2.902-0.252,5.25-0.91,3.972-4.537c1.537-0.181,2.677-0.315,4.01-0.472
	c0.298-1.09,0.617-2.253,1.01-3.691c2.648,0.583,4.952,0.352,4.66-3.559c3.011,1.024,5.124,0.654,5.616-2.642
	c1.399,0.345,2.577,0.636,3.843,0.948c0.691-0.961,1.362-1.893,2.131-2.961c1.14,0.457,2.262,0.907,3.466,1.389
	c0.861-0.933,1.694-1.837,2.597-2.816c1.033,0.629,2.013,1.225,3.16,1.922c0.904-0.765,1.836-1.553,2.893-2.446
	c0.975,0.723,1.95,1.447,3.01,2.233c1.033-0.667,2.056-1.327,3.345-2.159c0.724,0.949,1.428,1.874,2.158,2.83
	c1.409-0.65,2.507-1.157,3.726-1.72c0.74,0.912,1.463,1.803,2.313,2.85c1.128-0.365,2.282-0.738,3.533-1.143
	c0.389,0.589,0.835,1.095,1.088,1.685c0.509,1.187,1.216,1.721,2.511,1.149c1.537-0.679,2.551-0.24,2.941,1.454
	c0.657,2.862,2.972,0.666,4.536,1.56c0.295,2.078,1.029,3.859,3.99,3.517c0.426-0.05,1.113,2.171,1.828,3.647
	c0.797,0.173,1.988,0.431,3.331,0.723c0,1.21,0,2.356,0,3.586c1.282,0.429,2.434,0.813,3.839,1.283
	c-1.202,2.991,0.174,4.553,3.033,5.09c-0.283,1.345-0.52,2.468-0.783,3.725c1.004,0.652,2.027,1.317,3.238,2.104
	c-1.377,2.43-1.682,4.646,1.797,5.515c-0.678,1.437-1.198,2.541-1.85,3.92c0.928,0.699,1.861,1.402,2.852,2.15
	c-0.834,1.303-1.492,2.33-2.211,3.452c0.715,0.944,1.409,1.86,2.217,2.929c-0.771,0.949-1.541,1.894-2.387,2.931
	c0.58,1.021,1.148,2.021,1.867,3.286c-2.123,1.413-3.77,3.131-1.208,5.738c-1.194,0.892-2.165,1.617-3.192,2.385
	c0.295,1.165,0.578,2.278,0.932,3.669c-2.629,0.776-4.188,2.289-2.641,5.122c-2.178,1.675-3.691,1.362-5.421-0.554
	c-3.106-3.443-3.11-3.277-1.29-7.547c6.473-15.178,4.837-29.538-5.928-42.024C76.389,12.347,62.128,8.281,46.171,13.18
	c-15.75,4.835-25.118,16.051-27.248,32.437c-2.051,15.768,3.905,28.583,17.052,37.419c12.908,8.676,26.668,8.897,40.484,1.854
	c1.478-0.753,2.335-0.801,3.328,0.486c0.555,0.719,1.277,1.31,1.926,1.958c2.162,2.169,2.162,2.169,0.859,5.074
	c-3.843,0.099-3.843,0.099-5.574,3.071c-2.441-1.439-4.499-1.142-5.472,2.271c-2.536-1.749-4.784-2.216-5.93,1.239
	c-1.349-0.773-2.344-1.343-3.501-2.006C61.189,97.749,60.253,98.54,59.205,99.426z"/>
</svg>
