<?xml version="1.0" encoding="utf-8"?>
<!-- Generator: Adobe Illustrator 16.0.0, SVG Export Plug-In . SVG Version: 6.00 Build 0)  -->
<!DOCTYPE svg PUBLIC "-//W3C//DTD SVG 1.0//EN" "http://www.w3.org/TR/2001/REC-SVG-20010904/DTD/svg10.dtd">
<svg version="1.0" id="Calque_1" xmlns="http://www.w3.org/2000/svg" xmlns:xlink="http://www.w3.org/1999/xlink" x="0px" y="0px"
	 width="141.985px" height="161.961px" viewBox="0 0 141.985 161.961" enable-background="new 0 0 141.985 161.961"
	 xml:space="preserve">
<g display="none">
	<g id="mysql" display="inline">
		<polygon fill="#00618A" points="4.287,4 139.342,4 125.588,143.348 69.593,159.836 14.337,147.246 		"/>
		<path fill="#00618A" d="M141.985,0.186l-0.279-0.004L141.786,0L0.1,0.1l0.087,0.179L0,0.275l12,146.352l57.66,15.271l0.014,0.063
			l0.113-0.029l0.11,0.029l0.014-0.063l58.955-15.271l-0.033-0.121l0.486,0.031L141.985,0.186z M4.287,4h133.379l-12.078,139.348
			l-55.792,14.5l-54.04-14.361L4.287,4z"/>
		<polygon fill="#E48E00" points="69.593,15.337 125.842,15.337 115.342,135.336 69.593,147.836 		"/>
	</g>
	<g display="inline">
		<path fill="#FFFFFF" d="M42.6,84.829h-7.92v-15.32h-3v15.32h-7.92v-21.24h-3v21.24h-7.92v-28.08h12.84l6,5.92H42.6V84.829z"/>
		<path fill="#FFFFFF" d="M45.399,56.749h7.92v11.32h2.96v-11.32h7.96v16.2h-4.96v11.88h-7.88v-11.92l-6-5.88V56.749z"/>
		<path fill="#FFFFFF" d="M85.799,63.589h-11.08v4.48h11.08v12.24l-4.04,4.52h-14.76v-6.32h11.92v-5.56h-11.92v-6.96l5.988-9.24
			h12.813V63.589z"/>
		<path fill="#FFFFFF" d="M107.399,62.789v25.68h-7.92v-3.64h-4.881l-6-5.92v-22.16h12.813L107.399,62.789z M99.479,77.989v-14.4
			h-2.96v14.4H99.479z"/>
		<path fill="#FFFFFF" d="M127.119,84.829h-16.921v-28.08h7.921v21.24h9V84.829z"/>
	</g>
</g>
<g display="none">
	<g id="html_1_" display="inline">
		<polygon fill="#E54F27" points="4.287,4.001 139.342,4.001 125.588,143.348 69.593,159.838 14.337,147.249 		"/>
		<path fill="#E54F27" d="M141.985,0.187l-0.279-0.004l0.08-0.182L0.1,0.101l0.087,0.179L0,0.276l12,146.353l57.66,15.27
			l0.014,0.063l0.113-0.029l0.11,0.029l0.014-0.061l58.955-15.271l-0.033-0.123l0.486,0.031L141.985,0.187z M4.287,4.001h133.379
			l-12.078,139.347L69.796,157.85l-54.04-14.361L4.287,4.001z"/>
		<polygon fill="#FF7443" points="69.593,15.338 125.842,15.338 115.342,135.338 69.593,147.838 		"/>
	</g>
	<g display="inline">
		<path fill="#FFFFFF" d="M41.937,88.143h-8.91V70.682h-3.33v13.365h-8.91v-31.59h8.91v12.735h3.33V52.458h8.91V88.143z"/>
		<path fill="#FFFFFF" d="M66.236,60.152h-5.94v27.991h-8.91V60.152h-6.3v-7.695h21.15V60.152z"/>
		<path fill="#FFFFFF" d="M102.866,84.047h-8.909V66.813h-3.375v17.235h-8.91V60.152h-3.375v23.895h-8.91v-31.59h14.445l6.75,6.66
			h12.284V84.047z"/>
		<path fill="#FFFFFF" d="M125.051,84.047h-19.035v-31.59h8.91v23.895h10.125V84.047z"/>
	</g>
</g>
<g display="none">
	<g id="wordpress" display="inline">
		<polygon fill="#78DCEA" points="4.287,4 139.343,4 125.589,143.348 69.593,159.836 14.337,147.247 		"/>
		<path fill="#78DCEA" d="M141.986,0.186l-0.281-0.004L141.787,0L0.099,0.1l0.088,0.178L0,0.275l12,146.352l57.66,15.271
			l0.014,0.063l0.113-0.029l0.111,0.029l0.014-0.063l58.955-15.271l-0.033-0.121l0.484,0.031L141.986,0.186z M4.287,4h133.379
			l-12.076,139.348l-55.793,14.5l-54.041-14.361L4.287,4z"/>
		<polygon fill="#A4F9FF" points="69.593,15.336 125.843,15.336 115.343,135.336 69.593,147.836 		"/>
	</g>
	<g display="inline">
		<path fill="#FFFFFF" d="M34.573,46.146h11.94v22.98h4.44v-22.98h11.88v31.86h4.44v-31.86h11.94v42.12h-19.26l-9-8.88h-16.38
			V46.146z"/>
		<path fill="#FFFFFF" d="M111.612,53.406v26.52h-16.32v8.34h-11.88v-42.12h19.219L111.612,53.406z M99.732,72.726v-16.32h-4.44
			v16.32H99.732z"/>
	</g>
</g>
<g display="none">
	<g id="php_1_" display="inline">
		<polygon fill="#E6C900" points="4.287,4 139.343,4 125.589,143.348 69.593,159.837 14.337,147.248 		"/>
		<path fill="#E6C900" d="M141.986,0.186l-0.281-0.004L141.787,0L0.099,0.1l0.088,0.179L0,0.276l12,146.353l57.66,15.271
			l0.014,0.063l0.113-0.029l0.111,0.029l0.014-0.062l58.955-15.271l-0.033-0.122l0.484,0.031L141.986,0.186z M4.287,4h133.379
			l-12.076,139.348l-55.793,14.501l-54.041-14.361L4.287,4z"/>
		<polygon fill="#F4E105" points="69.593,15.337 125.843,15.337 115.343,135.337 69.593,147.837 		"/>
	</g>
	<g display="inline">
		<path fill="#FFFFFF" d="M54.792,53.407v26.52H38.473v8.34h-11.88v-42.12h19.219L54.792,53.407z M42.913,72.727v-16.32h-4.439
			v16.32H42.913z"/>
		<path fill="#FFFFFF" d="M58.993,46.146h11.88v16.98h4.439v-16.98h11.88v42.12h-11.88v-17.82h-4.439v23.28h-11.88V46.146z"/>
		<path fill="#FFFFFF" d="M119.591,53.407v26.52h-16.319v8.34h-11.88v-42.12h19.219L119.591,53.407z M107.711,72.727v-16.32h-4.439
			v16.32H107.711z"/>
	</g>
</g>
<g display="none">
	<g id="boostrap" display="inline">
		<polygon fill="#7600FF" points="4.287,4 139.343,4 125.589,143.348 69.593,159.836 14.337,147.246 		"/>
		<path fill="#7600FF" d="M141.985,0.186l-0.28-0.004L141.786,0L0.1,0.1l0.087,0.178L0,0.276l12,146.351l57.66,15.271l0.014,0.063
			l0.113-0.029l0.11,0.029l0.014-0.063l58.955-15.271l-0.033-0.121l0.485,0.031L141.985,0.186z M4.287,4h133.379l-12.077,139.347
			l-55.793,14.5l-54.04-14.361L4.287,4z"/>
		<polygon fill="#924DFF" points="69.593,15.336 125.843,15.336 115.343,135.336 69.593,147.836 		"/>
	</g>
	<g display="inline">
		<path fill="#FFFFFF" d="M90.433,86.641L79.655,97.297H56.593V46.752h23.063l10.777,8.712v8.352l-7.848,7.848h7.848V86.641z
			 M76.177,67.128v-8.064h-5.328v8.064H76.177z M76.177,84.984v-9.072h-5.328v9.072H76.177z"/>
	</g>
</g>
<g display="none">
	<g id="sass" display="inline">
		<polygon fill="#FFB3E8" points="4.287,4 139.343,4 125.589,143.348 69.593,159.838 14.337,147.248 		"/>
		<path fill="#FFB3E8" d="M141.985,0.186l-0.28-0.004L141.786,0L0.1,0.1l0.087,0.179L0,0.276l12,146.353l57.66,15.27l0.014,0.063
			l0.113-0.029l0.11,0.029l0.014-0.061l58.955-15.271l-0.033-0.123l0.485,0.031L141.985,0.186z M4.287,4h133.379l-12.077,139.347
			L69.796,157.85l-54.04-14.361L4.287,4z"/>
		<polygon fill="#FFCCF5" points="69.593,15.337 125.843,15.337 115.343,135.338 69.593,147.838 		"/>
	</g>
	<g display="inline">
		<path fill="#FFFFFF" d="M45.073,72.794H31.777v5.376h13.296v14.688l-4.848,5.424H22.513v-7.584h14.304v-6.672H22.513v-8.352
			l7.185-11.088h15.375V72.794z"/>
		<path fill="#FFFFFF" d="M48.433,64.586h15.408l7.2,11.088v22.608h-9.552V84.026h-3.552v14.256h-9.504V64.586z M61.489,78.17
			l-3.552-6.912v6.912H61.489z"/>
		<path fill="#FFFFFF" d="M96.913,72.794H83.617v5.376h13.296v14.688l-4.848,5.424H74.353v-7.584h14.304v-6.672H74.353v-8.352
			l7.185-11.088h15.375V72.794z"/>
		<path fill="#FFFFFF" d="M122.833,72.794h-13.296v5.376h13.296v14.688l-4.848,5.424h-17.712v-7.584h14.304v-6.672h-14.304v-8.352
			l7.185-11.088h15.375V72.794z"/>
	</g>
</g>
<g display="none">
	<g id="js" display="inline">
		<polygon fill="#63A92F" points="4.287,4 139.343,4 125.589,143.348 69.593,159.838 14.337,147.248 		"/>
		<path fill="#63A92F" d="M141.985,0.186l-0.28-0.004L141.786,0L0.1,0.1l0.087,0.179L0,0.276l12,146.353l57.66,15.27l0.014,0.063
			l0.113-0.029l0.11,0.029l0.014-0.061l58.955-15.271l-0.033-0.123l0.485,0.031L141.985,0.186z M4.287,4h133.379l-12.077,139.347
			L69.796,157.85l-54.04-14.361L4.287,4z"/>
		<polygon fill="#8DBF27" points="69.593,15.337 125.843,15.337 115.343,135.338 69.593,147.838 		"/>
	</g>
	<g display="inline">
		<path fill="#FFFFFF" d="M71.053,65.825v28.26l-9,13.86h-19.2v-28.5h11.88v18.24h4.44v-22.68h-16.32v-9.18H71.053z"/>
		<path fill="#FFFFFF" d="M103.392,76.085h-16.62v6.72h16.62v18.361l-6.06,6.779h-22.14v-9.48h17.88v-8.339h-17.88v-10.44
			l8.981-13.86h19.219V76.085z"/>
	</g>
</g>
<g display="none">
	<g id="css" display="inline">
		<polygon fill="#1E63AD" points="4.287,4 139.343,4 125.589,143.348 69.593,159.838 14.337,147.248 		"/>
		<path fill="#1E63AD" d="M141.985,0.186l-0.28-0.004L141.786,0L0.1,0.1l0.087,0.179L0,0.276l12,146.353l57.66,15.27l0.014,0.063
			l0.113-0.029l0.11,0.029l0.014-0.061l58.955-15.271l-0.033-0.123l0.485,0.031L141.985,0.186z M4.287,4h133.379l-12.077,139.347
			L69.796,157.85l-54.04-14.361L4.287,4z"/>
		<polygon fill="#399BD6" points="69.593,15.337 125.843,15.337 115.343,135.338 69.593,147.838 		"/>
	</g>
	<g display="inline">
		<path fill="#FFFFFF" d="M53.754,62.764v23.1h-11.88v-12.84h-4.5v22.679h4.5v-6.959h11.88v7.26l-9,8.88h-19.26v-28.26l9-13.86
			H53.754z"/>
		<path fill="#FFFFFF" d="M86.093,73.024h-16.62v6.72h16.62v18.36l-6.06,6.78h-22.14v-9.479h17.88v-8.34h-17.88v-10.44l8.98-13.86
			h19.219V73.024z"/>
		<path fill="#FFFFFF" d="M118.492,73.024h-16.62v6.72h16.62v18.36l-6.06,6.78h-22.14v-9.479h17.88v-8.34h-17.88v-10.44l8.98-13.86
			h19.219V73.024z"/>
	</g>
</g>
<g display="none">
	<g id="css_1_" display="inline">
		<polygon fill="#0000EA" points="4.287,4 139.343,4 125.589,143.348 69.593,159.838 14.337,147.248 		"/>
		<path fill="#0000EA" d="M141.985,0.186l-0.28-0.004L141.786,0L0.1,0.1l0.087,0.179L0,0.275l12,146.354l57.66,15.27l0.014,0.063
			l0.113-0.029l0.11,0.029l0.014-0.061l58.955-15.271l-0.033-0.123l0.485,0.031L141.985,0.186z M4.287,4h133.379l-12.077,139.348
			L69.796,157.85l-54.04-14.361L4.287,4z"/>
		<polygon fill="#4444E2" points="69.593,15.337 125.843,15.337 115.343,135.338 69.593,147.838 		"/>
	</g>
	<g display="inline">
		<path fill="#FFFFFF" d="M69.894,70.023v14.04h-16.32v20.819h-11.88V62.764h19.219L69.894,70.023z M58.014,79.743v-6.72h-4.44v6.72
			H58.014z"/>
		<path fill="#FFFFFF" d="M102.293,73.023h-16.62v6.72h16.62v18.36l-6.06,6.779h-22.14v-9.479h17.88v-8.34h-17.88v-10.44
			l8.981-13.859h19.219V73.023z"/>
	</g>
</g>
<g display="none">
	<g id="css_2_" display="inline">
		<polygon fill="#D200F7" points="4.287,4 139.342,4 125.588,143.348 69.593,159.838 14.337,147.248 		"/>
		<path fill="#D200F7" d="M141.985,0.186l-0.279-0.004L141.786,0L0.1,0.1l0.087,0.178L0,0.275l12,146.354l57.66,15.27l0.014,0.063
			l0.113-0.029l0.11,0.029l0.014-0.061l58.955-15.271l-0.033-0.123l0.486,0.031L141.985,0.186z M4.287,4h133.379l-12.078,139.348
			L69.796,157.85l-54.04-14.361L4.287,4z"/>
		<polygon fill="#CE59EA" points="69.593,15.336 125.842,15.336 115.342,135.338 69.593,147.838 		"/>
	</g>
	<g display="inline">
		<path fill="#FFFFFF" d="M61.734,104.883h-11.88v-42.12h11.88V104.883z"/>
		<path fill="#FFFFFF" d="M94.193,96.003l-9,8.88h-19.26v-42.12h19.26l9,13.86V96.003z M82.313,94.623v-21.6h-4.5v21.6H82.313z"/>
	</g>
</g>
<g>
	<g id="css_3_">
		<polygon fill="#FFB000" points="4.178,4 139.233,4 125.479,143.348 69.484,159.838 14.228,147.249 		"/>
		<path fill="#FFB000" d="M141.875,0.186l-0.279-0.004L141.676,0L-0.009,0.1l0.087,0.178l-0.187-0.002l12,146.354l57.66,15.27
			l0.014,0.063l0.113-0.029l0.11,0.029l0.014-0.061l58.954-15.271l-0.033-0.123l0.486,0.031L141.875,0.186z M4.178,4h133.379
			l-12.078,139.348L69.687,157.85l-54.04-14.361L4.178,4z"/>
		<polygon fill="#F9C358" points="69.484,15.336 125.733,15.336 115.233,135.338 69.484,147.838 		"/>
	</g>
	<g>
		<path fill="#FFFFFF" d="M78.005,104.883h-11.88V87.064h-4.5v17.819h-11.88v-28.26l9-13.859h19.26V104.883z M66.125,79.744v-8.64
			l-4.5,8.64H66.125z"/>
		<path fill="#FFFFFF" d="M94.024,104.883h-11.88V62.764h11.88V104.883z"/>
	</g>
</g>
</svg>
